<?xml version="1.0" encoding="utf-8"?>
<!-- Generator: Adobe Illustrator 25.4.1, SVG Export Plug-In . SVG Version: 6.00 Build 0)  -->
<svg version="1.1" id="Capa_1" xmlns="http://www.w3.org/2000/svg" xmlns:xlink="http://www.w3.org/1999/xlink" x="0px" y="0px"
	 viewBox="0 0 487.58 490.68" style="enable-background:new 0 0 487.58 490.68;" xml:space="preserve">
<g>
	<path d="M212.33,437.34c-5.47-1.7-10.87-3.51-15.13-7.67c-7.98-7.8-10.71-17.1-8.52-28.03c0.39-1.93,0.11-4.08-0.27-6.05
		c-0.77-3.91-1.82-7.75-2.9-12.19c-5.83,0-12.03,0-18.23,0c-1.5,0-3,0.05-4.49-0.03c-3.73-0.2-5.83-2.16-5.85-5.89
		c-0.06-14.75-0.03-29.49,0.04-44.24c0.01-1.6,0.05-3.49,0.85-4.75c4.67-7.34,2.58-15.18,1.87-22.87
		c-3.13-33.83-6.39-67.64-9.6-101.46c-0.55-5.84-1.11-11.69-1.67-17.53c-0.43-4.48,1.25-7.1,4.79-7.46c3.6-0.36,5.83,1.64,6.3,6.22
		c1.46,14.41,2.77,28.84,4.14,43.27c2.39,25.12,4.77,50.23,7.17,75.35c0.26,2.69,0.55,5.38,0.8,7.89
		c5.44-0.55,10.45-1.06,15.78-1.61c-0.76-8.92-1.51-17.96-2.32-27c-2.13-24.01-4.29-48.02-6.42-72.03
		c-2.42-27.25-4.84-54.49-7.24-81.74c-0.67-7.59-1.35-15.18-1.88-22.78c-0.17-2.5-1.08-3.95-3.48-5.04
		c-19.27-8.78-38.47-17.71-57.7-26.58c-0.87-0.4-1.8-0.67-3.07-1.13c0,5.1-0.16,9.83,0.12,14.54c0.06,1.05,1.49,2.43,2.61,2.93
		c13.06,5.89,26.13,11.74,39.31,17.35c3.85,1.64,5.48,4.14,5.82,8.2c1.06,12.69,2.36,25.37,3.56,38.05
		c0.08,0.87,0.18,1.75,0.17,2.62c-0.04,3.31-2.04,5.67-5.01,5.94c-3.18,0.3-5.77-1.74-6.13-5.18c-0.84-7.95-1.54-15.91-2.3-23.87
		c-0.42-4.35-1.02-8.69-1.22-13.05c-0.11-2.28-1.2-3.16-3.09-3.99c-20.64-9.06-41.27-18.17-61.86-27.35
		c-9.7-4.32-14.24-13.27-11.66-22.78c1.6-5.91,5.36-10.03,10.91-12.54c1.1-0.5,2.2-1,3.29-1.51c2,0,3.99,0,5.99,0
		c13.35,5.77,26.77,11.38,40.03,17.36c16.35,7.38,32.54,15.12,48.85,22.58c3.56,1.63,5.22,3.92,5.57,7.96
		c3.02,35.35,6.26,70.68,9.38,106.02c2.62,29.62,5.18,59.24,7.77,88.86c0.51,5.85,0.97,11.7,1.59,17.54
		c0.12,1.14,0.62,2.51,1.42,3.27c6.09,5.71,8.34,12.82,8.07,20.97c-0.09,2.84-0.02,5.68-0.02,8.69c3.38,0,6.33,0,9.87,0
		c0-1.56,0-3.13,0-4.69c0-85,0-169.99,0-254.99c0-7.83,1.24-9.07,9.14-9.07c38.67,0,77.34,0,116.02,0c1,0,2-0.03,2.99,0.02
		c3.86,0.19,6.16,2.31,6.12,5.6c-0.03,3.14-2.25,5.29-5.84,5.58c-1.24,0.1-2.49,0.04-3.74,0.04c-36.05,0-72.11,0-108.16,0
		c-1.6,0-3.21,0-5.06,0c0,44.13,0,87.93,0,131.99c52.6,0,105.19,0,158.08,0c0-43.76,0-87.65,0-132c-4.11,0-8.19,0.05-12.26-0.01
		c-4.57-0.07-6.92-1.97-6.99-5.53c-0.08-3.73,2.28-5.66,7.12-5.69c5.49-0.04,10.98-0.04,16.47,0c5.36,0.04,7.19,1.88,7.2,7.21
		c0.02,12.75,0.01,25.5,0.01,38.25c0,72.87,0,145.74,0,218.61c0,1.47,0,2.95,0,4.85c5.41,0,10.48-0.03,15.55,0.01
		c5.74,0.04,7.6,1.92,7.61,7.68c0.02,7.25,0.03,14.5,0,21.75c-0.03,5.26-1.95,7.16-7.27,7.18c-6.81,0.03-13.62,0.01-21.27,0.01
		c1.15,1.02,1.63,1.5,2.16,1.92c9.43,7.38,13.4,17.13,11.08,28.78c-2.38,11.97-10.03,19.49-21.92,22.54
		c-0.58,0.15-1.11,0.47-1.66,0.71c-2.99,0-5.99,0-8.98,0c-0.43-0.21-0.85-0.51-1.31-0.63c-17.03-4.23-26.03-19.13-21.89-36.21
		c0.22-0.92,0.42-1.97,0.2-2.85c-1.19-4.67-2.51-9.3-3.78-13.92c-38.46,0-77.05,0-116.31,0c1.37,1.06,2.16,1.64,2.93,2.26
		c16.82,13.59,13.41,40.04-6.34,48.87c-2.24,1-4.63,1.66-6.95,2.47C218.32,437.34,215.33,437.34,212.33,437.34z M411.25,358.03
		c-1.76,0-3.23,0-4.69,0c-38.67,0-77.33,0-116,0c-4.99,0-9.98,0.05-14.97-0.02c-3.96-0.06-6.26-2.04-6.38-5.32
		c-0.13-3.44,2.23-5.67,6.29-5.89c1.12-0.06,2.24-0.02,3.37-0.02c34.92,0,69.85,0,104.77,0c1.44,0,2.88,0,4.36,0
		c0-38.32,0-76.12,0-113.92c-18.1,0-35.98,0-54.16,0c0,1.62,0,2.97,0,4.33c0,14.37,0.02,28.74-0.01,43.12
		c-0.01,5.43-1.78,7.19-7.17,7.21c-11.72,0.04-23.45,0.03-35.17,0c-5.82-0.01-7.44-1.69-7.44-7.67
		c-0.02-14.37-0.01-28.74-0.01-43.12c0-1.32,0-2.63,0-3.85c-18.48,0-36.37,0-54.15,0c0,38.09,0,75.88,0,113.89c1.91,0,3.52,0,5.14,0
		c4.24,0,8.48-0.09,12.72,0.04c3.78,0.12,6.2,2.45,6.2,5.64c0,3.25-2.39,5.39-6.21,5.55c-1.12,0.04-2.24,0.01-3.37,0.01
		c-23.82,0-47.65,0-71.47,0c-1.46,0-2.92,0-4.45,0c0,4.96,0,9.48,0,13.89c81.09,0,161.86,0,242.8,0
		C411.25,367.35,411.25,363.01,411.25,358.03z M295.48,276c9.26,0,18.05,0,26.87,0c0-14.57,0-28.85,0-43.41
		c-8.36,0-16.44,0-24.53,0.01c-0.72,0-1.44,0.08-2.34,0.14C295.48,247.26,295.48,261.55,295.48,276z M197.21,346.58
		c0-4.52,0.28-8.65-0.06-12.72c-0.58-6.95-5.91-11.59-13.1-11.88c-8.56-0.33-14.73,3.6-15.62,10.66c-0.57,4.51-0.11,9.15-0.11,13.94
		C177.95,346.58,187.36,346.58,197.21,346.58z M384.79,392.44c0,5.05,0.07,9.99-0.02,14.93c-0.08,4.56-2.12,6.94-6.66,6.59
		c-5.35-0.41-10.63-1.69-15.84-2.57c-0.24,6.59,6.92,13.86,15.29,14.64c8.86,0.83,17.32-5.5,18.86-14.12
		C397.98,403.16,392.92,394.36,384.79,392.44z M199.74,411.5c0.07,7.02,7.36,14.07,15.85,14.56c9.11,0.52,17.36-6.22,18.44-15.07
		c1.05-8.64-4.24-17.13-11.8-18.44c0,5.01,0.05,9.97-0.02,14.92c-0.06,4.37-2.05,6.79-6.35,6.49
		C210.5,413.58,205.2,412.37,199.74,411.5z M94.08,85.34c0-5.45,0.12-10.06-0.09-14.65c-0.05-1.06-0.98-2.44-1.91-3.01
		c-1.89-1.15-4-2.01-6.12-2.71c-3.67-1.22-6.93,0.35-8.6,3.91c-1.77,3.78-0.95,8.24,2.3,9.92C84.15,81.12,88.86,83,94.08,85.34z
		 M197.54,383.53c0.21,10.22,5.64,17.78,13.17,18.58c0-6.16,0-12.3,0-18.58C206.21,383.53,202.01,383.53,197.54,383.53z
		 M373.57,401.99c0-4.6,0-9.18,0-13.77c0-1.46,0-2.93,0-4.56c-4.8,0-9.18,0-13.57,0C360.65,394.27,366.02,401.64,373.57,401.99z"/>
	<path d="M271.35,114.15c-5.61,0-11.22,0.02-16.82-0.01c-4.33-0.02-6.94-2.19-6.9-5.63c0.04-3.29,2.61-5.57,6.64-5.59
		c11.47-0.06,22.93-0.05,34.4,0c4.07,0.02,6.61,2.21,6.7,5.52c0.09,3.44-2.53,5.67-6.81,5.7
		C282.82,114.17,277.08,114.15,271.35,114.15z"/>
	<path d="M261.33,136.77c-2.61,0-5.23,0.08-7.83-0.02c-3.47-0.13-5.84-2.42-5.86-5.48c-0.02-2.89,2.15-5.45,5.41-5.59
		c5.46-0.23,10.94-0.24,16.4-0.01c3.43,0.14,5.67,2.86,5.47,5.9c-0.2,2.97-2.42,5.05-5.76,5.18
		C266.56,136.85,263.94,136.76,261.33,136.77z"/>
</g>
</svg>
