<?xml version="1.0" encoding="utf-8"?>
<!-- Generator: Adobe Illustrator 25.4.1, SVG Export Plug-In . SVG Version: 6.00 Build 0)  -->
<svg version="1.1" id="Capa_1" xmlns="http://www.w3.org/2000/svg" xmlns:xlink="http://www.w3.org/1999/xlink" x="0px" y="0px"
	 viewBox="0 0 487.58 490.68" style="enable-background:new 0 0 487.58 490.68;" xml:space="preserve">
<g>
	<path d="M250.19,39.22c1.35,0.83,2.7,1.66,4.06,2.49c9.82,5.98,18.47,13.05,24.78,22.99c5.3,8.36,11.47,16.2,17.51,24.06
		c1.21,1.57,3.47,2.71,5.46,3.22c6.04,1.55,11.4,0.65,15.87-4.45c3.27-3.73,7.57-3.92,12.15-1.81c9,4.16,18.11,8.06,27.14,12.15
		c7.31,3.32,8.9,9.43,4.29,16.01c-1.37,1.96-2.75,3.9-4.45,6.31c1.7,0.22,2.95,0.34,4.19,0.54c4.56,0.75,7.57,3.26,8.59,7.86
		c0.87,3.92,1.72,7.86,2.43,11.81c0.98,5.46-2.99,11.24-8.53,10.84c-18.8-1.35-35.56,6.96-53.31,10.53
		c-1.18,0.24-2.51,1.55-3.09,2.7c-7.53,14.96-14.98,29.96-22.26,45.04c-0.55,1.14-0.15,3.37,0.67,4.43
		c4.03,5.19,8.23,10.26,12.6,15.16c3.59,4.02,5.63,8.19,2.73,13.93c8.82,0.12,18.41-1.26,18.49,11.77
		c6.49,0.74,12.78,1.51,17.43-4.72c1.22-1.64,3.17-3,5.06-3.83c6.11-2.68,12.73,1.83,12.89,8.76c0.16,6.67,0.03,13.35,0.03,20.48
		c2.73,0,4.98,0,7.23,0c6.07-0.01,10.87,2.43,14.43,7.37c4.55,6.31,9.18,12.56,13.69,18.89c5.01,7.03,5.03,13.49-0.89,19.67
		c-3.96,4.13-4.88,8.98-5.82,14.12c-2.58,14.1-5.35,28.17-7.86,42.29c-0.29,1.63,0.11,3.71,0.93,5.17c2.75,4.91,5.8,9.65,8.78,14.42
		c2.36,3.78,2.37,7.51,0.14,11.37c-7.11,12.3-14.11,24.66-21.26,36.94c-3.59,6.17-8.92,7.41-14.97,3.51
		c-18.25-11.77-36.46-23.61-54.66-35.46c-3.89-2.54-4.9-6.04-2.8-9.12c2.07-3.03,5.59-3.37,9.57-0.8
		c16.33,10.55,32.64,21.12,48.96,31.68c1.23,0.8,2.48,1.58,3.97,2.53c0.67-0.89,1.36-1.65,1.86-2.51
		c5.7-9.86,11.32-19.78,17.1-29.59c1.19-2.02,1.15-3.53-0.11-5.46c-2.94-4.48-5.93-8.97-8.37-13.72c-1.21-2.35-2.08-5.47-1.64-7.98
		c3.03-17.42,6.53-34.76,9.68-52.17c0.83-4.59,2.81-8.38,6.17-11.4c3.09-2.78,2.76-5.11,0.28-8.19
		c-4.03-5.01-7.81-10.25-11.36-15.61c-1.95-2.94-4.34-4.12-7.71-3.95c-2.41,0.12-4.83,0.13-7.24,0.04
		c-6.26-0.23-9.9-3.87-10.12-10.12c-0.09-2.55-0.02-5.1-0.02-7.65c0-2.54,0-5.09,0-7.6c-0.42-0.09-0.8-0.27-0.88-0.18
		c-4.07,4.72-9.33,5.87-15.26,5.28c-1.99-0.2-4.02-0.03-6.03-0.03c-10.06,0-12.34-1.93-13.75-12.02c-3.52,0-7.12-0.1-10.71,0.03
		c-4.21,0.15-7.76-0.92-9.76-4.92c-2-3.99-0.85-7.53,1.82-10.79c0.42-0.51,0.74-1.11,1.25-1.89c-5.03-6.06-9.97-12.22-15.15-18.17
		c-3.54-4.07-3.97-8.15-1.57-12.93c8.23-16.41,16.19-32.95,24.63-49.25c1.39-2.68,4.34-5.5,7.14-6.32
		c13.87-4.07,27.89-7.66,41.95-11.06c4.09-0.99,8.46-0.79,12.7-1.14c-0.62-5.94-0.62-5.94-6.26-6.65
		c-10.09-1.27-13.32-8.54-7.47-16.79c1.61-2.27,3.21-4.54,5.06-7.15c-8.2-3.68-15.95-7.24-23.81-10.57
		c-0.86-0.36-2.69,0.27-3.4,1.05c-5.09,5.59-11.19,7.45-18.54,5.83c-2.34-0.52-4.79-0.66-7.2-0.76c-3.95-0.16-6.77-2.01-9.05-5.16
		c-8-11.09-16.26-22.01-24.11-33.21c-4.41-6.3-11.28-9.04-16.91-13.56c-0.25,0.22-0.49,0.45-0.74,0.67
		c1.55,2.24,3.13,4.45,4.65,6.71c3.18,4.73,3.09,8.93-0.67,13.19c-9.49,10.77-19.03,21.5-28.71,32.1c-1.57,1.72-3.85,2.88-5.96,3.99
		c-8.53,4.5-17.09,8.96-25.73,13.25c-2.67,1.33-4.43,3.02-5.58,5.85c-3.29,8.06-6.87,16-10.37,23.97
		c-2.67,6.09-5.86,8.09-11.78,7.45c-8.18-0.87-10.78-2.84-11.97-9.87c-0.42-2.46-1.46-3.31-3.72-3.8
		c-3.66-0.78-7.19-2.33-10.87-2.84c-8.71-1.2-13.39-10.75-5.07-18.54c-3.19-2.82-6.35-5.62-9.85-8.73
		c-5.06,6.61-9.91,12.95-14.89,19.46c5.29,7.49,10.47,14.81,15.65,22.13c6.39,9.02,5.51,13.26-3.88,18.69
		c2.4,5.87,2.4,5.88,8.56,5.44c1.6-0.12,3.21-0.23,4.81-0.43c4.62-0.6,8.14,1.07,10.52,5.06c8.95,14.95,17.91,29.9,26.82,44.87
		c2.47,4.14,1.94,7.52-1.28,9.49c-3.24,1.98-6.66,0.71-9.23-3.56c-8.01-13.33-16.05-26.64-23.9-40.06
		c-1.55-2.65-3.12-4.22-6.27-3.33c-9.86,2.78-16.23-1.4-20.3-10.18c-1.17-2.52-2.94-4.92-3.41-7.56c-0.86-4.8,1.38-7.54,7.97-11.01
		c-5.11-7.24-10.2-14.44-15.29-21.64c-4.74-6.7-4.68-9.64,0.33-16.18c4.81-6.28,9.61-12.58,14.42-18.86
		c5.3-6.92,10.5-7.46,16.93-1.76c3.11,2.76,6.21,5.54,9.33,8.29c7.45,6.57,7.9,8.6,3.61,17.44c2.88,0.73,5.67,1.65,8.54,2.12
		c7.33,1.2,12.21,4.66,12.92,12.91c0.53-0.99,1.13-1.94,1.58-2.97c3.33-7.61,6.73-15.19,9.89-22.87c1.62-3.93,4.06-6.68,7.96-8.55
		c7.48-3.6,14.68-7.79,22.2-11.31c5.84-2.73,10.6-6.5,14.75-11.41c6.84-8.08,14.03-15.87,21.35-24.1c-1.82-2.64-3.6-5.26-5.41-7.85
		c-5.15-7.37-3.09-13.68,5.4-16.6c1.5-0.51,2.96-1.13,4.43-1.7C246.97,39.22,248.58,39.22,250.19,39.22z"/>
	<path d="M279.98,391.89c-0.2,6.18-5.23,8.79-9.51,6.22c-4.37-2.61-8.56-5.52-12.83-8.29c-8.77-5.69-17.5-11.44-26.33-17.02
		c-5.72-3.61-9.08-8.59-9.81-15.31c-0.16-1.47-0.32-2.94-0.35-4.41c-0.15-8.89-2.72-16.77-7.56-24.47
		c-13.62-21.66-26.54-43.76-39.73-65.69c-0.69-1.15-1.42-2.28-1.97-3.5c-1.42-3.11-0.79-5.79,2.05-7.74
		c2.62-1.8,6.07-1.05,8.17,1.69c0.73,0.95,1.31,2.02,1.94,3.05c13.2,21.93,26.02,44.09,39.75,65.68c6.08,9.56,9.37,19.44,9.37,30.54
		c0,5.25,2.15,8.61,6.64,11.38c12.08,7.47,23.95,15.28,35.77,23.16C277.62,388.54,279.02,390.84,279.98,391.89z"/>
</g>
</svg>
