<?xml version="1.0" encoding="utf-8"?>
<!-- Generator: Adobe Illustrator 25.4.1, SVG Export Plug-In . SVG Version: 6.00 Build 0)  -->
<svg version="1.1" id="Capa_1" xmlns="http://www.w3.org/2000/svg" xmlns:xlink="http://www.w3.org/1999/xlink" x="0px" y="0px"
	 viewBox="0 0 487.58 490.68" style="enable-background:new 0 0 487.58 490.68;" xml:space="preserve">
<g>
	<path d="M241.37,450.14c-2.08-2.78-5.04-5.27-6.09-8.39c-4.11-12.21-7.79-24.58-11.22-37c-0.79-2.86-1.81-3.47-4.5-3.48
		c-7.97-0.02-16.05,0.4-23.89-0.69c-16.17-2.26-26.83-11.81-31.19-27.52c-4.14-14.92,0.01-27.9,11.32-38.45
		c7.72-7.2,17.18-9.77,27.47-9.86c5.32-0.04,10.63-0.01,16.24-0.01c0-23.74,0-47.27,0-70.82c-17.29-3.05-34.29,6.41-40.25,22.98
		c-3.4,9.44-2.83,18.77,1.35,27.97c0.99,2.18,1.65,4.94,1.27,7.24c-0.56,3.36-3.15,5.56-6.69,5.92c-3.71,0.38-6.45-1.41-8.09-4.68
		c-7.5-14.92-8.49-30.28-1.4-45.46c9.11-19.49,24.89-29.53,46.35-30.53c2.38-0.11,4.77-0.01,7.45-0.01c0-9.31,0-18.42,0-28.03
		c-1.18,0.83-2.23,1.49-3.2,2.25c-38.04,29.66-93.37,23.98-124.75-12.78c-6.64-7.78-13.45-15.41-20.09-23.19
		c-8.73-10.23-13.63-22.06-14.76-35.53c-0.19-2.33-1.23-4.92-2.68-6.75c-9.16-11.56-14.13-24.61-14.61-39.35
		c-0.24-7.31,4.19-10.84,11.3-9.11c14.07,3.43,28.08,7.1,42.2,10.26c4.88,1.09,10.03,1.31,15.06,1.35
		c16.9,0.16,33.81,0.37,50.7-0.02c20.2-0.47,35.41,12.23,38.95,30.68c2.29,11.95,10.42,17.98,22.15,17.34
		c0-5.12,0.13-10.28-0.12-15.43c-0.05-0.96-1.47-2.04-2.48-2.75c-26.99-18.94-27.12-58.32-0.28-77.28
		c6.44-4.55,13.75-6.73,21.27-8.49c3.73,0,7.45,0,11.18,0c7.51,1.76,14.82,3.94,21.27,8.48c26.84,18.95,26.72,58.33-0.25,77.28
		c-1.08,0.76-2.47,2.03-2.53,3.13c-0.27,5.01-0.12,10.04-0.12,15.03c11.67,0.74,19.88-5.32,22.16-17.27
		c3.51-18.4,18.75-31.19,38.92-30.72c16.89,0.39,33.79,0.18,50.69,0.02c5.03-0.05,10.17-0.26,15.06-1.34
		c13.87-3.08,27.63-6.63,41.43-10.03c6.42-1.58,8.75-0.64,12.19,5.03c0,2.93,0,5.87,0,8.8c-0.25,0.88-0.61,1.75-0.74,2.65
		c-1.75,12.18-6.74,22.85-14.46,32.39c-1.3,1.6-2,4.03-2.17,6.14c-0.92,11.59-4.53,22.23-11.62,31.37
		c-5.76,7.44-12.61,14.03-18.32,21.51c-30.63,40.08-83.3,49.4-125.07,21.88c-2.59-1.71-5.04-3.63-7.78-5.61c0,9.64,0,18.75,0,27.86
		c34.13-1.35,53.99,23.34,56.33,46.21c1.29,12.63-1.38,24.45-8.72,34.89c-11.58,16.49-27.93,23.41-48.22,22.58
		c0,15.16,0,29.73,0,44.57c2.1,0,4.22-0.1,6.33,0.02c13.71,0.75,24,7.12,29.33,19.83c5.24,12.49,2.99,24.27-6.04,34.51
		c-5.24,5.94-12.21,8.72-19.71,10.42c-2.13,0-4.26,0-6.39,0c-5.92-3.56-7.84-9.05-3.94-12.87c1.86-1.82,5.05-2.73,7.78-3.11
		c8.32-1.15,14.42-7.26,14.99-15.63c0.53-7.83-5-15.31-13.06-16.71c-3.94-0.68-8.09-0.12-11.28-0.12
		c-4.41,13.79-8.49,27.26-13.13,40.54c-1.04,2.98-4.02,5.28-6.1,7.89C244.56,450.14,242.96,450.14,241.37,450.14z M113.01,197.34
		c1.07,0.96,1.51,1.41,2,1.78c30.35,23.14,74.61,21.38,103.82-11.56c0.49-0.55,0.91-1.38,0.92-2.08c0.06-8.1,0.04-16.2,0.04-23.88
		c-5.58-1.26-10.98-1.76-15.79-3.71c-11.91-4.83-19-13.95-21.82-26.58c-3-13.41-9.81-18.76-23.22-18.76
		c-15.56-0.01-31.13-0.12-46.69,0.04c-12.05,0.12-23.85-1.33-35.46-4.54c-6.47-1.79-13.03-3.29-19.54-4.93
		c-0.17,0.59-0.34,0.85-0.3,1.06c4.08,18.98,22.92,35.26,42.22,36.32c7.16,0.39,14.36,0.23,21.52,0.64c4.64,0.27,7.49,3.5,7.52,7.73
		c0.03,4.26-2.78,7.76-7.38,7.81c-9.02,0.09-18.1,0.12-27.04-0.87c-6.18-0.68-12.17-3.1-18.13-4.71
		c3.24,12.47,16.43,25.43,30.53,28.32c7.85,1.61,16.08,1.44,24.15,1.89c5.56,0.31,9.15,3.21,9.26,7.87c0.11,4.79-3.6,8.08-9.35,8.14
		C124.84,197.39,119.39,197.34,113.01,197.34z M267.72,160.76c0,8.43-0.04,16.4,0.06,24.37c0.01,0.92,0.6,2.02,1.25,2.73
		c20.82,22.31,45.99,31.35,76.09,24.49c10.69-2.44,20.33-7.34,29.59-15.05c-1.96,0-2.95,0-3.95,0c-4.92,0.01-9.85,0.17-14.76-0.03
		c-4.75-0.19-7.98-3.46-8.1-7.74c-0.12-4.38,3.23-7.89,8.12-8.13c3.98-0.2,7.98-0.04,11.97-0.07c7.27-0.05,14.27-1.35,20.85-4.57
		c11.22-5.49,19-14.05,23.76-26.89c-14.61,7.73-29.53,7.27-44.38,7.02c-5.67-0.1-8.98-3.3-8.91-8.08c0.07-4.61,3.29-7.62,8.76-7.83
		c4.52-0.17,9.04-0.06,13.57-0.06c14.51,0.01,27.12-4.68,37.2-15.36c5.91-6.26,10.02-13.53,11.9-22.55
		c-1.99,0.49-3.49,0.85-4.99,1.22c-16.35,4.11-32.55,8.81-49.73,8.38c-16.35-0.41-32.72-0.13-49.08-0.07
		c-11.06,0.04-18.36,5.84-21,16.48c-0.42,1.68-0.87,3.35-1.3,5.02c-2.03,7.9-6.42,14.23-12.83,19.2
		C284.89,158.6,276.96,160.8,267.72,160.76z M236.01,134.41c0,63.47,0,126.73,0,190.03c5.32,0,10.41,0,15.51,0
		c0-63.56,0-126.82,0-190.03C246.29,134.41,241.28,134.41,236.01,134.41z M243.68,56.57c-16.87,0.07-31.04,14.32-30.94,31.12
		c0.1,16.91,14.32,31.07,31.1,30.96c16.92-0.11,31.05-14.32,30.94-31.12C274.68,70.62,260.5,56.5,243.68,56.57z M267.94,324.35
		c13.79,1.97,28.21-4.64,35.05-16.13c7.91-13.29,7.81-26.72-0.85-39.46c-8.1-11.91-20.06-16.15-34.2-15.29
		C267.94,277.36,267.94,300.87,267.94,324.35z M220.07,341.14c-7.63,0-14.67-0.5-21.61,0.11c-11.15,0.99-19.18,10.06-19.5,21.11
		c-0.33,11.19,7.31,21.13,18.47,22.45c7.56,0.9,15.31,0.17,22.64,0.17C220.07,370.35,220.07,355.79,220.07,341.14z M243.85,417.84
		c8-25.83,8.47-51.24,7.7-76.85c-5.41,0-10.4,0-15.6,0C235.23,366.75,235.71,392.14,243.85,417.84z"/>
	<path d="M210.23,450.14c-4.89-2.53-6.8-5.32-6.22-9.04c0.57-3.65,3.6-6.53,7.22-6.86c3.36-0.31,6.77,1.97,7.98,5.33
		c1.21,3.37,0.04,6.94-3.03,9.04c-0.86,0.59-1.84,1.02-2.76,1.53C212.36,450.14,211.29,450.14,210.23,450.14z"/>
</g>
</svg>
