<?xml version="1.0" encoding="utf-8"?>
<!-- Generator: Adobe Illustrator 25.4.1, SVG Export Plug-In . SVG Version: 6.00 Build 0)  -->
<svg version="1.1" id="Capa_1" xmlns="http://www.w3.org/2000/svg" xmlns:xlink="http://www.w3.org/1999/xlink" x="0px" y="0px"
	 viewBox="0 0 487.58 490.68" style="enable-background:new 0 0 487.58 490.68;" xml:space="preserve">
<g>
	<path d="M52.1,276.78c2.12-6.78,6.9-10.99,12.66-14.94c19.96-13.68,39.54-27.93,59.41-41.74c2.96-2.06,6.74-2.92,11.01-4.69
		c0-0.49,0-1.93,0-3.37c0-27.63,0.1-55.26-0.06-82.89c-0.05-8.84,3.61-14.83,10.96-19.81c20.13-13.65,39.9-27.85,59.71-41.97
		c4.02-2.87,8.18-4.54,13.14-4.54c39.92,0.04,79.84,0,119.76,0.04c11.8,0.01,20.01,7.77,20.06,19.57
		c0.16,40.26,0.16,80.52-0.09,120.77c-0.03,4.27-2.08,8.53-3.33,13.3c0.53,0,1.79,0,3.04,0c18.59,0,37.18-0.02,55.76,0.01
		c13.65,0.02,21.29,7.71,21.29,21.4c0.01,39.13-0.05,78.26,0.05,117.4c0.02,6.66-2.13,12.08-6.85,16.77
		c-16.31,16.19-32.54,32.45-48.69,48.8c-4.68,4.74-10.05,6.88-16.72,6.87c-42.91-0.11-85.83-0.1-128.74-0.01
		c-5.91,0.01-11.43-0.69-16.28-4.99c-5.05,4.69-11.16,5.01-17.53,4.99c-41.42-0.09-82.84-0.3-124.25,0.11
		c-11.95,0.12-20.25-3.7-24.32-15.26C52.1,367.32,52.1,322.05,52.1,276.78z M297.87,414.9c21.71,0,43.42,0.01,65.13,0
		c6.42,0,8.6-2.13,8.6-8.5c0.02-41.26,0.02-82.53,0-123.79c0-6.4-2.17-8.56-8.58-8.56c-43.3-0.02-86.59-0.02-129.89,0
		c-6.44,0-8.57,2.12-8.57,8.56c-0.02,41.26-0.02,82.53,0,123.79c0,6.46,2.08,8.5,8.55,8.5C254.69,414.91,276.28,414.9,297.87,414.9z
		 M138.35,414.9c21.71,0,43.42,0.01,65.14,0c6.25,0,8.26-2.01,8.26-8.31c0.01-41.39,0.01-82.78,0-124.17c0-6.26-2.07-8.37-8.29-8.37
		c-43.42-0.02-86.85-0.02-130.27,0c-6.16,0-8.33,2.22-8.33,8.39c-0.01,41.39-0.01,82.78,0,124.17c0,6.17,2.14,8.28,8.36,8.28
		C94.93,414.91,116.64,414.9,138.35,414.9z M221.3,261.21c21.59,0,43.17,0.01,64.76,0c6.88,0,8.74-1.82,8.75-8.56
		c0.01-41.26,0.01-82.53,0-123.79c0-6.36-1.95-8.38-8.19-8.38c-43.42-0.02-86.84-0.02-130.26,0c-6.46,0-8.42,2.03-8.42,8.57
		c-0.01,41.14,0,82.28,0,123.42c0,6.79,1.9,8.74,8.61,8.74C178.13,261.22,199.72,261.21,221.3,261.21z M346.01,83.79
		c-13.59,11.9-26.27,22.97-38.87,34.13c-0.53,0.47-0.63,1.69-0.56,2.54c0.26,3.22,0.97,6.42,0.97,9.63
		c0.07,36.63,0.05,73.26,0.05,109.89c0,1.26,0,2.51,0,4.6c11.9-11.88,22.94-23.07,34.19-34.03c3.01-2.93,4.31-6.02,4.29-10.23
		c-0.11-37.13-0.07-74.26-0.07-111.39C346.01,87.59,346.01,86.26,346.01,83.79z M422.68,237.44c-12.49,10.94-24.15,21.3-35.98,31.45
		c-2.69,2.31-4.36,4.29-2.9,8.09c0.77,2,0.57,4.43,0.57,6.67c0.03,36.5,0.02,73,0.02,109.5c0,1.39,0,2.78,0,5.15
		c12.12-12.18,23.34-23.55,34.71-34.78c2.6-2.57,3.65-5.31,3.64-8.96c-0.09-37.5-0.06-75-0.06-112.5
		C422.68,240.85,422.68,239.63,422.68,237.44z M412.04,229.7c-1.11-0.2-1.56-0.35-2-0.35c-22.31-0.01-44.62-0.05-66.93,0.07
		c-1.38,0.01-3.05,0.97-4.09,1.99c-9.15,9.02-18.2,18.15-27.26,27.26c-0.62,0.63-1.11,1.39-2.02,2.55c2.03,0,3.4,0,4.76,0
		c16.08,0,32.16-0.06,48.23,0.06c2.94,0.02,5.87,0.94,8.83,1.14c1.37,0.09,3.18-0.11,4.14-0.93c9.38-8.03,18.63-16.22,27.91-24.36
		C406.27,234.77,408.94,232.42,412.04,229.7z M335.52,76.87c-0.26-0.31-0.53-0.62-0.79-0.93c-0.32-0.09-0.65-0.27-0.97-0.27
		c-15.95-0.02-31.9-0.06-47.84,0.05c-1.32,0.01-2.81,0.87-3.92,1.72c-11.84,9.14-23.62,18.36-35.41,27.57
		c-0.79,0.61-1.47,1.36-2.81,2.63c2.16,0,3.38,0,4.6,0c12.58,0,25.17-0.08,37.75,0.06c3.07,0.03,6.12,0.93,9.19,1.18
		c1.15,0.09,2.67-0.16,3.5-0.87c11.6-10.03,23.11-20.17,34.67-30.25C334.02,77.29,334.83,77.16,335.52,76.87z M263.39,75.66
		c-15.87,0-30.57-0.03-45.26,0.06c-1.27,0.01-2.7,0.59-3.76,1.33c-13.36,9.37-26.67,18.82-39.97,28.27c-0.71,0.5-1.3,1.16-2.57,2.32
		c2.12,0,3.34,0,4.56,0c12.33,0,24.68-0.34,36.99,0.14c6.39,0.25,11.31-1.52,16.22-5.59C240.32,93.29,251.48,84.95,263.39,75.66z
		 M88.47,260.97c16.54,0,31.95,0,46.91,0c0-10.58,0-20.92,0-31.26c-0.37-0.3-0.74-0.61-1.11-0.91
		C119.3,239.32,104.33,249.83,88.47,260.97z"/>
	<path d="M262.97,402.11c-4.23,0-8.47,0.07-12.7-0.02c-7.12-0.14-12.33-4.9-12.78-12.02c-0.3-4.84-0.31-9.74,0.04-14.58
		c0.5-6.94,5.68-11.62,12.66-11.7c8.47-0.1,16.93-0.1,25.4,0c7.23,0.08,12.48,5.07,12.88,12.36c0.25,4.48,0.24,8.99,0.01,13.47
		c-0.39,7.43-5.7,12.37-13.18,12.48C271.19,402.16,267.08,402.11,262.97,402.11z M250.39,389.08c8.54,0,16.8,0,25.06,0
		c0-4.29,0-8.31,0-12.33c-8.49,0-16.67,0-25.06,0C250.39,380.87,250.39,384.82,250.39,389.08z"/>
	<path d="M342.64,402.1c-3.12,0-6.24,0.1-9.36-0.03c-3.86-0.15-6.45-2.83-6.42-6.39c0.03-3.54,2.64-6.23,6.52-6.31
		c6.24-0.12,12.48-0.11,18.71,0c3.89,0.07,6.54,2.71,6.63,6.22c0.08,3.65-2.67,6.31-6.73,6.51c-0.25,0.01-0.5,0.01-0.75,0.01
		c-2.87,0-5.74,0-8.61,0C342.64,402.11,342.64,402.1,342.64,402.1z"/>
	<path d="M342.93,363.78c3.12,0,6.24-0.09,9.35,0.02c3.82,0.14,6.48,2.87,6.44,6.38c-0.03,3.38-2.54,6.19-6.17,6.29
		c-6.48,0.18-12.97,0.18-19.46,0.01c-3.78-0.1-6.35-3.06-6.22-6.6c0.12-3.42,2.63-5.93,6.33-6.07
		C336.44,363.68,339.69,363.78,342.93,363.78z"/>
	<path d="M103.39,363.77c4.23,0,8.47-0.08,12.7,0.02c7.08,0.16,12.25,5.13,12.55,12.21c0.19,4.61,0.19,9.24,0,13.84
		c-0.3,7.06-5.49,12.13-12.54,12.23c-8.59,0.12-17.18,0.12-25.77,0c-6.98-0.1-12.3-5.23-12.63-12.22c-0.22-4.61-0.22-9.24,0-13.84
		c0.33-6.99,5.65-12.05,12.64-12.21C94.67,363.69,99.03,363.77,103.39,363.77z M115.69,389.14c0-4.22,0-8.24,0-12.33
		c-8.5,0-16.76,0-25.01,0c0,4.3,0,8.33,0,12.33C99.16,389.14,107.34,389.14,115.69,389.14z"/>
	<path d="M183.3,389.34c3.12,0.01,6.24-0.11,9.35,0.03c3.87,0.18,6.35,2.85,6.29,6.49c-0.06,3.48-2.49,6.11-6.18,6.19
		c-6.48,0.14-12.97,0.15-19.45-0.01c-3.68-0.09-6.07-2.76-6.1-6.26c-0.03-3.49,2.35-6.04,5.99-6.42c0.25-0.03,0.5-0.03,0.75-0.03
		C177.06,389.34,180.18,389.34,183.3,389.34z"/>
	<path d="M183.18,363.77c2.99,0,5.99-0.07,8.98,0.01c4.21,0.11,6.79,2.58,6.78,6.36c-0.01,3.73-2.64,6.31-6.81,6.38
		c-6.11,0.1-12.22,0.12-18.33-0.01c-4.12-0.09-6.68-2.81-6.58-6.59c0.1-3.63,2.6-6.01,6.61-6.13
		C176.94,363.7,180.06,363.77,183.18,363.77z"/>
	<path d="M186.03,248.39c-4.23,0-8.47,0.1-12.7-0.02c-7.19-0.19-12.4-5.39-12.61-12.6c-0.13-4.36-0.14-8.74,0-13.1
		c0.23-7.15,5.52-12.47,12.68-12.59c8.59-0.15,17.18-0.15,25.77,0c7.06,0.13,12.25,5.29,12.51,12.29c0.17,4.61,0.17,9.24,0,13.85
		c-0.26,6.89-5.34,11.92-12.21,12.14C195,248.5,190.51,248.38,186.03,248.39z M173.55,235.36c8.61,0,16.87,0,25.12,0
		c0-4.28,0-8.3,0-12.22c-8.56,0-16.81,0-25.12,0C173.55,227.3,173.55,231.15,173.55,235.36z"/>
	<path d="M266,222.81c-2.99,0-5.99,0.06-8.98-0.02c-4.17-0.11-6.79-2.63-6.78-6.38c0.02-3.72,2.65-6.29,6.84-6.36
		c6.11-0.1,12.22-0.12,18.33,0.01c4.1,0.09,6.7,2.85,6.58,6.6c-0.11,3.6-2.65,5.95-6.64,6.14c-0.25,0.01-0.5,0.01-0.75,0.01
		C271.74,222.82,268.87,222.82,266,222.81z"/>
	<path d="M266.13,248.37c-3.24,0-6.49,0.11-9.72-0.03c-3.58-0.16-5.91-2.49-6.12-5.83c-0.23-3.48,1.98-6.58,5.58-6.73
		c6.84-0.28,13.71-0.28,20.55,0c3.56,0.15,5.81,3.31,5.58,6.75c-0.22,3.32-2.57,5.55-6.14,5.84c-0.25,0.02-0.5,0.03-0.75,0.03
		c-2.99,0-5.98,0-8.98,0C266.13,248.39,266.13,248.38,266.13,248.37z"/>
</g>
</svg>
