<?xml version="1.0" encoding="utf-8"?>
<!-- Generator: Adobe Illustrator 25.4.1, SVG Export Plug-In . SVG Version: 6.00 Build 0)  -->
<svg version="1.1" id="Capa_1" xmlns="http://www.w3.org/2000/svg" xmlns:xlink="http://www.w3.org/1999/xlink" x="0px" y="0px"
	 viewBox="0 0 487.58 490.68" style="enable-background:new 0 0 487.58 490.68;" xml:space="preserve">
<g>
	<path d="M46.34,222.21c0.24-0.59,0.55-1.16,0.71-1.76c3.46-12.84,13.42-20.58,26.79-20.59c39.07-0.04,78.13-0.01,117.2-0.01
		c1.53,0,3.05,0,4.66,0c3.28-13.52,9.84-24.79,20.72-33.17c3.93-3.03,8.3-5.62,12.77-7.8c15.41-7.52,23.24-19.62,23.07-36.82
		c-0.03-2.95,0-5.89,0-8.67c-2.95-1.04-5.88-1.64-8.35-3.05c-5.18-2.96-7.8-7.7-7.83-13.7c-0.06-10.54-0.04-21.08-0.01-31.61
		c0.03-10.49,6.6-17.1,17.09-17.11c36.5-0.03,72.99-0.01,109.49-0.01c6.81,0,13.62-0.05,20.43,0.01c9.72,0.09,16.4,6.81,16.47,16.57
		c0.07,10.02,0.02,20.05,0.01,30.07c-0.01,10.89-5.02,16.71-15.7,18.26c-2.58,19.18,2.6,36.32,22.13,45.75
		c23.45,11.32,35.18,30.26,35.2,56.31c0.05,62.07,0.02,124.14,0.01,186.21c0,22.47-10.59,35.9-32.54,41.27
		c-0.23,0.06-0.42,0.28-0.63,0.42c-113.12,0-226.23,0-339.35,0c-4.71-2.47-9.74-4.48-14.03-7.55c-4.88-3.48-6.61-9.27-8.34-14.82
		C46.34,354.35,46.34,288.28,46.34,222.21z M425.64,401.14c-1.75,0-3.26,0-4.78,0c-46.27,0-92.54,0-138.81,0
		c-8.13,0-10.5-2.39-10.5-10.6c0-55.65,0-111.3,0-166.96c0-8.25,2.34-10.63,10.47-10.63c46.4,0,92.8,0,139.2,0c1.48,0,2.97,0,4.72,0
		c-0.89-17.74-8.51-30.67-23.62-39.04c-2.24-1.24-4.65-2.19-6.88-3.45c-15-8.54-24.18-21.28-26.73-38.38
		c-0.94-6.28-0.75-12.72-1.07-19.12c-33.32,0-66.52,0-99.93,0c0,3.21,0.01,6.15,0,9.09c-0.06,23.53-10.75,40.37-31.86,50.7
		c-2.99,1.46-5.98,3.05-8.62,5.04c-7.35,5.53-12.64,12.58-15.38,22.05c2.57,0,4.71-0.01,6.85,0c16.97,0.05,28.15,11.29,28.18,28.35
		c0.02,10.15,0,20.31,0,30.46c0,8.48,0.05,16.97-0.02,25.45c-0.04,5.1-3.06,8.33-7.6,8.37c-4.55,0.05-7.63-3.18-7.79-8.19
		c-0.03-0.9-0.01-1.8-0.01-2.7c0-17.48,0-34.96,0-52.44c0-9.8-4.03-13.88-13.71-13.88c-47.43,0-94.85,0-142.28,0
		c-9.55,0-13.68,4.08-13.68,13.52c-0.01,61.69-0.01,123.39,0,185.08c0,9.27,4.17,13.49,13.33,13.49c47.68,0.01,95.37,0.01,143.05,0
		c8.99,0,13.29-4.25,13.29-13.14c0.01-19.41-0.01-38.82,0.01-58.22c0-5.8,3.12-9.51,7.82-9.43c4.59,0.08,7.58,3.68,7.59,9.27
		c0.02,12.85,0.22,25.71-0.06,38.56c-0.24,10.94,1.62,22.01-2.1,32.97c1.34,0,2.37,0,3.39,0c51.15,0,102.31,0.01,153.46-0.01
		C416.76,427.35,426.44,417.02,425.64,401.14z M287.15,385.45c46.34,0,92.39,0,138.35,0c0-52.49,0-104.7,0-156.87
		c-46.26,0-92.22,0-138.35,0C287.15,280.91,287.15,333.03,287.15,385.45z M384.04,63.64c-44.37,0-88.36,0-132.31,0
		c0,11.3,0,22.3,0,33.32c44.23,0,88.22,0,132.31,0C384.04,85.75,384.04,74.85,384.04,63.64z"/>
	<path d="M154.32,319.56c0,26.09,0,52.19,0,78.28c0,1.28,0.08,2.59-0.1,3.85c-0.55,3.97-3.76,6.71-7.7,6.67
		c-3.94-0.04-7.06-2.83-7.55-6.84c-0.14-1.14-0.07-2.31-0.07-3.47c0-52.32,0-104.63,0-156.95c0-0.9-0.03-1.8,0.02-2.7
		c0.28-4.43,3.44-7.62,7.58-7.69c4.28-0.06,7.56,3.22,7.8,7.85c0.05,1.03,0.02,2.06,0.02,3.08
		C154.32,267.63,154.32,293.6,154.32,319.56z"/>
	<path d="M124.57,254.95c0.03,13.39-10.83,24.31-24.2,24.33c-13.36,0.02-24.26-10.85-24.29-24.24c-0.03-13.38,10.84-24.3,24.2-24.32
		C113.67,230.69,124.54,241.54,124.57,254.95z M109.11,255.05c0.03-4.87-3.88-8.86-8.72-8.9c-4.83-0.04-8.81,3.91-8.84,8.78
		c-0.03,4.87,3.89,8.87,8.72,8.91C105.1,263.87,109.08,259.92,109.11,255.05z"/>
	<path d="M217.1,255.55c-0.38,13.62-11.56,24.16-25.17,23.71c-13.11-0.43-23.64-11.66-23.28-24.83
		c0.37-13.61,11.55-24.14,25.17-23.71C206.95,231.14,217.47,242.36,217.1,255.55z M184.09,254.98c0,4.87,3.94,8.85,8.77,8.86
		c4.83,0,8.79-3.97,8.8-8.83c0.01-4.86-3.94-8.84-8.77-8.85C188.06,246.14,184.1,250.11,184.09,254.98z"/>
	<path d="M76.11,320.74c0.38-13.61,11.56-24.13,25.18-23.69c13.12,0.42,23.64,11.65,23.26,24.84c-0.38,13.63-11.57,24.15-25.18,23.7
		C86.26,345.15,75.74,333.92,76.11,320.74z M109.11,321.28c-0.02-4.86-3.98-8.82-8.82-8.8c-4.83,0.02-8.77,4.01-8.75,8.87
		c0.02,4.87,3.99,8.83,8.82,8.81C105.2,330.14,109.13,326.15,109.11,321.28z"/>
	<path d="M217.11,321.76c-0.31,13.62-11.45,24.21-25.06,23.83c-13.12-0.37-23.69-11.54-23.4-24.72c0.3-13.61,11.45-24.2,25.06-23.82
		C206.84,297.41,217.4,308.57,217.11,321.76z M201.66,321.45c0.07-4.88-3.8-8.89-8.64-8.97c-4.83-0.08-8.84,3.84-8.91,8.71
		c-0.07,4.88,3.81,8.9,8.64,8.98C197.59,330.23,201.59,326.32,201.66,321.45z"/>
	<path d="M124.57,387.65c-0.01,13.39-10.88,24.28-24.25,24.28c-13.35,0-24.24-10.91-24.24-24.29c0.01-13.39,10.88-24.28,24.25-24.27
		C113.71,363.37,124.58,374.25,124.57,387.65z M109.1,387.8c0.08-4.88-3.78-8.9-8.62-8.99c-4.83-0.09-8.85,3.82-8.93,8.68
		c-0.08,4.88,3.79,8.91,8.62,9C105.01,396.57,109.02,392.67,109.1,387.8z"/>
	<path d="M217.1,388.19c-0.37,13.62-11.55,24.16-25.16,23.72c-13.11-0.42-23.64-11.65-23.29-24.82
		c0.36-13.61,11.54-24.14,25.16-23.72C206.94,363.79,217.46,375,217.1,388.19z M201.66,387.57c-0.04-4.87-4.02-8.81-8.86-8.76
		c-4.84,0.04-8.74,4.04-8.7,8.91c0.04,4.87,4.03,8.82,8.86,8.77C197.8,396.44,201.7,392.45,201.66,387.57z"/>
	<path d="M238.97,327.19c-4.23-0.09-7.55-3.5-7.49-7.7c0.05-4.1,3.6-7.62,7.68-7.62c4.25,0,7.85,3.75,7.68,8
		C246.67,324.07,243.23,327.28,238.97,327.19z"/>
	<path d="M348.67,276.43c-5.3,0-10.06,0.23-14.78-0.07c-3.82-0.25-6.47-3.16-6.74-6.75c-0.27-3.58,1.3-6.31,4.59-7.69
		c1.47-0.62,3.25-0.64,4.9-0.68c3.83-0.09,7.67-0.03,12.03-0.03c0-4.37-0.02-8.42,0.01-12.47c0.04-5.67,2.93-9.06,7.68-9.07
		c4.76-0.01,7.69,3.38,7.73,9.02c0.03,3.97,0.01,7.95,0.01,12.58c4.9,0,9.61-0.17,14.29,0.05c4.28,0.2,7.24,3.45,7.28,7.48
		c0.03,3.9-2.67,6.99-6.76,7.6c-1.39,0.21-2.81,0.2-4.22,0.22c-2.95,0.04-5.91,0.03-8.86,0.05c-0.38,0-0.76,0.11-1.73,0.26
		c0,3.96,0.02,8.02-0.01,12.07c-0.04,5.67-2.94,9.06-7.69,9.07c-4.76,0.01-7.68-3.39-7.72-9.03
		C348.65,285.08,348.67,281.12,348.67,276.43z"/>
	<path d="M356.49,339.44c-11.7,0-23.39,0.02-35.09-0.01c-5.91-0.01-9.38-2.99-9.27-7.89c0.1-4.72,3.5-7.52,9.24-7.52
		c23.39-0.02,46.78-0.02,70.17,0c5.67,0,9.07,2.93,9.08,7.69c0,4.76-3.39,7.7-9.05,7.72C379.88,339.46,368.19,339.44,356.49,339.44z
		"/>
	<path d="M356.57,354.87c11.44,0,22.88-0.01,34.31,0c6.29,0.01,9.8,2.83,9.74,7.8c-0.06,4.85-3.48,7.61-9.54,7.62
		c-23.26,0.01-46.52,0.01-69.79,0c-5.43,0-8.65-2.46-9.11-6.84c-0.52-4.99,2.92-8.53,8.52-8.56
		C332.67,354.83,344.62,354.87,356.57,354.87z"/>
</g>
</svg>
