<?xml version="1.0" encoding="utf-8"?>
<!-- Generator: Adobe Illustrator 25.4.1, SVG Export Plug-In . SVG Version: 6.00 Build 0)  -->
<svg version="1.1" id="Capa_1" xmlns="http://www.w3.org/2000/svg" xmlns:xlink="http://www.w3.org/1999/xlink" x="0px" y="0px"
	 viewBox="0 0 600 213" style="enable-background:new 0 0 600 213;" xml:space="preserve">
<style type="text/css">
	.st0{fill-rule:evenodd;clip-rule:evenodd;fill:#FFFFFF;}
	.st1{fill:#FFFFFF;}
	.st2{clip-path:url(#SVGID_00000042006225569039221090000017523990850332374958_);fill:#FFFFFF;}
</style>
<g>
	<path class="st0" d="M136.96,37.7l-2.51,0.23L29.98,89.31c0,0-8.66,4.41-10.51,13.76c-1.64,8.3,3.87,20.18,19.22,23.46
		c11.71,1.13,24.73-3.98,27.61-5.11c2.35,1.84-30.81,19.65-21.57,31.36c11.15,8.3,32.46,3.48,57.19-0.26
		c4.78-0.89-10.09,11.12-13.24,21.05c-1.06,5.13,0.13,8.3,10.24,5.66c0.98,2.27-4.67,14.74,4.73,13.37
		c3.28-0.11-1.08-9.75,4.46-11.15c3.98-0.72,7.31-1.04,5.51-4.81c-1.99-2.82-7.92-4.08-7.92-4.08s16.34-14.73,21.56-25.52
		c4-8.29-0.45-16.81-20.99-17.35c18.84-12.15,50.2-27.92,51.54-37.83c0.14-1.02-0.06-2.04-0.7-2.93
		c-5.45-5.77-32.16-2.28-37.22-2.91c0.21,0.06,16-7.77,30.32-15.73c10.33-5.74,21.23-10.7,22.39-14.85
		c1.06-3.77-3.14-5.75-17.43-5.51c3-1.88,17.48-18.22,13.71-22.71c-3.05-3.63-8.31-2.2-22.91,5.79
		C143.35,34.46,140.28,35.92,136.96,37.7"/>
	<path class="st1" d="M576.43,109.72v-6.7H582v6.7H576.43z M562.79,98.81h3.34l-1.68-13.24L562.79,98.81z M555.53,109.72l5.43-29.55
		h7.05l5.37,29.55h-5.9l-0.76-5.71h-4.6l-0.7,5.71H555.53z M546.98,109.72v-6.7h5.57v6.7H546.98z M528.22,99.87h5.37v2.32
		c0,1.84,0.71,2.82,2.12,2.92c1.49,0,2.23-1,2.23-3c0-1.06-0.27-1.85-0.82-2.36c-0.55-0.51-1.7-1.43-3.45-2.74
		c-1.76-1.31-3.07-2.64-3.92-3.97c-0.85-1.33-1.29-3.05-1.3-5.17c0.04-0.21,0.07-0.46,0.07-0.75c0.24-2.53,0.93-4.41,2.08-5.66
		c1.15-1.25,2.83-1.9,5.05-1.98c1.38,0,2.64,0.32,3.79,0.95c1.15,0.62,2.07,1.61,2.76,2.95c0.69,1.34,1.03,3.03,1.03,5.04v0.64
		h-5.37c0-1.58-0.18-2.69-0.54-3.32c-0.35-0.63-0.87-0.95-1.55-0.95c-1.11,0-1.73,0.75-1.86,2.25c0,1.03,0.3,1.84,0.92,2.44
		c0.61,0.59,1.72,1.46,3.31,2.59c1.6,1.14,2.82,2.28,3.66,3.41c0.85,1.14,1.33,2.6,1.42,4.39c0.02,0.29,0.03,0.71,0.03,1.26
		c0,2.24-0.33,4.04-0.98,5.43c-0.66,1.38-1.55,2.37-2.68,2.97c-1.14,0.6-2.46,0.9-3.95,0.9c-1.29,0-2.51-0.27-3.64-0.8
		c-1.14-0.53-2.05-1.34-2.74-2.43c-0.69-1.09-1.04-2.43-1.04-4.02V99.87z M505.06,103.02h5.04c0,2.11,0.63,3.21,1.89,3.31
		c1.28-0.22,1.92-0.97,1.92-2.25c-0.08-0.49-0.2-0.88-0.38-1.16c-0.18-0.28-0.55-0.54-1.12-0.81c-1.96-1.06-3.31-1.83-4.05-2.3
		c-0.74-0.47-1.45-1.18-2.13-2.13c-0.68-0.95-1.05-2.12-1.1-3.53c0-2.31,0.64-4.08,1.92-5.3c1.29-1.21,2.96-1.83,5-1.83
		c1.97,0.05,3.57,0.65,4.81,1.82c1.24,1.17,1.86,2.93,1.86,5.31h-4.94c0-2-0.57-2.99-1.72-2.99c-1.17,0-1.76,0.67-1.76,2.01
		c0.06,0.75,0.6,1.42,1.62,2c1.02,0.58,2.03,1.12,3.01,1.63c0.99,0.51,1.88,1.22,2.67,2.14c0.79,0.91,1.25,2.17,1.38,3.77
		c0.02,0.18,0.03,0.45,0.03,0.79c0,1.33-0.26,2.53-0.78,3.59c-0.51,1.06-1.32,1.9-2.41,2.51c-1.08,0.61-2.43,0.91-4.04,0.91h-0.33
		C507.19,110.36,505.06,107.87,505.06,103.02z M494.82,93.8v10.17c0,1.31,0.54,1.97,1.62,1.97c1.08,0,1.62-0.66,1.62-1.97V93.8
		c0-0.7-0.15-1.25-0.44-1.65c-0.3-0.39-0.67-0.59-1.12-0.59c-0.55,0-0.96,0.2-1.25,0.6C494.96,92.56,494.82,93.11,494.82,93.8z
		 M489.52,104.16V93.8c0-1.28,0.25-2.43,0.75-3.45c0.5-1.02,1.27-1.83,2.31-2.42c1.05-0.6,2.36-0.89,3.93-0.89
		c1.5,0,2.77,0.31,3.81,0.93c1.03,0.62,1.8,1.44,2.3,2.44c0.5,1.01,0.75,2.09,0.75,3.25l-0.07,10.32c0,1.27-0.26,2.4-0.79,3.39
		c-0.52,0.99-1.3,1.77-2.34,2.32c-1.03,0.55-2.28,0.83-3.73,0.83c-1.55,0-2.85-0.29-3.89-0.87c-1.04-0.58-1.81-1.35-2.3-2.3
		C489.76,106.37,489.52,105.31,489.52,104.16z M473.21,109.72v-22.1h4.9v2.8c0.41-1.11,0.98-1.94,1.7-2.49
		c0.72-0.54,1.51-0.82,2.38-0.82c0.76,0,1.47,0.18,2.14,0.56c0.67,0.37,1.2,0.89,1.6,1.56c0.4,0.67,0.6,1.42,0.6,2.26v18.23h-5.24
		V93.97c0-0.49-0.12-0.91-0.34-1.25c-0.23-0.35-0.56-0.53-1.02-0.53c-0.43,0-0.78,0.14-1.06,0.44c-0.29,0.29-0.43,0.71-0.43,1.25
		v15.84H473.21z M465.19,107.78c-0.55,0.87-1.23,1.54-2.05,2.02c-0.82,0.47-1.67,0.71-2.55,0.71c-0.85,0-1.65-0.24-2.38-0.73
		c-0.74-0.49-1.33-1.22-1.77-2.19c-0.44-0.98-0.66-2.14-0.66-3.5c0.04-1.45,0.25-2.63,0.66-3.54c0.4-0.91,0.93-1.64,1.59-2.16
		c0.66-0.53,1.53-1.01,2.63-1.44c1.1-0.43,1.98-0.77,2.65-1.02c0.54-0.16,0.96-0.47,1.25-0.93c0.29-0.45,0.44-0.93,0.44-1.43
		c0-0.62-0.16-1.17-0.48-1.64c-0.32-0.47-0.7-0.7-1.15-0.7c-0.77,0-1.31,0.25-1.62,0.75c-0.31,0.51-0.46,1.38-0.46,2.64h-5.29
		c0-4.98,2.35-7.52,7.05-7.6c2.82,0,4.72,0.54,5.71,1.61c0.99,1.08,1.49,2.69,1.49,4.84v14.31c0,0.35,0.15,0.99,0.46,1.93h-5.21
		L465.19,107.78z M465,99.04c-0.35,0.18-0.82,0.44-1.41,0.76c-0.59,0.32-1.06,0.64-1.39,0.97c-0.34,0.33-0.61,0.75-0.79,1.25
		c-0.19,0.5-0.28,1.12-0.28,1.86c0.03,0.57,0.24,1.04,0.61,1.41c0.37,0.37,0.83,0.56,1.38,0.56c0.51,0,0.94-0.26,1.29-0.77
		c0.35-0.51,0.55-1.28,0.61-2.3V99.04z M448.69,100.78h5.04c0.02,0.29,0.03,0.7,0.03,1.22c0,2.11-0.28,3.8-0.82,5.06
		c-0.55,1.25-1.36,2.14-2.42,2.67c-1.07,0.53-2.41,0.79-4.04,0.79c-1.35-0.03-2.49-0.3-3.44-0.78c-0.94-0.49-1.67-1.26-2.19-2.3
		c-0.51-1.04-0.77-2.38-0.77-4v-9.45c0-2.09,0.51-3.78,1.54-5.04c1.02-1.27,2.64-1.9,4.86-1.9c1.02,0,1.95,0.11,2.79,0.33
		c0.85,0.22,1.58,0.6,2.23,1.15c0.64,0.55,1.15,1.33,1.51,2.32c0.37,1,0.56,2.25,0.56,3.76c0,0.55-0.01,0.97-0.03,1.26h-4.98
		l-0.13-1.89c-0.06-1-0.16-1.66-0.3-1.99c-0.14-0.33-0.35-0.49-0.64-0.49c-1.45,0-2.18,0.83-2.18,2.48v9.69
		c0,0.75,0.16,1.33,0.48,1.71c0.31,0.39,0.72,0.58,1.21,0.58c1,0,1.56-0.92,1.69-2.76V100.78z M431.22,85.49v-5.32h5.3v5.32H431.22z
		 M431.22,109.72v-22.1h5.3v22.1H431.22z M419.63,109.72v-22.1h4.9V91h0.07c0.4-1.59,1.01-2.65,1.8-3.18
		c0.8-0.53,1.55-0.79,2.28-0.79v7.13c-0.13-0.03-0.34-0.07-0.63-0.12c-0.29-0.05-0.61-0.07-0.96-0.07c-0.71,0-1.25,0.14-1.61,0.42
		c-0.36,0.28-0.55,0.85-0.55,1.7v13.63H419.63z M408.23,95.58h3.65v-1.18c0-2.15-0.61-3.23-1.82-3.23c-0.77,0-1.26,0.3-1.49,0.91
		c-0.23,0.61-0.36,1.54-0.4,2.79C408.21,95.02,408.23,95.25,408.23,95.58z M408.23,99.71v4.25c0.03,0.58,0.19,1.04,0.49,1.39
		c0.29,0.35,0.7,0.55,1.2,0.58c0.75,0,1.24-0.29,1.44-0.87c0.21-0.58,0.32-1.56,0.32-2.95h5.22c0,0.1,0.01,0.23,0.02,0.4
		c0.01,0.18,0.02,0.3,0.02,0.39c0,1.58-0.25,2.93-0.77,4.06c-0.51,1.13-1.28,1.98-2.29,2.58c-1.02,0.59-2.24,0.89-3.69,0.89
		c-2.23,0-3.98-0.53-5.25-1.59c-1.27-1.06-1.94-2.69-2-4.87v-9.49c0-4.96,2.44-7.45,7.32-7.45c1.3,0,2.47,0.22,3.51,0.68
		c1.03,0.45,1.85,1.16,2.45,2.11c0.6,0.95,0.9,2.12,0.9,3.51v6.39H408.23z M378.97,109.72v-22.1h4.94v2.65h0.07
		c0.39-1.01,0.97-1.79,1.72-2.34c0.76-0.54,1.56-0.82,2.42-0.82c0.8,0,1.52,0.24,2.18,0.73c0.66,0.48,1.15,1.19,1.5,2.11h0.13
		c0.43-0.96,1.02-1.69,1.75-2.18c0.73-0.49,1.53-0.74,2.39-0.74c0.77,0,1.48,0.19,2.14,0.58c0.66,0.38,1.19,0.93,1.6,1.65
		c0.4,0.72,0.6,1.56,0.6,2.53l0.07,17.93h-5.33V93.97c0-1.19-0.45-1.78-1.36-1.78c-0.95,0-1.42,0.59-1.42,1.78v15.75h-5.3V94.05
		c0-0.39-0.08-0.8-0.25-1.22c-0.17-0.43-0.52-0.64-1.04-0.64c-0.99,0-1.49,0.59-1.49,1.78v15.75H378.97z M366.82,98.81h3.34
		l-1.68-13.24L366.82,98.81z M359.56,109.72L365,80.17h7.05l5.37,29.55h-5.9l-0.76-5.71h-4.6l-0.7,5.71H359.56z M336.66,103.02h5.04
		c0,2.11,0.63,3.21,1.89,3.31c1.28-0.22,1.92-0.97,1.92-2.25c-0.08-0.49-0.2-0.88-0.38-1.16c-0.18-0.28-0.55-0.54-1.12-0.81
		c-1.96-1.06-3.31-1.83-4.05-2.3c-0.74-0.47-1.45-1.18-2.13-2.13c-0.68-0.95-1.05-2.12-1.1-3.53c0-2.31,0.64-4.08,1.92-5.3
		c1.29-1.21,2.96-1.83,5-1.83c1.97,0.05,3.57,0.65,4.81,1.82c1.24,1.17,1.86,2.93,1.86,5.31h-4.94c0-2-0.57-2.99-1.72-2.99
		c-1.17,0-1.76,0.67-1.76,2.01c0.06,0.75,0.6,1.42,1.62,2c1.02,0.58,2.03,1.12,3.01,1.63c0.99,0.51,1.88,1.22,2.67,2.14
		c0.79,0.91,1.25,2.17,1.38,3.77c0.02,0.18,0.03,0.45,0.03,0.79c0,1.33-0.26,2.53-0.78,3.59c-0.51,1.06-1.32,1.9-2.41,2.51
		c-1.08,0.61-2.43,0.91-4.04,0.91h-0.33C338.79,110.36,336.66,107.87,336.66,103.02z M326.42,93.8v10.17c0,1.31,0.54,1.97,1.62,1.97
		c1.08,0,1.62-0.66,1.62-1.97V93.8c0-0.7-0.15-1.25-0.44-1.65c-0.3-0.39-0.67-0.59-1.12-0.59c-0.55,0-0.96,0.2-1.25,0.6
		C326.56,92.56,326.42,93.11,326.42,93.8z M321.12,104.16V93.8c0-1.28,0.25-2.43,0.75-3.45c0.5-1.02,1.27-1.83,2.31-2.42
		c1.05-0.6,2.36-0.89,3.93-0.89c1.5,0,2.77,0.31,3.81,0.93c1.03,0.62,1.8,1.44,2.3,2.44c0.5,1.01,0.75,2.09,0.75,3.25l-0.07,10.32
		c0,1.27-0.26,2.4-0.79,3.39c-0.52,0.99-1.3,1.77-2.34,2.32c-1.03,0.55-2.28,0.83-3.73,0.83c-1.55,0-2.85-0.29-3.89-0.87
		c-1.04-0.58-1.81-1.35-2.3-2.3C321.36,106.37,321.12,105.31,321.12,104.16z M312.53,85.49v-5.32h5.3v5.32H312.53z M312.53,109.72
		v-22.1h5.3v22.1H312.53z M300.93,109.72v-22.1h4.9V91h0.07c0.4-1.59,1.01-2.65,1.8-3.18c0.8-0.53,1.55-0.79,2.28-0.79v7.13
		c-0.13-0.03-0.34-0.07-0.63-0.12c-0.29-0.05-0.61-0.07-0.96-0.07c-0.71,0-1.25,0.14-1.61,0.42c-0.37,0.28-0.55,0.85-0.55,1.7v13.63
		H300.93z M289.67,93.8v10.17c0,1.31,0.54,1.97,1.62,1.97c1.08,0,1.62-0.66,1.62-1.97V93.8c0-0.7-0.15-1.25-0.44-1.65
		c-0.3-0.39-0.67-0.59-1.12-0.59c-0.55,0-0.96,0.2-1.25,0.6C289.81,92.56,289.67,93.11,289.67,93.8z M284.36,104.16V93.8
		c0-1.28,0.25-2.43,0.75-3.45c0.5-1.02,1.27-1.83,2.31-2.42c1.05-0.6,2.36-0.89,3.93-0.89c1.5,0,2.77,0.31,3.81,0.93
		c1.03,0.62,1.8,1.44,2.3,2.44c0.5,1.01,0.75,2.09,0.75,3.25l-0.07,10.32c0,1.27-0.26,2.4-0.79,3.39c-0.52,0.99-1.3,1.77-2.34,2.32
		c-1.03,0.55-2.28,0.83-3.73,0.83c-1.55,0-2.85-0.29-3.89-0.87c-1.04-0.58-1.81-1.35-2.3-2.3
		C284.61,106.37,284.36,105.31,284.36,104.16z M274.46,87.62v-6.3h5.3v6.3h2.49v4.57h-2.49v11.9c0,0.21,0.07,0.48,0.2,0.8
		c0.13,0.32,0.42,0.51,0.87,0.55c0.02-0.03,0.12-0.07,0.3-0.09c0.18-0.02,0.28-0.05,0.33-0.07h0.8v4.45l-1.62,0.24
		c-0.02,0-0.2,0.01-0.54,0.04c-0.34,0.03-0.65,0.04-0.96,0.04c-1.12,0-2.04-0.21-2.78-0.64c-0.54-0.31-0.98-0.85-1.35-1.6
		c-0.36-0.75-0.55-1.6-0.55-2.53V92.19h-2.05v-4.57H274.46z M265.6,107.78c-0.55,0.87-1.23,1.54-2.05,2.02
		c-0.82,0.47-1.67,0.71-2.55,0.71c-0.85,0-1.65-0.24-2.38-0.73c-0.74-0.49-1.33-1.22-1.77-2.19c-0.44-0.98-0.66-2.14-0.66-3.5
		c0.04-1.45,0.25-2.63,0.66-3.54c0.4-0.91,0.93-1.64,1.58-2.16c0.66-0.53,1.54-1.01,2.63-1.44c1.1-0.43,1.98-0.77,2.65-1.02
		c0.54-0.16,0.96-0.47,1.25-0.93c0.29-0.45,0.44-0.93,0.44-1.43c0-0.62-0.16-1.17-0.48-1.64c-0.32-0.47-0.7-0.7-1.15-0.7
		c-0.77,0-1.31,0.25-1.62,0.75c-0.31,0.51-0.46,1.38-0.46,2.64h-5.29c0-4.98,2.35-7.52,7.05-7.6c2.82,0,4.72,0.54,5.71,1.61
		c0.99,1.08,1.49,2.69,1.49,4.84v14.31c0,0.35,0.15,0.99,0.46,1.93h-5.21L265.6,107.78z M265.41,99.04
		c-0.35,0.18-0.82,0.44-1.41,0.76c-0.59,0.32-1.05,0.64-1.39,0.97c-0.34,0.33-0.61,0.75-0.8,1.25c-0.19,0.5-0.28,1.12-0.28,1.86
		c0.03,0.57,0.24,1.04,0.61,1.41c0.37,0.37,0.83,0.56,1.38,0.56c0.51,0,0.94-0.26,1.29-0.77c0.35-0.51,0.55-1.28,0.61-2.3V99.04z
		 M245.79,109.72v-22.1h4.9V91h0.07c0.4-1.59,1.01-2.65,1.8-3.18c0.8-0.53,1.55-0.79,2.28-0.79v7.13c-0.13-0.03-0.34-0.07-0.63-0.12
		c-0.29-0.05-0.61-0.07-0.96-0.07c-0.71,0-1.25,0.14-1.61,0.42c-0.37,0.28-0.55,0.85-0.55,1.7v13.63H245.79z M234.53,93.8v10.17
		c0,1.31,0.54,1.97,1.62,1.97c1.08,0,1.62-0.66,1.62-1.97V93.8c0-0.7-0.15-1.25-0.44-1.65c-0.3-0.39-0.67-0.59-1.12-0.59
		c-0.55,0-0.96,0.2-1.25,0.6C234.67,92.56,234.53,93.11,234.53,93.8z M229.23,104.16V93.8c0-1.28,0.25-2.43,0.75-3.45
		c0.5-1.02,1.27-1.83,2.31-2.42c1.05-0.6,2.36-0.89,3.93-0.89c1.5,0,2.77,0.31,3.81,0.93c1.03,0.62,1.8,1.44,2.3,2.44
		c0.5,1.01,0.75,2.09,0.75,3.25l-0.07,10.32c0,1.27-0.26,2.4-0.79,3.39c-0.52,0.99-1.3,1.77-2.34,2.32
		c-1.03,0.55-2.28,0.83-3.73,0.83c-1.55,0-2.85-0.29-3.89-0.87c-1.04-0.58-1.81-1.35-2.3-2.3
		C229.47,106.37,229.23,105.31,229.23,104.16z M218.16,95.58v6.15c0,0.74,0.12,1.54,0.34,2.37c0.23,0.83,0.68,1.25,1.35,1.25
		c1.04,0,1.56-1.1,1.56-3.31v-6.26c0-1.29-0.12-2.21-0.37-2.74c-0.24-0.52-0.64-0.81-1.19-0.85
		C218.72,92.19,218.16,93.32,218.16,95.58z M212.86,109.72V80.17h5.3v9.3h0.07c0.27-0.74,0.76-1.33,1.46-1.77
		c0.71-0.45,1.54-0.67,2.48-0.67c1.31,0,2.39,0.63,3.23,1.9c0.83,1.27,1.25,3.17,1.25,5.7v8.16c-0.03,2.48-0.45,4.38-1.26,5.72
		c-0.81,1.33-1.9,2-3.28,2c-0.81,0-1.61-0.3-2.4-0.88c-0.8-0.58-1.42-1.38-1.87-2.39h-0.07v2.48H212.86z M204.9,107.78
		c-0.55,0.87-1.23,1.54-2.05,2.02c-0.82,0.47-1.67,0.71-2.55,0.71c-0.85,0-1.65-0.24-2.38-0.73c-0.74-0.49-1.33-1.22-1.77-2.19
		c-0.44-0.98-0.66-2.14-0.66-3.5c0.04-1.45,0.25-2.63,0.66-3.54c0.4-0.91,0.93-1.64,1.58-2.16c0.66-0.53,1.54-1.01,2.63-1.44
		c1.1-0.43,1.98-0.77,2.65-1.02c0.54-0.16,0.96-0.47,1.25-0.93c0.29-0.45,0.44-0.93,0.44-1.43c0-0.62-0.16-1.17-0.48-1.64
		c-0.32-0.47-0.7-0.7-1.15-0.7c-0.77,0-1.31,0.25-1.62,0.75c-0.31,0.51-0.46,1.38-0.46,2.64h-5.29c0-4.98,2.35-7.52,7.05-7.6
		c2.82,0,4.72,0.54,5.71,1.61c0.99,1.08,1.49,2.69,1.49,4.84v14.31c0,0.35,0.15,0.99,0.46,1.93h-5.21L204.9,107.78z M204.7,99.04
		c-0.35,0.18-0.82,0.44-1.41,0.76c-0.59,0.32-1.05,0.64-1.39,0.97c-0.34,0.33-0.61,0.75-0.8,1.25c-0.19,0.5-0.28,1.12-0.28,1.86
		c0.03,0.57,0.24,1.04,0.61,1.41c0.37,0.37,0.83,0.56,1.38,0.56c0.51,0,0.94-0.26,1.29-0.77c0.35-0.51,0.55-1.28,0.61-2.3V99.04z
		 M181.27,109.72V80.09h5.9v23.72h7.12v5.91H181.27z"/>
	<g>
		<defs>
			<rect id="SVGID_1_" x="189.24" y="121.41" width="290.13" height="21.56"/>
		</defs>
		<use xlink:href="#SVGID_1_"  style="overflow:visible;fill-rule:evenodd;clip-rule:evenodd;fill:#FFFFFF;"/>
		<clipPath id="SVGID_00000039135279722747122340000002772594903168296593_">
			<use xlink:href="#SVGID_1_"  style="overflow:visible;"/>
		</clipPath>
		
			<rect x="189.24" y="121.41" style="clip-path:url(#SVGID_00000039135279722747122340000002772594903168296593_);fill:#FFFFFF;" width="290.13" height="21.56"/>
	</g>
	<path class="st1" d="M567.66,123.39h0.59h12.6v1.04h-6.1v4.42v13.71h-1.03v-4.42v-13.71h-6.05V123.39z M549.26,132.95h-0.05
		c0.02,2.39,0.81,4.45,2.37,6.17c1.57,1.72,3.45,2.58,5.65,2.58c2.22,0,4.1-0.87,5.66-2.61c1.56-1.74,2.35-3.81,2.36-6.2
		c0-2.41-0.79-4.49-2.36-6.25c-1.58-1.76-3.47-2.63-5.68-2.61c-2.2,0-4.08,0.88-5.64,2.65
		C550.02,128.45,549.25,130.54,549.26,132.95z M557.14,122.9h-0.02c2.53-0.02,4.69,0.94,6.5,2.88c1.8,1.94,2.72,4.28,2.73,7.03
		c0.03,2.71-0.84,5.06-2.62,7.03c-1.78,1.97-3.93,2.96-6.46,2.96c-2.49,0.02-4.64-0.96-6.44-2.93c-1.8-1.97-2.7-4.31-2.7-7
		c0-0.02,0-0.04,0-0.05c0-0.02,0-0.04,0-0.05c0-0.02,0-0.04,0-0.05c0-0.02,0-0.04,0-0.05c0.07-2.7,0.96-4.99,2.7-6.89
		C552.56,123.85,554.66,122.9,557.14,122.9z M534.78,129.57h6.42c1.03,0,1.92-0.18,2.65-0.54c0.73-0.36,1.1-1.05,1.1-2.09
		c0-0.98-0.35-1.66-1.06-2.05c-0.71-0.38-1.48-0.58-2.34-0.58c-0.02,0-0.03,0-0.04,0c-0.01,0-0.02,0-0.04,0h-6.69V129.57z
		 M534.75,141.27h6.1c1.38,0,2.59-0.51,3.64-1.53c1.05-1.02,1.56-2.27,1.53-3.75c-0.02-1.43-0.5-2.64-1.46-3.64
		c-0.96-1-2.1-1.5-3.41-1.5h-6.4V141.27z M540.95,142.53h-7.31v-5.68v-13.71h7.83c1.46,0,2.58,0.33,3.37,0.98
		c0.79,0.65,1.21,1.58,1.28,2.8c0,0.02,0,0.04,0,0.07c0,0.03,0,0.05,0,0.07c0,0.02,0,0.04,0,0.07c0,0.03,0,0.05,0,0.07
		c0,0.73-0.18,1.36-0.53,1.89c-0.35,0.53-0.84,0.96-1.46,1.3c1.02,0.61,1.77,1.38,2.26,2.32c0.49,0.94,0.75,2.04,0.76,3.31
		c0,0.04,0,0.07,0,0.11c0,0.04,0,0.07,0,0.11c0,1.87-0.62,3.39-1.86,4.55c-1.24,1.16-2.69,1.74-4.34,1.74V142.53z M519.65,129.6
		h11.07c-0.06-1.62-0.66-2.99-1.8-4.08c-1.13-1.1-2.39-1.66-3.77-1.67c-0.05,0-0.1,0-0.15,0c-0.05,0-0.1,0-0.15,0
		c-1.26,0.09-2.43,0.68-3.51,1.78C520.29,126.72,519.72,128.05,519.65,129.6z M518.42,142.5l0.02-11.91c0-2.34,0.65-4.23,1.94-5.68
		c1.3-1.45,2.89-2.16,4.77-2.14c1.84,0.02,3.41,0.71,4.71,2.09c1.3,1.37,1.96,3.12,1.96,5.25v12.45h-1.08V130.8h-11.22v11.7H518.42z
		 M504.33,142.5v-5.68v-13.71h0.96v4.55v13.71h12.26v1.12h-0.62H504.33z"/>
	<path class="st1" d="M567.66,123.39h0.59h12.6v1.04h-6.1v4.42v13.71h-1.03v-4.42v-13.71h-6.05V123.39z M549.26,132.95h-0.05
		c0.02,2.39,0.81,4.45,2.37,6.17c1.57,1.72,3.45,2.58,5.65,2.58c2.22,0,4.1-0.87,5.66-2.61c1.56-1.74,2.35-3.81,2.36-6.2
		c0-2.41-0.79-4.49-2.36-6.25c-1.58-1.76-3.47-2.63-5.68-2.61c-2.2,0-4.08,0.88-5.64,2.65
		C550.02,128.45,549.25,130.54,549.26,132.95z M557.14,122.9h-0.02c2.53-0.02,4.69,0.94,6.5,2.88c1.8,1.94,2.72,4.28,2.73,7.03
		c0.03,2.71-0.84,5.06-2.62,7.03c-1.78,1.97-3.93,2.96-6.46,2.96c-2.49,0.02-4.64-0.96-6.44-2.93c-1.8-1.97-2.7-4.31-2.7-7
		c0-0.02,0-0.04,0-0.05c0-0.02,0-0.04,0-0.05c0-0.02,0-0.04,0-0.05c0-0.02,0-0.04,0-0.05c0.07-2.7,0.96-4.99,2.7-6.89
		C552.56,123.85,554.66,122.9,557.14,122.9z M534.78,129.57h6.42c1.03,0,1.92-0.18,2.65-0.54c0.73-0.36,1.1-1.05,1.1-2.09
		c0-0.98-0.35-1.66-1.06-2.05c-0.71-0.38-1.48-0.58-2.34-0.58c-0.02,0-0.03,0-0.04,0c-0.01,0-0.02,0-0.04,0h-6.69V129.57z
		 M534.75,141.27h6.1c1.38,0,2.59-0.51,3.64-1.53c1.05-1.02,1.56-2.27,1.53-3.75c-0.02-1.43-0.5-2.64-1.46-3.64
		c-0.96-1-2.1-1.5-3.41-1.5h-6.4V141.27z M540.95,142.53h-7.31v-5.68v-13.71h7.83c1.46,0,2.58,0.33,3.37,0.98
		c0.79,0.65,1.21,1.58,1.28,2.8c0,0.02,0,0.04,0,0.07c0,0.03,0,0.05,0,0.07c0,0.02,0,0.04,0,0.07c0,0.03,0,0.05,0,0.07
		c0,0.73-0.18,1.36-0.53,1.89c-0.35,0.53-0.84,0.96-1.46,1.3c1.02,0.61,1.77,1.38,2.26,2.32c0.49,0.94,0.75,2.04,0.76,3.31
		c0,0.04,0,0.07,0,0.11c0,0.04,0,0.07,0,0.11c0,1.87-0.62,3.39-1.86,4.55c-1.24,1.16-2.69,1.74-4.34,1.74V142.53z M519.65,129.6
		h11.07c-0.06-1.62-0.66-2.99-1.8-4.08c-1.13-1.1-2.39-1.66-3.77-1.67c-0.05,0-0.1,0-0.15,0c-0.05,0-0.1,0-0.15,0
		c-1.26,0.09-2.43,0.68-3.51,1.78C520.29,126.72,519.72,128.05,519.65,129.6z M518.42,142.5l0.02-11.91c0-2.34,0.65-4.23,1.94-5.68
		c1.3-1.45,2.89-2.16,4.77-2.14c1.84,0.02,3.41,0.71,4.71,2.09c1.3,1.37,1.96,3.12,1.96,5.25v12.45h-1.08V130.8h-11.22v11.7H518.42z
		 M504.33,142.5v-5.68v-13.71h0.96v4.55v13.71h12.26v1.12h-0.62H504.33z"/>
</g>
</svg>
