<?xml version="1.0" encoding="utf-8"?>
<!-- Generator: Adobe Illustrator 25.4.1, SVG Export Plug-In . SVG Version: 6.00 Build 0)  -->
<svg version="1.1" id="Capa_1" xmlns="http://www.w3.org/2000/svg" xmlns:xlink="http://www.w3.org/1999/xlink" x="0px" y="0px"
	 viewBox="0 0 487.58 490.68" style="enable-background:new 0 0 487.58 490.68;" xml:space="preserve">
<g>
	<path d="M232.22,431.3c-6.56-0.91-13.17-1.53-19.66-2.79c-66.02-12.76-113.08-49.81-139.97-111.4
		c-30.73-70.4-12.13-155.48,44.36-207.48c30.73-28.29,66.85-44.73,108.32-49.22c24.84-2.69,49.25,0.01,73.13,7.31
		c5.28,1.61,7.79,5.28,7.29,10.23c-0.43,4.22-3.67,7.64-8.05,8.04c-1.74,0.16-3.6-0.27-5.32-0.75
		c-54.03-15.13-104.13-6.75-149.2,26.68c-35.21,26.11-56.67,61.52-64.04,104.77c-8.65,50.71,3.71,96.38,36.39,136
		c25.98,31.51,59.62,50.9,99.95,57.54c53.87,8.86,101.85-4.94,141.78-42.04c41.94-38.98,59.06-87.97,52.27-144.95
		c-1.07-8.95-3.56-17.74-5.67-26.54c-1.5-6.27,0.66-11.42,5.94-12.9c5.41-1.52,10.08,1.48,11.93,7.69
		c3.94,13.26,6.56,26.76,7.46,40.57c0.07,1.06,0.39,2.11,0.59,3.16c0,6.78,0,13.56,0,20.33c-0.2,1.05-0.45,2.1-0.6,3.16
		c-1.24,8.6-2.03,17.29-3.75,25.79c-14.76,72.94-76.01,131.83-149.52,143.93c-6.77,1.11-13.59,1.91-20.39,2.86
		C247.71,431.3,239.97,431.3,232.22,431.3z"/>
	<path d="M244.64,375.16c-63.26-0.61-117.37-46.36-127.95-108.8c-12.21-72.01,37.44-139.9,109.91-149.94
		c8.21-1.14,16.64-0.85,24.97-0.92c4.76-0.04,8.35,2.27,9.97,6.99c2.17,6.32-2.65,12.22-9.65,11.62c-21.23-1.84-41.1,2.8-59.8,12.65
		c-39.87,21-63.04,65.08-58.03,110.01c5.66,50.75,44.04,90.47,94.79,98.08c59.94,8.99,117.08-33.72,125.4-94
		c1.05-7.6,0.86-15.41,0.75-23.12c-0.08-5.8,2.94-10.2,8.35-10.82c5.37-0.62,10.23,3.22,10.2,9.29c-0.05,10.49,0.43,21.25-1.7,31.41
		c-11.52,54.97-44.88,89.64-99.27,103.61C263.52,373.52,253.96,373.89,244.64,375.16z"/>
	<path d="M330.46,189.46c-5.8,0-12.22-1.55-17.22,0.44c-4.87,1.94-8.31,7.5-12.33,11.52c-16.26,16.24-32.52,32.49-48.75,48.77
		c-2.92,2.93-6.12,4.78-10.37,3.52c-6.4-1.89-8.73-9.31-4.59-14.59c0.89-1.14,1.96-2.14,2.98-3.17c18.98-19,37.94-38.02,57.01-56.94
		c2.07-2.05,2.89-4.1,2.84-6.98c-0.17-9.07,0-18.15-0.09-27.22c-0.04-3.86,1.2-6.96,3.98-9.72c17.76-17.65,35.47-35.37,53.12-53.13
		c3.29-3.31,6.93-4.93,11.41-3.09c4.41,1.81,5.67,5.54,5.62,10.02c-0.08,7.5,0.13,15.01-0.09,22.5c-0.09,3.12,0.98,3.87,3.92,3.8
		c7.5-0.19,15,0,22.5-0.09c4.52-0.05,8.19,1.32,9.94,5.73c1.73,4.34,0.24,7.93-2.97,11.13c-17.83,17.76-35.62,35.56-53.37,53.4
		c-2.66,2.67-5.67,3.92-9.4,3.85c-4.72-0.09-9.44-0.02-14.15-0.02C330.46,189.3,330.46,189.38,330.46,189.46z M318.58,170.63
		c7.82,0,15.18,0.08,22.54-0.08c1.12-0.02,2.4-0.98,3.28-1.85c10.91-10.82,21.76-21.7,32.61-32.58c0.62-0.62,1.11-1.37,2.03-2.52
		c-4.73,0-8.81,0.03-12.89-0.01c-6.94-0.06-10.48-3.6-10.53-10.5c-0.03-4.16-0.01-8.31-0.01-12.68c-0.74,0.3-1.01,0.33-1.16,0.48
		c-11.57,11.53-23.14,23.06-34.64,34.65c-0.68,0.68-1.17,1.87-1.18,2.83C318.54,155.62,318.58,162.87,318.58,170.63z"/>
	<path d="M170.63,244.77c-0.19-39.56,30.74-72.09,70.24-74.06c1.21-0.06,2.42-0.11,3.63-0.04c5.16,0.28,9.01,4.06,9.18,8.97
		c0.16,4.77-3.21,8.7-8.26,9.42c-4.78,0.68-9.68,0.75-14.34,1.87c-25.78,6.21-44.09,30.97-42.12,56.62
		c2.17,28.34,22.71,49.84,50.1,52.45c31.89,3.04,59.47-20.92,60.81-52.88c0.17-4.02,0.71-7.79,4.46-10.13c3-1.87,6.2-2.01,9.32-0.32
		c3.54,1.92,5.01,5.11,4.91,9.05c-0.43,17.41-5.76,33.16-17.21,46.33c-20.37,23.43-46.24,32.07-76.12,24.02
		c-29.73-8.01-47.46-28.47-53.77-58.67c-0.42-2.01-0.67-4.07-0.8-6.11C170.53,249.13,170.63,246.95,170.63,244.77z"/>
</g>
</svg>
