<?xml version="1.0" encoding="utf-8"?>
<!-- Generator: Adobe Illustrator 25.4.1, SVG Export Plug-In . SVG Version: 6.00 Build 0)  -->
<svg version="1.1" id="Capa_1" xmlns="http://www.w3.org/2000/svg" xmlns:xlink="http://www.w3.org/1999/xlink" x="0px" y="0px"
	 viewBox="0 0 487.58 490.68" style="enable-background:new 0 0 487.58 490.68;" xml:space="preserve">
<g>
	<path d="M119.1,114.36c2.23-5.54,6.31-7.45,12.25-7.43c54.8,0.14,109.61,0.1,164.41,0.05c3.63,0,7.05,0.51,9.12,3.66
		c1.2,1.83,2.04,4.25,2.1,6.42c0.24,8.45,0.12,16.9,0.09,25.36c-0.01,3.29-1.56,5.21-4.09,5.24c-2.6,0.03-4.24-2-4.25-5.43
		c-0.03-7.9-0.09-15.79,0.04-23.69c0.04-2.38-0.61-3.22-3.12-3.22c-54.99,0.06-109.98,0.07-164.97,0c-2.63,0-3.26,0.86-3.26,3.37
		c0.06,84.44,0.06,168.87,0,253.31c0,2.54,0.67,3.37,3.28,3.36c16.07-0.11,32.14-0.06,48.21-0.04c1.1,0,2.25,0.02,3.3,0.33
		c2.04,0.6,3,2.14,2.82,4.24c-0.18,2.11-1.4,3.4-3.51,3.7c-0.91,0.13-1.85,0.08-2.78,0.08c-15.79,0-31.59-0.17-47.37,0.09
		c-5.94,0.1-10.02-1.9-12.26-7.43C119.1,289,119.1,201.68,119.1,114.36z"/>
	<path d="M241.46,328.57c-9.44-14.23-14.27-29.32-15.23-45.82c-7.17,0-14.03,0.07-20.89-0.06c-1.36-0.03-3.19-0.46-3.94-1.4
		c-0.82-1.02-1.29-3.24-0.7-4.23c0.74-1.26,2.66-2.48,4.12-2.55c6.02-0.28,12.07-0.12,18.11-0.12c1.01,0,2.02,0,3.32,0
		c0.99-16.51,5.88-31.59,15.32-45.77c-1.43,0-2.38,0-3.32,0c-10.96,0-21.92,0.08-32.88-0.09c-1.53-0.02-3.57-0.87-4.47-2.04
		c-2.12-2.78,0.25-6.19,4.17-6.21c8.36-0.05,16.72-0.01,25.08-0.02c5.29,0,10.59,0.07,15.88-0.06c1.05-0.02,2.4-0.5,3.09-1.25
		c13.15-14.34,29.22-23.54,48.22-27.64c0.35-0.08,0.7-0.18,1.39-0.36c0-1.08,0-2.16,0-3.25c0-7.24-0.01-14.49,0.01-21.73
		c0-1.01,0.02-2.07,0.3-3.03c0.64-2.18,2.25-3.17,4.46-2.88c2.39,0.32,3.55,1.89,3.56,4.24c0.03,7.24,0.02,14.49,0.03,21.73
		c0,1.1,0,2.19,0,3.62c32.94-1.73,59.86,9.79,79.79,36c13.08,17.2,18.78,36.96,17.39,58.51c-3.42,53.05-51.05,88.78-97.18,83.35
		c0,1.85,0.01,3.67,0,5.48c-0.07,6.93-3.78,10.66-10.7,10.66c-31.11,0.02-62.23,0.01-93.34,0c-3.68,0-5.46-1.31-5.55-3.99
		c-0.09-2.78,1.87-4.36,5.53-4.36c30.46-0.01,60.93-0.01,91.39-0.01c0.74,0,1.49,0.02,2.23-0.02c0.46-0.02,1.29-0.09,1.31-0.22
		c0.31-2.51,0.68-5.04,0.65-7.56c-0.01-0.6-1.35-1.53-2.21-1.73c-10.89-2.45-21.19-6.42-30.24-12.94
		c-5.84-4.21-11.11-9.24-16.48-14.06c-1.34-1.2-2.49-1.89-4.33-1.88c-12.91,0.07-25.82,0.04-38.73,0.03c-1.02,0-2.06,0.03-3.06-0.13
		c-2-0.32-3.12-1.64-3.29-3.6c-0.19-2.08,0.73-3.66,2.78-4.27c1.04-0.31,2.2-0.34,3.3-0.34c10.49-0.02,20.99-0.01,31.49-0.01
		C238.84,328.57,239.84,328.57,241.46,328.57z M315.21,359.41c44.4,0.07,80.72-36.07,80.9-80.48c0.18-44.58-35.95-80.92-80.54-81.04
		c-44.6-0.12-80.91,35.98-81.04,80.57C234.4,322.98,270.64,359.34,315.21,359.41z"/>
	<path d="M180.59,134.3c0.07-0.05,0.49-0.41,0.95-0.71c1.98-1.3,3.92-1.2,5.52,0.54c1.61,1.75,1.78,4.01-0.01,5.47
		c-2.71,2.21-2.75,4.92-2.7,7.93c0.09,5.47,0.07,10.94,0.01,16.42c-0.06,6.11-4.15,10.39-10.24,10.5
		c-7.05,0.13-14.1,0.14-21.14-0.01c-5.85-0.12-9.97-4.23-10.08-10.07c-0.14-7.14-0.14-14.28,0-21.42
		c0.12-5.98,4.31-10.04,10.31-10.13c6.86-0.09,13.73-0.13,20.59,0.04C175.95,132.92,178.08,133.74,180.59,134.3z M176.02,151.68
		c-0.25-0.17-0.5-0.34-0.76-0.51c-2.8,2.93-5.58,5.88-8.39,8.79c-1.76,1.83-3.86,2.46-5.94,0.74c-1.92-1.58-3.72-3.38-5.3-5.31
		c-1.4-1.71-1.23-3.69,0.37-5.29c1.69-1.68,3.61-1.73,5.53-0.34c0.66,0.48,1.25,1.05,1.55,1.31c3.34-3.35,6.58-6.59,9.89-9.9
		c-6.52,0-13.16-0.07-19.8,0.11c-0.68,0.02-1.85,1.56-1.87,2.42c-0.16,6.59-0.08,13.18-0.1,19.77c0,1.69,0.68,2.64,2.45,2.64
		c6.68,0,13.37,0.01,20.05-0.01c1.58-0.01,2.33-0.84,2.32-2.46C176,159.66,176.02,155.67,176.02,151.68z"/>
	<path d="M180.56,188.54c0.22-0.18,0.63-0.56,1.09-0.85c2.02-1.25,3.96-1.06,5.5,0.72c1.55,1.8,1.64,4.04-0.18,5.47
		c-2.6,2.04-2.65,4.59-2.6,7.41c0.08,5.57,0.06,11.13,0.01,16.7c-0.06,6.44-4.22,10.58-10.66,10.62c-6.77,0.04-13.54,0.05-20.32,0
		c-6.16-0.04-10.39-4.08-10.5-10.21c-0.13-7.05-0.13-14.1,0-21.15c0.1-5.91,4.01-10.02,9.94-10.2c7.14-0.22,14.29-0.16,21.43,0.01
		C176.22,187.09,178.17,187.95,180.56,188.54z M172.94,195.34c-6.44,0-12.99-0.07-19.54,0.1c-0.74,0.02-2.06,1.44-2.08,2.24
		c-0.17,6.77-0.17,13.55,0,20.32c0.02,0.76,1.37,2.12,2.13,2.14c6.77,0.17,13.55,0.15,20.32,0.03c0.74-0.01,2.07-1.01,2.1-1.6
		c0.18-4.28,0.1-8.58,0.1-12.87c-0.24-0.11-0.48-0.21-0.72-0.32c-2.81,2.93-5.62,5.87-8.44,8.79c-1.69,1.75-3.74,2.38-5.72,0.82
		c-2.02-1.6-3.87-3.49-5.51-5.49c-1.4-1.71-1.15-3.7,0.46-5.29c1.6-1.58,3.46-1.67,5.32-0.43c0.74,0.5,1.37,1.17,1.61,1.39
		C166.36,201.85,169.61,198.63,172.94,195.34z"/>
	<path d="M163.77,282.75c-3.53,0-7.05,0.04-10.58-0.01c-5.92-0.09-10.14-3.98-10.27-9.82c-0.17-7.33-0.17-14.66,0.01-21.99
		c0.13-5.48,4.06-9.47,9.56-9.62c7.42-0.21,14.85-0.22,22.26,0c5.72,0.17,9.56,4.39,9.61,10.17c0.07,6.96,0.06,13.92,0,20.87
		c-0.05,6.15-4.2,10.29-10.3,10.38C170.63,282.79,167.2,282.75,163.77,282.75z M176.02,261.99c0-3.24-0.06-6.49,0.02-9.73
		c0.05-1.9-0.76-2.72-2.62-2.71c-6.58,0.02-13.15,0.02-19.73,0.01c-1.75,0-2.49,0.86-2.49,2.58c0.02,6.58,0.02,13.15,0,19.73
		c0,1.7,0.69,2.55,2.49,2.53c6.58-0.04,13.15-0.05,19.73,0c1.93,0.02,2.64-0.83,2.61-2.69
		C175.98,268.48,176.02,265.24,176.02,261.99z"/>
	<path d="M163.65,295.44c3.62,0,7.24-0.06,10.85,0.01c5.49,0.12,9.75,4.21,9.84,9.68c0.12,7.33,0.11,14.66,0.01,21.99
		c-0.08,5.38-4.1,9.61-9.47,9.74c-7.51,0.18-15.03,0.17-22.54,0c-5.16-0.12-9.21-4.06-9.36-9.22c-0.22-7.6-0.22-15.22-0.01-22.82
		c0.15-5.39,4.42-9.26,9.83-9.36C156.41,295.38,160.03,295.44,163.65,295.44z M163.67,303.79c-3.25,0-6.5,0.06-9.75-0.02
		c-1.9-0.05-2.72,0.72-2.71,2.61c0.03,6.5,0.03,13,0,19.5c-0.01,1.85,0.73,2.71,2.65,2.7c6.5-0.05,13-0.04,19.5,0
		c1.84,0.01,2.71-0.68,2.69-2.63c-0.06-6.5-0.07-13,0-19.5c0.02-2.13-0.96-2.73-2.91-2.68
		C169.99,303.85,166.83,303.79,163.67,303.79z"/>
	<path d="M241.65,174.48c-11.8,0-23.59,0.01-35.39-0.02c-1.1,0-2.26-0.04-3.28-0.37c-2.02-0.66-2.94-2.23-2.7-4.32
		c0.24-2.09,1.51-3.34,3.62-3.6c0.73-0.09,1.48-0.05,2.23-0.05c23.78,0,47.56,0,71.34,0c0.74,0,1.49-0.03,2.23,0.05
		c2.15,0.24,3.39,1.58,3.65,3.61c0.26,2.06-0.72,3.66-2.73,4.31c-1.03,0.34-2.19,0.37-3.28,0.38
		C265.43,174.49,253.54,174.48,241.65,174.48z"/>
	<path d="M210.9,267.19c-2.22,0-4.44,0.06-6.65-0.02c-2.39-0.08-3.75-1.45-4.01-3.78c-0.25-2.22,1.28-4.28,3.67-4.38
		c4.7-0.2,9.42-0.21,14.12,0.02c2.28,0.11,3.6,1.77,3.61,4.16c0.01,2.23-1.64,3.87-4.1,3.98
		C215.34,267.27,213.12,267.19,210.9,267.19z"/>
	<path d="M210.79,321.42c-2.14,0-4.28,0.1-6.41-0.03c-2.63-0.16-4.25-1.94-4.17-4.28c0.08-2.23,1.66-3.88,4.19-3.95
		c4.36-0.11,8.73-0.12,13.09,0c2.54,0.07,4.1,1.72,4.17,3.97c0.07,2.36-1.53,4.1-4.19,4.26
		C215.25,321.53,213.02,321.42,210.79,321.42z"/>
	<path d="M210.68,213.04c-2.13,0-4.26,0.08-6.38-0.02c-2.44-0.12-4.05-1.77-4.09-4.03c-0.05-2.22,1.53-4.14,3.92-4.22
		c4.53-0.15,9.06-0.15,13.59-0.01c2.4,0.08,3.97,1.96,3.95,4.18c-0.02,2.32-1.73,3.99-4.33,4.08
		C215.12,213.11,212.9,213.04,210.68,213.04z"/>
	<path d="M210.93,158.92c-2.13,0-4.26,0.07-6.38-0.02c-2.59-0.11-4.32-1.81-4.35-4.12c-0.04-2.43,1.74-4.15,4.51-4.2
		c4.16-0.06,8.32-0.06,12.48,0c2.64,0.04,4.37,1.64,4.47,3.94c0.11,2.43-1.63,4.25-4.35,4.37
		C215.19,158.99,213.06,158.92,210.93,158.92z"/>
	<path d="M315.35,217.67c-28.87-0.11-54.39,20.86-59.75,49.1c-0.12,0.64-0.25,1.28-0.43,1.9c-0.68,2.36-2.6,3.71-4.73,3.34
		c-2.29-0.4-4.03-2.52-3.33-4.93c1.92-6.56,3.45-13.37,6.41-19.45c12.77-26.23,41.83-41.69,70.07-37.82
		c29.98,4.1,53.54,25.73,59.57,54.67c8.34,40.09-19.83,78.62-60.66,82.97c-36.37,3.88-69.48-21.34-75.54-57.54
		c-0.48-2.86,0.85-5.06,3.34-5.49c2.4-0.42,4.31,1.14,4.88,4.15c3.87,20.18,14.71,35.3,33.09,44.54
		c37.05,18.62,81.59-4.98,87.31-46.07C380.71,250.43,352.39,217.82,315.35,217.67z"/>
	<path d="M319.69,253.86c0,3.25,0.05,6.5-0.02,9.75c-0.03,1.42,0.27,2.26,1.72,3c4.75,2.44,7.23,6.44,7.47,11.84
		c0.05,1.13,0.47,2.35,1.04,3.34c2.69,4.66,5.53,9.23,8.26,13.86c2.81,4.77,1.9,8.47-2.75,11.34c-1.66,1.02-3.32,2.04-5.02,2.98
		c-4.03,2.24-7.9,1.3-10.32-2.61c-2.93-4.73-5.7-9.56-8.65-14.28c-0.65-1.04-1.64-1.97-2.68-2.63c-4.51-2.86-6.99-6.84-6.87-12.24
		c0.12-5.31,2.73-9.21,7.37-11.58c1.7-0.87,2.17-1.81,2.14-3.6c-0.1-6.31-0.06-12.62-0.03-18.94c0.01-3.18,1.44-4.89,4-4.96
		c2.68-0.07,4.29,1.72,4.33,4.98C319.73,247.36,319.69,250.61,319.69,253.86z M315.19,273.45c-2.83,0.08-5,2.36-4.97,5.23
		c0.03,2.93,2.49,5.25,5.38,5.09c2.8-0.16,4.92-2.52,4.82-5.37C320.34,275.57,318.01,273.37,315.19,273.45z M320.22,291.43
		c2.27,3.76,4.39,7.29,6.59,10.94c1.52-0.91,2.77-1.66,4.15-2.48c-2.29-3.8-4.45-7.39-6.61-10.97
		C322.8,289.86,321.62,290.58,320.22,291.43z"/>
	<path d="M363.99,274.34c2.3,0,4.24,1.95,4.2,4.23c-0.04,2.28-2.03,4.17-4.34,4.09c-2.23-0.07-3.98-1.86-4.02-4.09
		C359.8,276.24,361.66,274.34,363.99,274.34z"/>
	<path d="M315.21,234.06c-2.26,0.02-4.26-2.04-4.2-4.32c0.06-2.24,1.88-4,4.14-4.02c2.32-0.01,4.05,1.64,4.13,3.96
		C319.36,232.07,317.53,234.04,315.21,234.06z"/>
	<path d="M319.66,327.14c0.01,2.21-1.8,4.07-4.04,4.14c-2.42,0.08-4.26-1.71-4.27-4.13c0-2.27,1.74-4.12,3.97-4.21
		C317.59,322.86,319.65,324.85,319.66,327.14z"/>
	<path d="M270.81,278.61c-0.05,2.26-1.85,4.05-4.1,4.06c-2.32,0.01-4.3-1.98-4.24-4.27c0.06-2.31,2.12-4.18,4.45-4.05
		C269.16,274.47,270.86,276.33,270.81,278.61z"/>
	<path d="M339.74,240.59c-2.23-0.01-4.08-1.81-4.13-4.04c-0.06-2.32,1.85-4.25,4.19-4.25c2.3,0.01,4.04,1.71,4.09,4.01
		C343.94,238.7,342.09,240.6,339.74,240.59z"/>
	<path d="M290.78,324.69c-2.31-0.05-4-1.77-4-4.09c0-2.4,1.87-4.26,4.22-4.2c2.2,0.05,4.07,1.95,4.08,4.12
		C295.09,322.8,293.08,324.74,290.78,324.69z"/>
	<path d="M339.87,324.69c-2.34,0.04-4.28-1.88-4.26-4.19c0.03-2.22,1.85-4.05,4.08-4.1c2.35-0.05,4.22,1.83,4.2,4.22
		C343.87,322.93,342.17,324.66,339.87,324.69z"/>
	<path d="M295.08,236.4c0.03,2.18-1.81,4.1-4.01,4.19c-2.35,0.1-4.27-1.75-4.3-4.13c-0.03-2.32,1.64-4.08,3.93-4.17
		C293.02,232.22,295.05,234.12,295.08,236.4z"/>
	<path d="M357.63,250.19c2.32,0.04,4.01,1.74,4.03,4.06c0.02,2.38-1.86,4.26-4.22,4.21c-2.17-0.04-4.09-1.96-4.11-4.11
		C353.3,252.06,355.28,250.15,357.63,250.19z"/>
	<path d="M277.33,302.76c-0.04,2.29-2.05,4.15-4.4,4.05c-2.29-0.09-3.98-1.87-3.94-4.17c0.04-2.36,2-4.2,4.35-4.09
		C275.54,298.65,277.37,300.58,277.33,302.76z"/>
	<path d="M361.66,302.61c0.06,2.31-1.59,4.09-3.89,4.2c-2.35,0.11-4.38-1.72-4.44-4.02c-0.06-2.15,1.79-4.12,3.97-4.24
		C359.66,298.42,361.6,300.23,361.66,302.61z"/>
	<path d="M277.33,254.18c0.08,2.17-1.73,4.13-3.94,4.26c-2.35,0.15-4.33-1.66-4.4-4.02c-0.07-2.3,1.58-4.1,3.87-4.22
		C275.22,250.08,277.25,251.88,277.33,254.18z"/>
</g>
<path d="M243.79,483.14c-63.52,0-123.23-24.74-168.15-69.65C30.73,368.57,5.99,308.86,5.99,245.34S30.73,122.11,75.64,77.19
	C120.56,32.28,180.27,7.54,243.79,7.54s123.23,24.73,168.15,69.65c44.91,44.91,69.65,104.63,69.65,168.15
	s-24.74,123.23-69.65,168.15C367.02,458.4,307.31,483.14,243.79,483.14z M243.79,15.54c-126.71,0-229.8,103.09-229.8,229.8
	s103.09,229.8,229.8,229.8s229.8-103.09,229.8-229.8S370.5,15.54,243.79,15.54z"/>
</svg>
