<?xml version="1.0" encoding="utf-8"?>
<!-- Generator: Adobe Illustrator 25.4.1, SVG Export Plug-In . SVG Version: 6.00 Build 0)  -->
<svg version="1.1" id="Capa_1" xmlns="http://www.w3.org/2000/svg" xmlns:xlink="http://www.w3.org/1999/xlink" x="0px" y="0px"
	 viewBox="0 0 487.58 490.68" style="enable-background:new 0 0 487.58 490.68;" xml:space="preserve">
<g>
	<path d="M177.44,388.02c-5.88-1.34-10.17-5.05-14.14-9.34c-2.58-2.79-5.4-5.38-8.05-8.11c-2.53-2.6-2.69-5.89-0.5-8.2
		c2.28-2.4,5.7-2.34,8.39,0.28c3.79,3.69,7.48,7.5,11.25,11.21c4.04,3.97,8.07,3.94,12.15-0.05c2.72-2.66,5.4-5.37,8.08-8.07
		c4.36-4.4,4.26-7.92-0.1-12.32c-10.01-10.08-19.93-20.24-29.93-30.32c-8.77-8.83-17.6-17.61-26.42-26.38
		c-1.31-1.3-2.7-2.54-4.15-3.68c-2.22-1.74-6.18-1.59-8.53,0.59c-3.74,3.48-7.39,7.06-10.85,10.82c-2.85,3.1-2.46,7.2,0.75,10.49
		c3.89,3.99,7.89,7.88,11.8,11.84c1.8,1.82,2.34,3.98,1.25,6.38c-1.03,2.28-2.92,3.49-5.34,3.19c-1.36-0.17-2.89-0.89-3.89-1.83
		c-4.31-4.09-8.56-8.26-12.63-12.59c-6.72-7.15-6.76-18.08-0.08-25.29c3.53-3.81,7.2-7.52,11.04-11.02
		c5.38-4.89,11.7-6.06,18.68-4.04c0.9,0.26,2.37,0.32,2.92-0.21c5.56-5.34,10.98-10.82,16.44-16.27c0.38-0.38,0.72-0.81,1.07-1.2
		c-11.15-11.61-6.8-27.88,6.47-33.35c-7.14-12.29-1.23-26.24,12.21-30.06c-1.17-5.29-0.71-10.44,2.13-15.21
		c2.86-4.79,7.13-7.69,12.07-9.04c0.16-3.54-0.18-6.94,0.54-10.11c2.4-10.58,12.68-16.67,23.48-14.39c1.05,0.22,2.52-0.07,3.4-0.69
		c4.89-3.41,10.24-2.92,15.58-1.96c12.05,2.18,24.06,4.58,36.1,6.79c2.26,0.41,4.64,0.17,6.91,0.55
		c11.18,1.87,18.03,11.49,16.25,22.66c-0.09,0.55-0.12,1.1-0.21,1.91c5.23,1.47,9.56,4.29,12.43,9.05
		c2.88,4.77,3.39,9.91,2.18,15.24c11.88,3.98,16.8,12.77,14.87,24.73c7.39,2.1,12.54,6.7,14.5,14.26c1.93,7.47-0.38,13.9-5.89,19.52
		c4.64,4.64,9.16,9.15,13.67,13.65c0.46,0.46,0.99,0.87,1.37,1.39c2.02,2.74,4.11,3.39,7.69,2.16c6.29-2.17,12.37-0.6,17.34,3.92
		c3.91,3.56,7.68,7.3,11.25,11.2c6.77,7.38,6.77,18.35-0.28,25.48c-20.13,20.33-40.38,40.54-60.72,60.66
		c-7.36,7.28-18.64,7.03-26.12-0.18c-3.34-3.22-6.66-6.48-9.86-9.85c-5.67-5.96-7.1-12.87-4.05-20.53c0.6-1.52,0.26-2.31-0.77-3.33
		c-6.74-6.66-13.41-13.39-20.16-20.03c-0.65-0.64-1.69-1.21-2.57-1.25c-6.02-0.25-12.05-0.36-18.08-0.48
		c-2.04-0.04-4.16-0.31-6.1,0.15c-2.06,0.48-4.36,1.27-5.85,2.68c-6.34,5.99-12.4,12.29-18.63,18.41c-1.15,1.13-1.38,1.95-0.63,3.53
		c3.49,7.31,2.16,15.23-3.45,21.12c-3.27,3.43-6.42,7.05-10.12,9.96c-2.97,2.34-6.67,3.75-10.05,5.57
		C181.52,388.02,179.48,388.02,177.44,388.02z M147.56,289c17.29,17.38,34.36,34.53,51.56,51.82c6.39-6.41,12.98-12.94,19.47-19.58
		c3.49-3.58,7.67-5.58,12.6-5.7c5.19-0.12,10.41-0.17,15.57,0.29c9.06,0.81,17.15-0.34,23.19-8.21c2.29-2.98,6-2.87,8.33-0.54
		c2.38,2.38,2.14,5.5-0.43,8.41c-2.4,2.71-4.63,5.57-6.69,8.06c5.18,5.24,11.2,11.34,17.05,17.26
		c16.97-17.03,34.05-34.17,50.69-50.87c-5.71-5.76-11.63-11.74-17.6-17.76c-1.15,1.09-2.41,2.47-3.85,3.62
		c-2.67,2.13-6.19,1.58-8.07-1.12c-1.65-2.37-1.33-5.16,1.02-7.55c4.1-4.18,8.35-8.21,12.36-12.46c3.14-3.34,2.98-8.24-0.09-11.32
		c-3.13-3.14-7.84-3.33-11.33-0.35c-1.62,1.38-3.05,2.99-4.59,4.47c-2.93,2.83-6.18,3.07-8.6,0.64c-2.35-2.36-2.08-5.76,0.72-8.6
		c3.06-3.11,6.25-6.1,9.2-9.32c3.08-3.35,2.92-8.25-0.11-11.34c-3.17-3.22-8.01-3.34-11.53-0.17c-1.73,1.55-3.3,3.26-4.96,4.88
		c-2.98,2.92-6.43,3.19-8.81,0.72c-2.33-2.42-2.04-5.69,0.82-8.59c3.32-3.38,6.78-6.62,9.98-10.11c3.17-3.47,2.87-8.43-0.43-11.51
		c-3.19-2.99-7.98-2.95-11.35,0.17c-1.77,1.64-3.4,3.43-5.15,5.1c-2.75,2.64-6.09,2.84-8.42,0.57c-2.41-2.36-2.21-5.77,0.58-8.61
		c3.19-3.24,6.44-6.43,9.66-9.65c1.95-1.95,2.92-4.3,2.53-7.06c-0.45-3.2-2.19-5.51-5.23-6.65c-3.28-1.23-6.28-0.51-8.74,1.89
		c-4.79,4.66-9.44,9.47-14.24,14.13c-1.3,1.26-1.61,2.16-0.77,3.98c4.85,10.54-0.56,22.87-11.48,26.44
		c-1.92,0.63-3.96,0.85-6.08,1.28c-0.1,0.44-0.26,0.97-0.34,1.51c-1.55,10.38-7.31,16.2-17.72,17.66c-1.66,0.23-1.83,1.06-1.97,2.38
		c-1.02,9.22-7.77,16.01-16.98,17.19c-0.8,0.1-1.58,0.29-2.18,0.4c-0.45,2.17-0.66,4.12-1.25,5.96
		c-3.54,11.06-15.91,16.41-26.66,11.67c-0.83-0.37-2.36-0.58-2.84-0.11C158.56,277.91,152.89,283.66,147.56,289z M375.39,308.69
		c-1.19-2.07-1.95-4.1-3.3-5.61c-2.84-3.17-5.96-6.11-9.02-9.08c-3.69-3.57-7.89-3.6-11.56,0.05
		c-19.72,19.65-39.41,39.32-59.08,59.02c-3.65,3.66-3.67,7.88-0.13,11.54c2.97,3.06,6,6.08,9.07,9.04
		c3.63,3.51,7.79,3.64,11.33,0.13c19.87-19.76,39.7-39.56,59.45-59.44C373.54,312.93,374.21,310.79,375.39,308.69z M213.44,223.79
		c4.76-0.26,7.37-1.8,8.68-5.06c1.34-3.31,0.8-6.45-1.73-9c-6.72-6.8-13.46-13.58-20.32-20.25c-3.52-3.43-8.49-3.3-11.73,0
		c-3.23,3.28-3.2,8.18,0.28,11.72c6.57,6.69,13.16,13.36,19.93,19.84C210.12,222.53,212.43,223.24,213.44,223.79z M233.8,204.63
		c4.92-0.45,8.71-4.11,8.59-8.73c-0.07-2.49-0.85-4.23-3.66-5.46c-11.48-5.02-19.93-13.24-24.81-24.97c-0.45-1.08-1.69-2.2-2.8-2.58
		c-3.52-1.2-7.24,0.34-9.17,3.42c-2.04,3.27-1.7,7.29,1.19,10.22c8.34,8.44,16.72,16.85,25.23,25.12
		C229.81,203.05,231.98,203.66,233.8,204.63z M203.53,234.86c-0.68-1.58-1-3.51-2.11-4.68c-5.51-5.77-11.1-11.48-16.93-16.93
		c-2.97-2.78-7.76-2.26-10.67,0.53c-2.94,2.82-3.67,7.59-0.89,10.61c5.53,5.99,11.35,11.75,17.31,17.32c2.42,2.26,5.7,2.15,8.64,0.6
		C201.74,240.8,203.15,238.28,203.53,234.86z M183.63,254.14c-0.21-0.7-0.22-2.24-0.99-3.1c-2.9-3.19-5.77-6.54-9.19-9.1
		c-3.07-2.3-7.48-1.08-9.99,1.88c-2.42,2.84-2.67,7.35-0.18,10.26c2.22,2.59,4.68,5.03,7.31,7.2c2.57,2.12,5.67,2.19,8.62,0.66
		C182.06,260.46,183.48,257.96,183.63,254.14z M224.65,159.19c-0.17,0.42-0.34,0.84-0.51,1.26c2.95,8.72,9.34,14.39,16.48,18.69
		c4.99-4.98,9.66-9.65,14.48-14.47C245.05,162.87,234.85,161.03,224.65,159.19z"/>
	<path d="M145.85,109.45c1.49-1.76,2.47-3.86,4.03-4.49c1.6-0.64,3.91-0.17,5.66,0.49c1.36,0.51,2.34,2.04,3.46,3.15
		c5.65,5.62,11.3,11.23,16.92,16.89c2.86,2.88,3.12,6.2,0.78,8.61c-2.38,2.46-5.84,2.19-8.8-0.75
		c-6.31-6.27-12.64-12.52-18.85-18.88C147.84,113.21,147.13,111.49,145.85,109.45z"/>
	<path d="M333.32,104.23c3.32,0.03,5.08,1.14,6,3.28c1.01,2.35,0.58,4.56-1.25,6.4c-4.19,4.22-8.4,8.41-12.6,12.62
		c-2.43,2.43-4.83,4.9-7.31,7.27c-2.61,2.49-5.94,2.6-8.21,0.38c-2.28-2.23-2.3-5.66,0.2-8.2c6.59-6.68,13.22-13.31,19.94-19.87
		C331.14,105.1,332.7,104.58,333.32,104.23z"/>
	<path d="M248.84,120.79c0,3.99,0.04,7.98-0.01,11.97c-0.05,3.69-2.19,6.04-5.44,6.11c-3.31,0.07-5.7-2.41-5.73-6.14
		c-0.05-7.98-0.05-15.96,0-23.94c0.02-3.7,2.47-6.22,5.75-6.12c3.21,0.09,5.37,2.49,5.41,6.15
		C248.88,112.81,248.84,116.8,248.84,120.79z"/>
	<path d="M140.2,353.57c-3.19,0.05-5.7-2.41-5.68-5.57c0.02-2.97,2.52-5.52,5.47-5.59c3.06-0.07,5.7,2.56,5.68,5.66
		C145.65,351.13,143.28,353.52,140.2,353.57z"/>
	<path d="M292.12,298.91c-3.08,0.06-5.52-2.24-5.64-5.32c-0.12-3.15,2.34-5.79,5.46-5.85c3.05-0.06,5.73,2.6,5.71,5.66
		C297.62,296.4,295.16,298.85,292.12,298.91z"/>
</g>
<path d="M243.79,483.14c-63.52,0-123.23-24.74-168.15-69.65C30.73,368.57,5.99,308.86,5.99,245.34S30.73,122.11,75.64,77.19
	C120.56,32.28,180.27,7.54,243.79,7.54s123.23,24.73,168.15,69.65c44.91,44.91,69.65,104.63,69.65,168.15
	s-24.74,123.23-69.65,168.15C367.02,458.4,307.31,483.14,243.79,483.14z M243.79,15.54c-126.71,0-229.8,103.09-229.8,229.8
	s103.09,229.8,229.8,229.8s229.8-103.09,229.8-229.8S370.5,15.54,243.79,15.54z"/>
</svg>
