<?xml version="1.0" encoding="utf-8"?>
<!-- Generator: Adobe Illustrator 25.4.1, SVG Export Plug-In . SVG Version: 6.00 Build 0)  -->
<svg version="1.1" id="Capa_1" xmlns="http://www.w3.org/2000/svg" xmlns:xlink="http://www.w3.org/1999/xlink" x="0px" y="0px"
	 viewBox="0 0 487.58 490.68" style="enable-background:new 0 0 487.58 490.68;" xml:space="preserve">
<g>
	<path d="M360.05,251.46c4.57,0,8.56,0,12.92,0c0-1.9-0.04-3.62,0.01-5.33c0.13-4.99,2.46-7.36,7.53-7.37
		c16.55-0.05,33.1-0.05,49.65,0c4.99,0.02,7.36,2.45,7.38,7.52c0.06,11.84,0.02,23.68,0.02,35.52c0,25.7,0,51.4,0,77.09
		c0,7.09-1.97,9.02-9.15,9.02c-15.61,0.01-31.21,0.01-46.82,0c-6.54-0.01-8.59-2.1-8.61-8.74c-0.01-3.35,0-6.7,0-10.61
		c-7,0-13.8,0-20.6,0c-1.76,3.51-4.56,6.9-5.03,10.58c-0.64,5.02-1,9.85-4.17,14.01c-5.1,6.71-13.56,9.25-22.49,6.89
		c-1.14-0.3-2.8-0.56-3.58,0.02c-10.45,7.73-10.7,7.85-22.34,6.72c-6.43,11.71-12.52,14.78-25.93,12.84
		c-2.24,5.61-5.82,10.62-11.89,12.03c-4.64,1.08-9.71,0.24-14.59,0.36c-1.46,0.04-3.2-0.01-4.32,0.73
		c-3.7,2.44-7.16,5.24-10.73,7.88c-15.52,11.48-32.23,4.93-35.35-13.15c-5.18-1.03-10.59-1.03-14.84-3.25
		c-4.24-2.21-7.31-6.64-11.58-10.76c-14.64,1.55-23.21-4.37-25.26-18.9c-6.31-0.53-11.81-3.02-15.62-8.4
		c-3.73-5.27-4.43-11.1-2.55-17.45c-2.56,0-4.8,0-7.5,0c0,2.11,0.09,4.09-0.02,6.05c-0.21,4.06-2.58,6.61-6.62,6.64
		c-17.09,0.09-34.17,0.1-51.26,0c-4.35-0.03-6.63-2.71-6.66-7.4c-0.06-8.61-0.02-17.22-0.02-25.83c0-28.93,0-57.85,0-86.78
		c0-7.18,1.92-9.1,9.05-9.11c15.2-0.01,30.41,0,45.61,0c8.27,0,9.86,1.58,9.93,9.86c0.01,0.8,0,1.61,0,2.74c4.19,0,8.28,0,12.92,0
		c0-1.46,0-3.02,0-4.57c0-55.43,0-110.86,0-166.3c0-7.94,1.72-9.65,9.72-9.65c71.04,0,142.08,0,213.12,0c7.95,0,9.68,1.73,9.68,9.7
		c0,57.45,0,114.9,0,172.35C360.05,247.99,360.05,249.58,360.05,251.46z M238.02,254.37c5.67-4.25,10.92-8.22,16.21-12.13
		c6.82-5.04,14.37-8.77,22.86-9.28c11.12-0.66,22.3-0.6,33.45-0.65c13.06-0.06,24.45,4.42,34.15,13.17c0.63,0.57,1.36,1.02,2.14,1.6
		c0-56.77,0-113.19,0-169.49c-68.94,0-137.58,0-206.19,0c0,55.95,0,111.59,0,168.34c7.15-0.83,14.61-0.17,20.73-2.71
		c16.13-6.68,32.46-5.06,48.81-3.03C220.83,241.49,229.84,247.1,238.02,254.37z M307.59,370.62c-0.85-0.75-1.74-1.53-2.62-2.32
		c-16.71-15.02-33.42-30.04-50.12-45.06c-1.1-0.99-2.28-1.94-3.15-3.1c-2.04-2.72-1.95-5.59,0.31-8.1c2.25-2.5,5.07-2.96,8.03-1.23
		c1.15,0.67,2.13,1.63,3.13,2.53c19.49,17.54,38.96,35.1,58.44,52.63c3.01,2.71,8.02,2.68,10.68,0.02
		c2.79-2.79,2.56-7.33-0.57-10.42c-1.05-1.04-2.18-2-3.28-2.99c-18.45-16.5-36.89-33.01-55.37-49.48c-4-3.56-7.84-9.22-12.29-9.8
		c-4.46-0.58-9.46,4.34-14.46,6.19c-4.69,1.73-9.65,3.4-14.58,3.69c-9.05,0.53-16.57-5.05-19.23-13.06
		c-2.71-8.14,0.09-16.49,7.42-22.13c2.32-1.79,4.67-3.55,7.33-5.56c-6.3-5.47-13.24-9.03-21.09-9.86
		c-8.13-0.86-16.37-0.98-24.55-0.74c-4.32,0.12-8.59,1.7-12.88,2.61c-5.86,1.24-11.67,3.15-17.59,3.55
		c-8.84,0.61-17.75,0.16-26.63,0.16c-3.19,0-6.37,0-9.6,0c0,26.06,0,51.66,0,77.5c2.41,0,4.59-0.28,6.67,0.05
		c8.89,1.4,15.8-2.03,22.68-7.49c14.86-11.79,31.7-5.09,35.31,13.74c8.77,0.78,14.85,5.42,18.2,13.67
		c6.54-1.13,12.76-1.01,18.33,2.89c5.55,3.89,8,9.52,8.59,16.28c4.27,0,8.28,0,12.84,0c-5.72-4.91-11.14-9.5-16.49-14.17
		c-3.54-3.09-4.05-6.92-1.45-9.87c2.5-2.84,6.24-3,9.69-0.07c12.59,10.71,25.1,21.51,37.65,32.28c1.22,1.05,2.4,2.18,3.73,3.08
		c3.44,2.31,8.36,1.63,10.58-1.36c2.29-3.09,1.64-6.12-2.03-9.35c-12.93-11.37-25.89-22.71-38.8-34.1
		c-3.45-3.05-3.95-6.57-1.53-9.56c2.52-3.12,6.28-3.26,9.94-0.22c4.13,3.44,8.22,6.95,12.26,10.5c11.3,9.95,22.53,19.96,33.86,29.88
		C299.5,375.82,303.89,375.43,307.59,370.62z M372.8,264.57c-8.01,0-15.65-0.13-23.3,0.06c-3.87,0.1-6.55-1.21-8.86-4.37
		c-5.89-8.06-13.84-13.51-23.8-14.36c-10.68-0.92-21.48-0.55-32.22-0.69c-8.49-0.11-16.13,2.48-22.92,7.55
		c-7,5.23-13.97,10.49-20.96,15.74c-4.51,3.39-9.3,6.49-13.42,10.31c-1.63,1.51-2.6,4.7-2.39,6.99c0.28,3.06,3.07,4.77,6.22,4.53
		c2.74-0.2,5.64-0.6,8.1-1.71c6.36-2.87,12.52-6.19,18.76-9.32c5.44-2.73,6.92-2.51,11.45,1.65c13.87,12.72,27.75,25.45,41.63,38.17
		c9.11,8.34,18.23,16.67,27.48,25.13c0.52-0.81,1-1.32,1.19-1.92c1.78-5.55,5.68-7.1,11.24-6.8c7.2,0.38,14.43,0.09,21.8,0.09
		C372.8,311.81,372.8,288.47,372.8,264.57z M101.42,348.35c0-34.51,0-68.71,0-102.83c-12.96,0-25.65,0-38.27,0
		c0,34.43,0,68.53,0,102.83C75.94,348.35,88.53,348.35,101.42,348.35z M386.06,354.71c13,0,25.69,0,38.26,0c0-34.49,0-68.7,0-102.83
		c-12.91,0-25.5,0-38.26,0C386.06,286.2,386.06,320.31,386.06,354.71z M142.41,361.45c0.44-0.12,2.23-0.16,3.44-1.02
		c6.11-4.36,12.23-8.73,17.95-13.57c1.49-1.26,2.4-4.39,2.01-6.35c-0.35-1.78-2.64-4.05-4.43-4.45c-2.36-0.52-5.56-0.16-7.55,1.13
		c-5.85,3.77-11.31,8.14-16.85,12.36c-2.44,1.85-3.65,4.34-2.59,7.42C135.48,360.17,137.95,361.49,142.41,361.45z M213.65,413.1
		c0.38-0.11,2.16-0.19,3.37-1.06c6.11-4.37,12.27-8.71,17.95-13.6c1.5-1.29,2.35-4.83,1.69-6.71c-0.66-1.88-3.41-3.74-5.54-4.2
		c-2.06-0.45-4.89,0.32-6.72,1.55c-5.57,3.73-10.82,7.93-16.17,11.97c-2.59,1.95-3.93,4.46-2.76,7.71
		C206.62,411.96,209.15,413.2,213.65,413.1z M178.96,354.08c-0.27,0.21-0.54,0.42-0.81,0.64c-1.4,0.38-3.06,0.4-4.16,1.2
		c-6.22,4.46-12.51,8.87-18.31,13.84c-1.48,1.27-2.27,4.87-1.58,6.73c0.69,1.87,3.44,3.51,5.62,4.19c3.55,1.11,6.41-1.13,9.03-3.36
		c4.99-4.25,9.92-8.58,15.01-12.71c2.07-1.68,2.67-3.76,1.22-5.58C183.4,357.03,181,355.7,178.96,354.08z M185.57,394.41
		c2.66-0.8,4.43-0.89,5.65-1.76c6.11-4.38,12.28-8.74,17.96-13.64c1.48-1.28,2.28-4.86,1.59-6.72c-0.69-1.88-3.43-3.53-5.6-4.21
		c-3.55-1.12-6.42,1.11-9.03,3.33c-4.99,4.25-9.91,8.59-15,12.72c-2.06,1.67-2.71,3.73-1.25,5.57
		C181.46,391.68,183.85,393.03,185.57,394.41z M250.21,400.14c3.2-0.01,5.54-1.75,6.36-5.32c0.8-3.46-2.39-7.23-7.3-9.31
		C249.56,390.11,249.88,394.95,250.21,400.14z"/>
	<path d="M243.62,90.2c36.03,0.07,64.83,28.99,64.74,65.01c-0.08,35.36-29.17,64.15-64.81,64.15
		c-35.36-0.01-64.48-29.25-64.34-64.62C179.35,119.09,208.25,90.13,243.62,90.2z M243.83,103.11c-28.16-0.08-51.57,23.06-51.7,51.12
		c-0.14,28.78,22.91,52.17,51.43,52.19c28.55,0.03,51.77-22.94,51.89-51.32C295.56,126.42,272.5,103.19,243.83,103.11z"/>
	<path d="M236.99,165.76c11.56-11.66,22.98-23.17,34.51-34.79c3.01,3.08,5.81,5.95,8.87,9.08c-0.83,0.9-1.67,1.89-2.59,2.81
		c-11.3,11.32-22.61,22.63-33.92,33.93c-4.96,4.96-7.02,5.06-12.76,0.74c-7.72-5.8-15.45-11.59-23.46-17.6
		c2.63-3.49,5.1-6.77,7.74-10.27C222.63,155.05,229.59,160.24,236.99,165.76z"/>
</g>
</svg>
