<?xml version="1.0" encoding="utf-8"?>
<!-- Generator: Adobe Illustrator 25.4.1, SVG Export Plug-In . SVG Version: 6.00 Build 0)  -->
<svg version="1.1" id="Capa_1" xmlns="http://www.w3.org/2000/svg" xmlns:xlink="http://www.w3.org/1999/xlink" x="0px" y="0px"
	 viewBox="0 0 487.58 490.68" style="enable-background:new 0 0 487.58 490.68;" xml:space="preserve">
<g>
	<path d="M84.2,244.96c-0.07-24.13,1.4-48.1,7.59-71.56c7.43-28.19,21.73-51.53,47.47-66.7c16.25-9.58,34.04-14.78,52.55-17.29
		c39.55-5.36,79.09-5.64,118.31,2.75c23.9,5.11,45.31,15.24,61.77,34.05c13.5,15.42,20.88,33.76,25.36,53.46
		c5.96,26.24,6.59,52.89,5.93,79.62c-0.53,21.11-2.77,42-8.62,62.41c-11.97,41.72-39.8,66.39-81.43,76.48
		c-27.16,6.59-54.78,7.39-82.51,6.74c-22.25-0.52-44.25-2.85-65.65-9.45c-35.94-11.07-59.64-34.41-70.94-70.3
		c-7.42-23.55-9.51-47.83-9.81-72.35C84.18,250.2,84.2,247.58,84.2,244.96z M108.11,245.33c-0.06,21.49,1.22,42.84,6.21,63.85
		c7.87,33.15,27.32,55.22,60.68,64.35c15.11,4.13,30.5,6.29,46.08,7.01c27.83,1.29,55.61,1.2,83-4.87
		c16.37-3.63,31.72-9.61,44.33-21.16c14.5-13.29,21.48-30.56,25.64-49.24c5.29-23.8,5.75-47.96,5.2-72.18
		c-0.46-19.99-2.33-39.81-8.28-59.03c-5.16-16.68-13.53-31.32-27.79-41.98c-13.93-10.41-29.99-15.65-46.87-18.31
		c-36.48-5.76-73.01-5.77-109.4,0.83c-15.57,2.82-30.31,8.12-43.08,17.88c-15.6,11.92-23.91,28.37-28.83,46.85
		C109.26,200.96,108.08,223.09,108.11,245.33z"/>
	<path d="M225.04,266.87c2.27-2.51,4.1-4.72,6.12-6.74c19.9-19.94,39.84-39.84,59.72-59.8c3.17-3.18,6.67-5.15,11.3-4.52
		c9.18,1.25,13.52,11.69,7.89,19.06c-0.83,1.08-1.83,2.04-2.8,3.01c-23.97,23.98-47.94,47.95-71.92,71.92
		c-7.56,7.55-13.51,7.52-21.11-0.08c-11.81-11.81-23.68-23.56-35.41-35.45c-6.93-7.02-4.03-18.09,5.24-20.38
		c4.64-1.15,8.56,0.35,11.88,3.7C205.42,247.15,214.92,256.69,225.04,266.87z"/>
</g>
</svg>
