<?xml version="1.0" encoding="utf-8"?>
<!-- Generator: Adobe Illustrator 25.4.1, SVG Export Plug-In . SVG Version: 6.00 Build 0)  -->
<svg version="1.1" id="Capa_1" xmlns="http://www.w3.org/2000/svg" xmlns:xlink="http://www.w3.org/1999/xlink" x="0px" y="0px"
	 viewBox="0 0 487.58 490.68" style="enable-background:new 0 0 487.58 490.68;" xml:space="preserve">
<g>
	<path d="M239.34,176.33c0-3.16,0-5.91,0-8.83c2.95,0,5.7,0,8.77,0c0,2.73,0,5.55,0,8.82c5.24-0.32,10.1-0.05,13.94,3.75
		c3.87,3.82,4.39,8.6,3.94,14.03c1.5,0,2.76-0.03,4.02,0.01c3.29,0.1,4.96,1.72,4.99,5.02c0.06,5.65,0.02,11.29,0.02,17.27
		c3.43,0,6.65,0,9.87,0c6.6,0,13.19-0.01,19.79,0c4.57,0.01,6.02,1.43,6.02,5.96c0.01,19.69,0.03,39.38-0.04,59.07
		c-0.01,1.92,0.62,2.96,2.23,3.94c15.33,9.38,28.18,21.44,38.7,36.01c0.69,0.95,2.09,1.94,3.18,1.97c7.22,0.18,12.76,3.17,16.2,9.52
		c3.39,6.27,2.86,12.49-1.04,18.44c-0.15,0.23-0.29,0.47-0.63,1.02c11.95,6.16,13.87,16.78,12.5,28.93c-2.75,0-5.5,0-8.66,0
		c0-2.64,0.01-5.29,0-7.94c-0.05-8.55-5.61-14.16-14.1-14.21c-2.79-0.02-5.58-0.05-8.36,0.01c-7.32,0.18-13.01,5.84-13.2,13.14
		c-0.07,2.95-0.01,5.9-0.01,9c-3,0-5.75,0-8.93,0c0-2.6,0.01-5.25,0-7.91c-0.05-8.68-5.63-14.21-14.35-14.24
		c-2.42-0.01-4.83-0.02-7.25,0c-8.36,0.06-14.01,5.66-14.07,13.96c-0.02,2.67,0,5.35,0,8.18c-2.97,0-5.72,0-8.92,0
		c0-2.57,0.01-5.22,0-7.87c-0.05-8.69-5.61-14.23-14.33-14.27c-2.69-0.01-5.39-0.05-8.08,0.01c-7.45,0.17-13.11,5.89-13.25,13.37
		c-0.05,2.86-0.01,5.72-0.01,8.75c-3.03,0-5.84,0-8.93,0c0-2.87,0.03-5.63-0.01-8.39c-0.1-7.99-5.76-13.64-13.74-13.73
		c-2.88-0.03-5.76-0.05-8.64,0.01c-7.46,0.16-13.13,5.86-13.28,13.34c-0.06,2.86-0.01,5.73-0.01,8.77c-3.01,0-5.82,0-8.93,0
		c0-2.84,0.03-5.6-0.01-8.36c-0.1-8-5.74-13.66-13.72-13.75c-2.88-0.03-5.76-0.05-8.64,0.01c-7.47,0.16-13.15,5.84-13.3,13.32
		c-0.06,2.87-0.01,5.73-0.01,8.78c-2.99,0-5.81,0-8.93,0c0-2.81,0.03-5.57-0.01-8.33c-0.09-8.01-5.73-13.68-13.69-13.78
		c-2.97-0.04-5.95-0.07-8.92,0.02c-7.17,0.2-12.83,5.85-13.04,13c-0.09,2.96-0.01,5.92-0.01,9.08c-2.98,0-5.79,0-8.69,0
		c-1.25-11.92,0.43-22.53,12.54-28.85c-3.06-4.44-4.61-9.14-3.51-14.45c1.64-7.87,7.73-13.57,15.7-14.36
		c1.69-0.17,2.61-0.84,3.53-2.13c10.94-15.33,24.54-27.8,40.78-37.35c1.58-0.93,2.13-1.9,2.12-3.71
		c-0.07-19.23-0.04-38.45-0.04-57.68c0-4.95,1.33-6.29,6.25-6.29c9.66-0.01,19.32,0,29.43,0c0-3.09,0-6.11,0-9.13
		c0-2.42-0.01-4.83,0-7.25c0.02-4.42,1.46-5.88,5.78-5.92c0.92-0.01,1.84,0,3.15,0c-0.22-5.07-0.02-9.94,3.79-13.79
		C229.13,176.43,233.91,175.95,239.34,176.33z M207.27,352.01c-6.78-9.59-3.04-19.3,2.38-24.08c6.66-5.86,16.4-6.02,23.25-0.34
		c7.25,6,8.29,15.35,2.82,24.43c2.77,2.28,5.53,4.55,8.04,6.62c2.75-2.23,5.44-4.42,8.14-6.61c-5.48-8.64-4.64-17.76,2.22-23.96
		c6.51-5.88,16.12-6.2,23.02-0.76c7.52,5.93,8.67,14.95,3.24,24.77c2.72,2.24,5.41,4.45,8,6.58c2.63-2.15,5.33-4.36,8.05-6.59
		c-5.33-9.37-4.43-18.19,2.57-24.25c6.49-5.61,15.81-5.88,22.59-0.63c3.36,2.6,5.47,5.98,6.47,10.11c1.32,5.5-0.17,10.39-3.14,14.72
		c2.85,2.34,5.54,4.55,8.06,6.62c2.69-2.2,5.4-4.4,8.16-6.66c-2.78-3.77-4.17-8.12-3.53-12.95c0.65-4.89,3.11-8.84,7.42-12.34
		c-5.33-5.92-10.54-11.58-15.58-17.38c-2.18-2.5-4.43-3.53-7.71-2.29c-1.88,0.71-3.97,0.95-5.99,1.24
		c-4.86,0.69-9.71,3.07-14.64,0.29c-5.23-2.96-9.9-2.22-14.24,1.9c-1.26,1.2-2.85,2.09-4.41,2.9c-1.11,0.58-2.41,1.07-3.63,1.1
		c-5.48,0.12-10.96,0.02-16.44,0.07c-2.16,0.02-3.71-0.84-4.88-2.63c-2.7-4.12-5.44-8.2-8.18-12.29c-1.6-2.37-1.35-4.51,0.66-6.51
		c2.37-2.36,4.82-4.64,7.06-7.12c1.83-2.03,3.92-2.82,6.64-2.73c5.05,0.16,5.85-0.52,7.71-5.53c-21.68-5.02-43.12-4.42-64.58,2.02
		c2.01,2.38,4.07,4.23,5.36,6.52c1.3,2.3,1.81,5.04,2.68,7.59c3.27,9.64,3.5,8.34-5.01,14.67c-6.32,4.7-12.85,7.08-20.62,6
		c-2.08-0.29-4.52-0.01-6.18-1.01c-5.01-3.01-10.27-3.88-15.96-3.49c-3.24,0.23-6.5-0.02-9.75,0.08c-0.93,0.03-2.14,0.28-2.71,0.9
		c-4.44,4.83-8.76,9.77-13.1,14.67c9.87,9.37,10.97,15.6,5.08,26.43c2.72,2.24,5.41,4.46,7.99,6.57c2.64-2.16,5.34-4.37,8.06-6.6
		c-5.32-9.2-4.49-17.95,2.36-24.07c6.47-5.77,15.95-6.11,22.8-0.79c3.28,2.54,5.38,5.84,6.4,9.85c1.42,5.58-0.05,10.57-3.08,14.97
		c2.86,2.35,5.55,4.56,8.06,6.63C201.79,356.49,204.43,354.34,207.27,352.01z M265.89,267.43c0-21.5,0-42.88,0-64.18
		c-14.9,0-29.6,0-44.17,0c0,21.41,0,42.6,0,63.91c2.99-0.4,5.73-0.76,8.69-1.15c0-4,0-7.88,0-11.77c0-5.45,1.2-6.62,6.75-6.62
		c4.64,0,9.28-0.01,13.93,0c4.7,0.01,6.08,1.4,6.08,6.17c0.01,4.14,0,8.27,0,12.45C260.31,266.66,263.05,267.04,265.89,267.43z
		 M275.14,268.89c8.91,3.26,17.66,6.46,26.42,9.66c0-17.62,0-35.37,0-53.09c-8.91,0-17.6,0-26.42,0
		C275.14,240.14,275.14,254.68,275.14,268.89z M185.95,277.98c0.84-0.33,1.42-0.59,2.02-0.8c7.44-2.58,14.84-5.25,22.34-7.64
		c1.78-0.57,2.31-1.19,2.3-2.98c-0.07-13-0.03-26-0.05-39.01c0-0.7-0.13-1.41-0.19-2.1c-8.9,0-17.59,0-26.42,0
		C185.95,242.92,185.95,260.25,185.95,277.98z M316.69,298.69c-9.26-6.86-19.01-12.12-29.45-16.14c-6.25-2.4-6.24-2.44-9.86,3
		c-0.26,0.39-0.57,0.75-0.76,1.17c-2.02,4.49-5.46,6.34-10.31,5.49c-3.84-0.67-5.1,2.73-7.33,4.61c-0.19,0.16-0.24,0.77-0.09,1.01
		c1.62,2.49,3.02,5.21,5.08,7.28c0.87,0.88,3.15,0.28,4.77,0.51c6.53,0.94,12.29-0.75,17.13-5.21c4.21-3.88,8.7-4.39,13.7-1.72
		C305.08,301.61,310.65,300.72,316.69,298.69z M165.99,300.18c0.13,0.32,0.27,0.63,0.4,0.95c2.28,0,4.57,0.13,6.83-0.03
		c3.27-0.24,6.32,0.32,8.99,2.21c4.68,3.3,9.98,2.09,15.09,2.24c0.5,0.01,1.06-0.32,1.51-0.61c2.33-1.52,4.72-2.98,6.91-4.69
		c0.63-0.49,1.05-1.82,0.9-2.65c-0.94-5.55-3.98-9.89-8.37-13.28c-0.69-0.53-2.06-0.83-2.82-0.52c-3.44,1.38-6.91,2.78-10.11,4.62
		C178.79,292.18,172.42,296.24,165.99,300.18z M132.24,350.17c4.84,0.03,8.9-3.96,8.96-8.79c0.06-4.84-3.89-8.93-8.72-9.03
		c-4.96-0.1-9.11,3.97-9.1,8.93C123.39,346.12,127.4,350.15,132.24,350.17z M185.8,341.25c-0.01-4.84-4.02-8.86-8.86-8.89
		c-4.86-0.03-8.9,3.93-8.96,8.78c-0.06,4.95,4.05,9.08,8.99,9.04C181.81,350.13,185.81,346.08,185.8,341.25z M221.46,350.17
		c4.84,0.01,8.89-3.98,8.93-8.82c0.05-4.84-3.91-8.92-8.75-9c-4.97-0.09-9.1,3.98-9.07,8.95
		C212.6,346.14,216.63,350.16,221.46,350.17z M266.07,332.35c-4.84,0.01-8.86,4.02-8.89,8.86c-0.02,4.84,3.96,8.9,8.79,8.96
		c4.95,0.06,9.08-4.05,9.03-9C274.95,336.34,270.91,332.34,266.07,332.35z M319.6,341.23c-0.02-4.84-4.03-8.86-8.87-8.88
		c-4.85-0.02-8.89,3.95-8.95,8.8c-0.06,4.95,4.06,9.07,9.01,9.02C315.62,350.12,319.61,346.07,319.6,341.23z M355.37,350.17
		c4.83-0.04,8.83-4.09,8.83-8.93c-0.01-4.84-4.02-8.86-8.86-8.89c-4.96-0.03-9.04,4.09-8.96,9.06
		C346.46,346.24,350.54,350.22,355.37,350.17z M257.16,194c0-1.57,0.05-2.86-0.01-4.15c-0.15-2.92-1.8-4.61-4.77-4.65
		c-5.74-0.07-11.49-0.07-17.23,0c-2.95,0.04-4.59,1.75-4.73,4.69c-0.06,1.35-0.01,2.7-0.01,4.11C239.46,194,248.14,194,257.16,194z
		 M248.25,256.76c-3.2,0-6.02,0-8.78,0c0,2.98,0,5.73,0,8.58c2.96,0,5.77,0,8.78,0c0-0.99,0-1.81,0-2.63
		C248.25,260.77,248.25,258.83,248.25,256.76z"/>
	<path d="M349.11,138.55c-0.69,4.24-1.05,9.38-2.4,14.25c-3.45,12.42-12.41,18.64-24.7,20.64c-7.78,1.26-15.54,0.8-23.28-0.55
		c-2.46-0.43-4.01-1.73-4.49-4.26c-1.8-9.6-2.16-19.19,0.52-28.69c3.43-12.17,12.68-19.48,26.22-21.13
		c7.18-0.87,14.27-0.51,21.35,0.68c3.5,0.59,4.68,1.7,5.16,5.18C348.08,128.98,348.51,133.32,349.11,138.55z M339.4,135.48
		c-10.86,9.78-21.55,19.4-32.48,29.23C329.74,167.31,341.31,158.12,339.4,135.48z M334.89,127.52c-6.98-0.6-13.04-0.4-18.94,1.51
		c-3.88,1.26-7.29,3.35-9.58,6.81c-4.17,6.31-4.71,13.42-4.53,21.4C312.98,147.23,323.62,137.66,334.89,127.52z"/>
	<path d="M142.74,137.94c3.9,0.46,7.81,0.65,11.61,1.43c13.99,2.87,21.83,11.16,24.13,25.27c1.3,7.97,0.9,15.92-0.56,23.83
		c-0.41,2.21-1.6,3.71-3.92,4.15c-10.16,1.96-20.31,2.37-30.29-0.85c-12.45-4.02-18.48-13.4-19.64-25.79
		c-0.66-7.03,0.1-14.23,0.55-21.33c0.23-3.54,1.62-4.7,5.1-5.18C134.04,138.87,138.38,138.45,142.74,137.94z M137.41,147.64
		c11.03,9.93,21.72,19.53,32.71,29.42C171.29,154.95,161.7,145.2,137.41,147.64z M132.36,155.09c0,2.67-0.14,4.52,0.02,6.35
		c0.65,7.45,1.96,14.75,8.81,19.26c7.18,4.72,15.3,4.74,24.31,4.26C154.22,174.78,143.56,165.19,132.36,155.09z"/>
	<path d="M177.69,143.87c-1.99-2.19-3.9-4.3-5.8-6.39c32.42-31.08,85-36.77,122.97-14.89c-1.31,2.42-2.63,4.84-4.11,7.56
		c-18.44-9.7-37.97-13.64-58.61-11.16C211.45,121.48,193.37,129.88,177.69,143.87z"/>
	<path d="M324.82,286.09c-2.25-1.94-4.34-3.74-6.62-5.7c12.1-14.37,19.69-30.66,22.53-49.05c2.83-18.3,0.55-36.03-6.6-53.31
		c2.73-1.17,5.27-2.26,7.82-3.35C356.37,204.33,354.82,252.17,324.82,286.09z"/>
	<path d="M165.93,276.12c-2.46,1.88-4.66,3.56-6.83,5.22c-16.45-16.24-27-58.89-20.56-83.45c2.72,0.46,5.49,0.92,8.56,1.43
		c-2.24,13.74-1.88,27.18,1.36,40.49C151.69,253.03,157.53,265.03,165.93,276.12z"/>
	<path d="M230.6,212.06c8.9,0,17.58,0,26.42,0c0,2.87,0,5.61,0,8.58c-8.71,0-17.47,0-26.42,0C230.6,217.9,230.6,215.09,230.6,212.06
		z"/>
	<path d="M230.53,238.5c0-2.94,0-5.69,0-8.58c8.81,0,17.5,0,26.41,0c0,2.75,0,5.57,0,8.58C248.27,238.5,239.51,238.5,230.53,238.5z"
		/>
	<path d="M292.74,234.37c0,2.94,0,5.68,0,8.61c-2.88,0-5.69,0-8.66,0c0-2.85,0-5.66,0-8.61
		C286.95,234.37,289.69,234.37,292.74,234.37z"/>
	<path d="M284.03,260.78c0-2.89,0-5.63,0-8.54c2.91,0,5.72,0,8.67,0c0,2.83,0,5.58,0,8.54
		C289.94,260.78,287.13,260.78,284.03,260.78z"/>
	<path d="M203.48,243.02c-2.84,0-5.58,0-8.54,0c0-2.78,0-5.59,0-8.59c2.76,0,5.57,0,8.54,0
		C203.48,237.26,203.48,240.07,203.48,243.02z"/>
	<path d="M203.52,252.22c0,2.89,0,5.63,0,8.57c-2.82,0-5.63,0-8.62,0c0-2.8,0-5.61,0-8.57
		C197.71,252.22,200.45,252.22,203.52,252.22z"/>
</g>
<path d="M243.79,483.14c-63.52,0-123.23-24.74-168.15-69.65C30.73,368.57,5.99,308.86,5.99,245.34S30.73,122.11,75.64,77.19
	C120.56,32.28,180.27,7.54,243.79,7.54s123.23,24.73,168.15,69.65c44.91,44.91,69.65,104.63,69.65,168.15
	s-24.74,123.23-69.65,168.15C367.02,458.4,307.31,483.14,243.79,483.14z M243.79,15.54c-126.71,0-229.8,103.09-229.8,229.8
	s103.09,229.8,229.8,229.8s229.8-103.09,229.8-229.8S370.5,15.54,243.79,15.54z"/>
</svg>
