<?xml version="1.0" encoding="utf-8"?>
<!-- Generator: Adobe Illustrator 25.4.1, SVG Export Plug-In . SVG Version: 6.00 Build 0)  -->
<svg version="1.1" id="Capa_1" xmlns="http://www.w3.org/2000/svg" xmlns:xlink="http://www.w3.org/1999/xlink" x="0px" y="0px"
	 viewBox="0 0 487.58 490.68" style="enable-background:new 0 0 487.58 490.68;" xml:space="preserve">
<g>
	<path d="M292,294.25c-1.1-6.73-2.18-13.3-3.26-19.88c-0.1-0.64-0.28-1.28-0.3-1.92c-0.09-2.56,1.65-4.57,4.07-4.78
		c2.37-0.2,4.32,1.38,4.79,4.08c1.16,6.67,2.25,13.36,3.37,20.04c0.14,0.81,0.32,1.62,0.5,2.48c3.18,0,6.21,0,9.54,0
		c0-2.78-0.04-5.45,0.01-8.11c0.06-3.47,1.68-5.05,5.16-5.14c0.28-0.01,0.56,0.02,0.84-0.01c6.66-0.7,13.62,1.79,19.92-2.77
		c5.47-3.96,11.6-7.01,17.13-10.89c5.22-3.67,10.46-5.75,16.55-2.65c4.59,2.33,7.19,6.26,7.24,11.4
		c0.14,14.86,0.05,29.73,0.07,44.59c0,2.19-0.98,3.64-2.89,4.68c-0.67,0.37-1.5,1.25-1.5,1.91c-0.09,12.71-0.07,25.42-0.07,38.33
		c1.52,0.09,2.86,0.17,4.32,0.26c0,2.89,0,5.64,0,8.6c-89.05,0-178.09,0-267.32,0c0-2.8,0-5.62,0-8.63c1.34,0,2.61,0,4.08,0
		c0-10.36,0-20.54,0-31.14c-4.17-0.65-4.32-3.88-4.3-7.48c0.09-16.44,0.09-32.89,0.01-49.33c-0.03-5.93,2.12-10.53,7.47-13.26
		c5.4-2.76,10.35-1.32,15.19,1.83c7.31,4.75,14.73,9.31,22.16,13.88c0.8,0.49,1.92,0.64,2.9,0.65c4.64,0.07,9.29,0,13.94,0.04
		c3.64,0.03,5.22,1.65,5.28,5.3c0.04,2.51,0.05,5.01,0.08,7.52c0,0.08,0.09,0.15,0.24,0.39c2.92,0,5.94,0,9.28,0
		c0.88-5.23,1.77-10.51,2.66-15.78c0.37-2.2,0.71-4.4,1.12-6.59c0.55-2.94,2.71-4.62,5.24-4.15c2.56,0.48,4.03,2.77,3.55,5.71
		c-0.96,5.86-1.98,11.71-2.96,17.57c-0.17,1-0.27,2.01-0.43,3.22c4.37,0,8.59,0,13.03,0c1.08-7.41,2.18-14.82,3.25-22.25
		c0.7-4.88,3.27-8.38,7.67-10.57c0.08-0.04,0.17-0.09,0.25-0.13c15.07-7.72,15.07-7.72,32.38-7c0.37,0.02,0.81-0.08,1.1,0.08
		c6.27,3.34,12.75,6.36,18.71,10.19c3.35,2.16,3.56,6.51,4.08,10.32c0.88,6.43,1.82,12.86,2.75,19.41
		C283.25,294.25,287.48,294.25,292,294.25z M190.47,321.27c0,14.92,0,29.63,0,44.35c13.18,0,26.15,0,39.34,0
		c-1.05-8.32-2.26-16.47-3.03-24.67c-0.3-3.22-1.45-5.58-3.84-7.6c-3.68-3.12-6.04-6.98-5.98-12.08
		C208.08,321.27,199.38,321.27,190.47,321.27z M297.22,321.36c-9.04,0-17.81,0-26.61,0c-0.02,4.66-1.95,8.19-5.11,11.24
		c-1.57,1.51-3.77,3.19-4.08,5.05c-1.49,9.23-2.45,18.54-3.6,27.94c13.21,0,26.25,0,39.4,0
		C297.22,350.78,297.22,336.14,297.22,321.36z M172.57,312.04c47.62,0,95.03,0,142.38,0c0-3.01,0-5.83,0-8.59
		c-47.57,0-94.91,0-142.38,0C172.57,306.34,172.57,309.09,172.57,312.04z M167.87,289.93c-3.44,0-6.6-0.15-9.74,0.04
		c-3.3,0.2-6.11-0.66-8.89-2.47c-7.37-4.81-14.88-9.41-22.34-14.1c-1.8-1.13-3.94-2.18-5.64-0.59c-1.24,1.16-2.25,3.24-2.26,4.93
		c-0.17,15.6-0.07,31.21-0.15,46.82c-0.01,1.84,0.62,2.55,2.3,3.08c6.28,1.99,12.44,4.35,18.77,6.16c3.66,1.05,5.49,3.04,6.43,6.71
		c2.16,8.43,4.73,16.76,7.13,25.12c2.85,0,5.51,0,8.34,0c-0.23-0.94-0.39-1.75-0.63-2.54c-3.19-10.66-6.32-21.34-9.66-31.95
		c-0.47-1.49-1.72-3.06-3.05-3.9c-5.79-3.7-11.72-7.17-17.63-10.66c-1.92-1.13-3.05-2.59-3.04-4.91c0.04-7.06-0.04-14.12,0.03-21.18
		c0.04-4.11,3.15-6.07,6.84-4.32c4.94,2.35,9.8,4.86,14.71,7.29c0.66,0.33,1.35,0.84,2.03,0.85c5.45,0.07,10.9,0.04,16.45,0.04
		C167.87,292.8,167.87,291.54,167.87,289.93z M344.38,365.4c0.17-0.08,0.35-0.15,0.52-0.23c-0.17-0.8-0.33-1.61-0.52-2.4
		c-2.14-8.64-4.29-17.27-6.43-25.91c-0.97-3.94-0.28-5.32,3.48-6.94c8.34-3.6,16.68-7.2,25.06-10.71c1.55-0.65,2.28-1.35,2.26-3.19
		c-0.09-12.81-0.06-25.62-0.03-38.43c0-2.09-0.34-4.27-2.45-4.81c-1.67-0.43-3.79-0.07-5.42,0.63c-1.82,0.78-3.23,2.46-4.96,3.52
		c-6.25,3.83-12.5,7.66-18.88,11.26c-1.76,0.99-3.95,1.52-5.98,1.66c-3.75,0.26-7.53,0.07-11.39,0.07c0,1.06,0,1.7,0,2.35
		c0,0.62,0,1.24,0,2.06c8.89-0.05,17.66,1.4,25.43-4.19c2.23-1.6,4.92-2.57,7.43-3.78c4.2-2.02,7.23-0.16,7.28,4.47
		c0.05,5.01-0.15,10.03,0.07,15.04c0.14,3.21-1.16,5.16-3.8,6.78c-9.34,5.71-18.59,11.55-27.88,17.36
		c-0.83,0.52-1.63,1.09-2.51,1.68C331.98,343.09,338.18,354.25,344.38,365.4z M262.37,321.31c-12.78,0-24.53,0-36.98,0
		c0.91,1.65,1.42,3.02,2.3,4.08c1.36,1.63,3.2,2.9,4.43,4.61c1.23,1.72,2.52,3.72,2.82,5.73c1.47,9.9,2.62,19.84,3.9,29.88
		c3.36,0,6.57,0,9.96,0c0.95-7.64,2.19-15.15,2.75-22.72c0.5-6.85,2.04-12.87,7.97-17.14C260.7,324.91,261.23,323.15,262.37,321.31z
		 M225.96,294.3c0-5.7-0.02-11.16,0.01-16.62c0.02-4.01,1.56-5.57,5.55-5.58c7.8-0.02,15.6-0.01,23.4-0.01
		c5.53,0,6.73,1.18,6.73,6.65c0,5.16,0,10.32,0,15.51c2.93,0,5.5,0,8.21,0c-0.99-6.95-1.8-13.77-3.04-20.51
		c-0.3-1.64-1.71-3.5-3.15-4.44c-7.13-4.67-14.87-7.4-23.59-6.14c-0.91,0.13-1.86-0.05-2.78,0.04c-0.81,0.08-1.67,0.19-2.39,0.53
		c-3.76,1.81-7.53,3.61-11.18,5.63c-1.12,0.62-2.46,1.83-2.65,2.95c-1.27,7.25-2.25,14.56-3.35,21.99
		C220.58,294.3,223.07,294.3,225.96,294.3z M136.75,296.63c0,4.38-0.13,7.73,0.08,11.06c0.07,1.05,0.82,2.43,1.68,2.98
		c5.41,3.42,10.89,6.75,16.46,9.9c2.45,1.38,3.89,3.21,4.6,5.9c1.03,3.94,2.31,7.82,3.49,11.73c0.08-0.04,0.16-0.08,0.24-0.11
		c0-11.55,0-23.11,0-35.09C153.74,304.5,145,302.92,136.75,296.63z M364.08,365.65c0-11.99,0-23.7,0-35.75
		c-5.34,2.29-10.44,4.43-15.47,6.72c-0.55,0.25-1.13,1.47-0.98,2.08c2.16,8.98,4.44,17.94,6.71,26.95
		C357.62,365.65,360.74,365.65,364.08,365.65z M144.19,365.66c-2.17-7.56-4.21-14.77-6.33-21.94c-0.18-0.6-0.77-1.32-1.34-1.52
		c-4.25-1.51-8.55-2.91-12.94-4.37c0,9.45,0,18.64,0,27.84C130.47,365.66,137.13,365.66,144.19,365.66z M181.16,365.63
		c0-14.94,0-29.63,0-44.24c-3.02,0-5.84,0-8.58,0c0,14.86,0,29.49,0,44.24C175.48,365.63,178.23,365.63,181.16,365.63z
		 M314.97,365.63c0-14.94,0-29.63,0-44.24c-3.02,0-5.84,0-8.58,0c0,14.86,0,29.49,0,44.24
		C309.29,365.63,312.04,365.63,314.97,365.63z M324.19,321.96c8.86-5.52,17.33-10.8,25.78-16.12c0.4-0.25,0.82-0.84,0.83-1.28
		c0.08-2.33,0.04-4.67,0.04-7.97c-8.32,6.59-17.23,7.73-26.65,6.51C324.19,309.59,324.19,315.5,324.19,321.96z M252.6,281.21
		c-6.01,0-11.79,0-17.49,0c0,4.5,0,8.8,0,13.04c5.94,0,11.66,0,17.49,0C252.6,289.87,252.6,285.64,252.6,281.21z M334.28,365.63
		c-3.33-5.99-6.48-11.66-9.63-17.33c-0.19,0.06-0.37,0.11-0.56,0.17c0,2.84,0,5.67,0,8.51c0,2.85,0,5.69,0,8.65
		C327.52,365.63,330.65,365.63,334.28,365.63z"/>
	<path d="M319.63,147.22c5.95,0,11.51-0.02,17.08,0c8.51,0.04,14.11,5.63,14.14,14.16c0.03,8.26-0.04,16.53,0.02,24.79
		c0.05,5.93-2.34,10.34-7.55,13.27c-0.68,0.38-1.3,1.5-1.32,2.3c-0.14,3.89-0.01,7.8-0.08,11.7c-0.07,4.54-3.63,6.5-7.43,4.01
		c-7.69-5.02-15.26-10.23-22.99-15.2c-1.37-0.88-3.2-1.35-4.85-1.45c-3.7-0.21-7.42-0.07-11.14-0.07c-8.98,0-12.57-2.38-16-10.8
		c-0.72,0.41-1.43,0.77-2.09,1.2c-4.18,2.77-8.35,5.54-12.51,8.33c-1.72,1.15-3.74,2.06-5.37,0.56c-1.2-1.1-2.12-3.03-2.26-4.67
		c-0.33-3.78-0.01-7.61-0.17-11.41c-0.04-0.86-0.75-2.04-1.5-2.47c-4.88-2.8-7.33-6.94-7.34-12.53c-0.02-8.63-0.05-17.27,0.01-25.9
		c0.05-7.94,5.79-13.63,13.79-13.66c14.39-0.05,28.79-0.03,43.18-0.01c8.86,0.01,14.35,5.55,14.39,14.47
		C319.64,144.87,319.63,145.88,319.63,147.22z M319.63,156.16c0,4.41,0.02,8.49,0,12.56c-0.05,8.54-5.62,14.13-14.14,14.18
		c-4.74,0.03-9.48-0.06-14.21,0.06c-0.94,0.03-2.4,0.57-2.71,1.27c-1.63,3.69,0.99,7.51,5.03,7.58c2.79,0.05,5.61,0.3,8.35-0.05
		c7.17-0.91,13.19,1.22,18.75,5.71c3.71,2.99,7.92,5.36,12.31,8.27c0-3.23-0.02-5.9,0.01-8.57c0.04-3.48,1.16-4.78,4.66-5.36
		c2.68-0.45,4.21-1.96,4.22-4.67c0.05-8.82,0.06-17.65-0.01-26.47c-0.02-2.67-1.74-4.43-4.36-4.48
		C331.7,156.08,325.85,156.16,319.63,156.16z M310.71,147.22c0-1.55,0.03-2.75-0.01-3.94c-0.11-3.27-1.75-4.96-5.05-4.96
		c-14.48-0.03-28.96-0.04-43.44,0c-3.3,0.01-4.99,1.7-5.01,4.98c-0.05,8.54-0.04,17.08,0,25.62c0.01,3.1,1.34,4.53,4.4,5.06
		c3.24,0.56,4.45,1.94,4.5,5.25c0.04,2.73,0.01,5.46,0.01,8.72c4.17-2.78,7.81-5.31,11.56-7.65c1.47-0.92,1.89-1.99,1.86-3.63
		c-0.09-5.1-0.05-10.21-0.03-15.31c0.04-8.48,5.67-14.08,14.18-14.12C299.22,147.2,304.78,147.22,310.71,147.22z M288.42,173.97
		c6.18,0,12.01,0.05,17.83-0.02c2.32-0.03,4.15-1.35,4.28-3.59c0.28-4.67,0.08-9.36,0.08-14.2c-6.1,0-11.93-0.07-17.75,0.03
		c-2.64,0.04-4.35,1.77-4.41,4.41C288.34,164.93,288.42,169.27,288.42,173.97z"/>
	<path d="M132.29,196.43c-9.08-1.35-13.37-6.27-13.38-15.08c-0.01-8.17-0.03-16.34,0.01-24.51c0.03-8.35,5.65-14.05,13.94-14.07
		c17.46-0.03,34.91-0.03,52.37,0c8.31,0.02,13.92,5.69,13.96,14.05c0.04,8.45,0.04,16.9,0,25.34c-0.03,8.49-5.66,14.06-14.2,14.1
		c-5.94,0.03-11.89-0.07-17.83,0.06c-1.38,0.03-2.94,0.47-4.09,1.22c-7.63,4.95-15.18,10.01-22.73,15.07
		c-1.77,1.19-3.55,2.1-5.67,0.91c-2.08-1.16-2.43-3.08-2.39-5.24C132.33,204.41,132.29,200.52,132.29,196.43z M141.21,201.19
		c1.18-0.73,1.97-1.17,2.72-1.67c5.34-3.54,10.61-7.18,16.03-10.59c1.4-0.88,3.24-1.45,4.89-1.49c6.68-0.17,13.38-0.05,20.06-0.08
		c3.67-0.02,5.33-1.63,5.35-5.23c0.04-8.36,0.03-16.72,0-25.08c-0.01-3.76-1.65-5.35-5.51-5.35c-17.19-0.02-34.37-0.02-51.56,0
		c-3.78,0-5.35,1.63-5.37,5.49c-0.03,7.24,0.13,14.49-0.05,21.73c-0.16,6.55,0.44,8.93,8.32,8.5c3.42-0.19,5.03,1.67,5.09,5.16
		C141.24,195.26,141.21,197.95,141.21,201.19z"/>
	<path d="M359.8,223.04c9.84,0,17.86,8.06,17.81,17.92c-0.04,9.84-8.12,17.81-17.99,17.75c-9.71-0.06-17.67-8.06-17.68-17.78
		C341.94,231.06,349.94,223.04,359.8,223.04z M359.72,249.78c4.86,0.03,8.9-3.92,8.96-8.78c0.07-4.97-4.01-9.06-9-9.03
		c-4.85,0.03-8.84,4.07-8.82,8.92C350.89,245.76,354.85,249.75,359.72,249.78z"/>
	<path d="M261.64,232c-0.02,9.84-8.11,17.86-17.95,17.79c-9.84-0.07-17.79-8.15-17.72-18.03c0.06-9.71,8.06-17.62,17.81-17.64
		C253.63,214.1,261.65,222.13,261.64,232z M252.71,231.81c-0.07-4.86-4.1-8.79-8.98-8.77c-4.85,0.02-8.85,4.05-8.83,8.9
		c0.01,4.99,4.14,9.02,9.11,8.91C248.86,240.75,252.78,236.68,252.71,231.81z"/>
	<path d="M128.24,223.04c9.8,0.17,17.62,8.4,17.42,18.31c-0.2,9.67-8.36,17.5-18.1,17.36c-9.83-0.14-17.7-8.29-17.57-18.18
		C110.12,230.73,118.32,222.87,128.24,223.04z M118.92,240.89c0.03,4.88,3.99,8.86,8.86,8.88c4.97,0.03,9.04-4.09,8.95-9.07
		c-0.09-4.86-4.12-8.78-9-8.74C122.88,232,118.89,236.04,118.92,240.89z"/>
	<path d="M181.23,165.21c0,2.89,0,5.64,0,8.58c-2.83,0-5.64,0-8.63,0c0-2.81,0-5.62,0-8.58
		C175.42,165.21,178.17,165.21,181.23,165.21z"/>
	<path d="M163.39,165.26c0,2.93,0,5.67,0,8.57c-2.86,0-5.6,0-8.58,0c0-2.74,0-5.55,0-8.57
		C157.54,165.26,160.34,165.26,163.39,165.26z"/>
	<path d="M145.55,165.21c0,2.89,0,5.63,0,8.57c-2.83,0-5.64,0-8.62,0c0-2.8,0-5.61,0-8.57
		C139.73,165.21,142.48,165.21,145.55,165.21z"/>
</g>
<path d="M243.79,483.14c-63.52,0-123.23-24.74-168.15-69.65C30.73,368.57,5.99,308.86,5.99,245.34S30.73,122.11,75.64,77.19
	C120.56,32.28,180.27,7.54,243.79,7.54s123.23,24.73,168.15,69.65c44.91,44.91,69.65,104.63,69.65,168.15
	s-24.74,123.23-69.65,168.15C367.02,458.4,307.31,483.14,243.79,483.14z M243.79,15.54c-126.71,0-229.8,103.09-229.8,229.8
	s103.09,229.8,229.8,229.8s229.8-103.09,229.8-229.8S370.5,15.54,243.79,15.54z"/>
</svg>
