<?xml version="1.0" encoding="utf-8"?>
<!-- Generator: Adobe Illustrator 25.4.1, SVG Export Plug-In . SVG Version: 6.00 Build 0)  -->
<svg version="1.1" id="Capa_1" xmlns="http://www.w3.org/2000/svg" xmlns:xlink="http://www.w3.org/1999/xlink" x="0px" y="0px"
	 viewBox="0 0 487.58 490.68" style="enable-background:new 0 0 487.58 490.68;" xml:space="preserve">
<g>
	<path d="M447.82,206.18c-2.06,7.92-7.37,13.56-13.02,19.08c-10.17,9.94-20.05,20.18-30.21,30.13c-13.01,12.74-32.8,9.77-40.36-6.18
		c-4.29-9.05-3.49-18.18,3.11-25.75c7.15-8.2,15.15-15.65,22.81-23.4c4.58-4.63,9.37-9.06,13.77-13.86
		c15.17-16.51,39.24-8.25,43.23,10.26c0.07,0.34,0.44,0.62,0.67,0.93C447.82,200.32,447.82,203.25,447.82,206.18z M391.44,216.09
		c-4.86,4.78-9.88,9.35-14.45,14.32c-4.6,5-4.3,12.16,0.22,16.98c4.38,4.66,11.77,5.72,16.56,1.42c5.37-4.81,9.99-10.46,14.84-15.65
		C403.14,227.72,397.32,221.93,391.44,216.09z M418.45,224.61c3.96-3.96,8.18-8.16,12.38-12.39c0.93-0.94,1.86-1.92,2.62-2.99
		c3.67-5.18,3.03-11.96-1.48-16.37c-4.32-4.22-11.54-5.18-16.02-1.17c-5.41,4.84-10.12,10.46-14.91,15.51
		C406.6,212.74,412.39,218.55,418.45,224.61z"/>
	<path d="M223.2,281.92c0-4.83,0-8.93,0-13.48c-1.79-0.08-3.46-0.27-5.12-0.21c-16.5,0.6-20.36-1.16-19.54-19.68
		c0.32-7.17,0.01-14.37,0.07-21.55c0.05-7.3,4.06-11.28,11.39-11.28c39.12-0.02,78.23-0.02,117.35,0c7.15,0,11.18,3.96,11.22,11.03
		c0.07,10.11,0.07,20.22,0,30.33c-0.05,6.89-3.94,10.89-10.82,11.09c-4.48,0.13-8.97,0.03-13.68,0.03c0,4.69,0,8.89,0,13.71
		c3.48,0,6.87-0.02,10.27,0c16.04,0.12,26.09,10.15,26.17,26.21c0.06,11.97,0.05,23.95-0.01,35.92c-0.02,4.58-2.53,7.17-6.39,6.83
		c-3.75-0.33-5.23-2.85-5.49-6.22c-0.19-2.37-0.04-4.76-0.04-7.46c-8.13,0-15.99,0-24.33,0c8.38,16.78,8.42,33.4-0.05,50.31
		c8.27,0,16.03,0,24.37,0c0-3.57-0.16-7.13,0.04-10.66c0.29-5.04,4.56-8.15,8.36-5.83c1.7,1.04,3.36,3.73,3.38,5.7
		c0.24,18.89,0.21,37.78,0.08,56.67c-0.03,5.35-4.17,9.5-9.46,10.09c-1.32,0.15-2.65,0.16-3.98,0.16
		c-45.63,0.01-91.27-0.01-136.9,0.04c-4.77,0.01-9.18-0.65-11.66-5.21c-1.03-1.89-1.69-4.24-1.7-6.38
		c-0.1-41.64-0.14-83.29-0.04-124.93c0.04-14.83,10.28-24.95,25.12-25.24C215.51,281.86,219.2,281.92,223.2,281.92z M301.66,268.18
		c-2.19,0-4.05,0.13-5.89-0.03c-4.15-0.36-6.42-2.72-6.25-6.28c0.17-3.39,2.44-5.47,6.48-5.59c4.25-0.13,8.51-0.04,12.77-0.04
		c5.82,0,11.64,0,17.61,0c0-9.73,0-18.96,0-28.34c-38.62,0-77,0-115.56,0c0,9.43,0,18.66,0,28.34c1.65,0,3.08,0,4.52,0
		c15.57,0,31.13-0.03,46.7,0.03c4.63,0.02,7.05,2.06,7.17,5.7c0.13,3.8-2.39,6.14-7.13,6.22c-7.45,0.12-14.9,0.03-22.35,0.05
		c-1.4,0-2.79,0.12-4.13,0.19c0,4.69,0,8.88,0,13.24c22.12,0,44,0,66.08,0C301.66,277.21,301.66,273.01,301.66,268.18z
		 M228.53,362.47c0.16,21.87,18.61,40.17,40.31,39.98c21.8-0.18,40.14-18.81,39.83-40.46c-0.31-21.75-18.54-39.84-40.11-39.8
		C246.79,322.24,228.37,340.77,228.53,362.47z M198.8,431.4c46.72,0,93.06,0,139.5,0c0-10.59,0-20.9,0-31.56
		c-10.99,0-21.73-0.07-32.48,0.1c-1.24,0.02-2.59,1.2-3.67,2.1c-17.52,14.66-41.83,17.06-60.73,4.18
		c-7.77-5.3-15.18-7.09-23.95-6.45c-3.44,0.25-6.91,0.04-10.37,0.04c-2.73,0-5.45,0-8.3,0C198.8,410.66,198.8,420.85,198.8,431.4z
		 M338.55,324.9c0-5.8,0.02-11.1,0-16.39c-0.04-9.98-4.65-14.59-14.67-14.6c-22.88-0.02-45.77-0.01-68.65-0.01
		c-14.5,0-29-0.04-43.51,0.03c-6.36,0.03-11.71,3.33-12.38,9.07c-0.83,7.12-0.2,14.42-0.2,21.9c10.68,0,21.18,0.06,31.67-0.08
		c1.28-0.02,2.73-0.94,3.78-1.82c20.34-17.01,47.62-17.01,68.01-0.01c1.06,0.88,2.5,1.81,3.78,1.83
		C316.87,324.96,327.36,324.9,338.55,324.9z M198.97,337.09c0,16.95,0,33.71,0,50.37c8.06,0,15.79,0,24.01,0
		c-8.48-16.95-8.31-33.55-0.01-50.37C214.65,337.09,206.89,337.09,198.97,337.09z"/>
	<path d="M125.87,257.38c-14.36,11.35-14.36,11.35-26.53,0.76c-1,0.94-2.06,1.87-3.05,2.86c-14.96,14.96-29.9,29.94-44.88,44.87
		c-1.3,1.29-2.77,3-4.36,3.25c-1.97,0.31-4.91-0.05-6.02-1.34c-1.25-1.44-1.43-4.32-1.13-6.43c0.21-1.45,1.94-2.76,3.15-3.97
		c14.92-14.99,29.88-29.95,44.82-44.93c0.92-0.92,1.8-1.89,2.82-2.96c-3.26-4.33-9.74-7.37-8.01-13.47
		c1.39-4.91,5.31-9.1,8.27-13.87c-5.44-7.19-5.14-10.89,2.05-18.09c28.96-28.99,57.91-57.99,86.89-86.96
		c1.02-1.02,2.26-1.83,4.28-3.43c-2.78-2.39-5.03-4.05-6.96-6.02c-4.63-4.72-4.67-10.5-0.14-15.2c4.15-4.31,8.38-8.56,12.69-12.71
		c5.18-4.99,10.63-5.01,15.81,0.04c6.56,6.4,12.97,12.96,19.13,19.14c6.33-6.31,12.48-12.45,19.01-18.95
		c-1.9-1.83-4.24-3.96-6.43-6.24c-4.62-4.8-4.66-10.44-0.11-15.21c2.66-2.79,5.35-5.57,8.19-8.18c4.76-4.38,10.33-4.56,14.94-0.02
		c12.9,12.69,25.67,25.5,38.35,38.41c4.17,4.24,3.97,9.92-0.11,14.32c-2.62,2.83-5.35,5.56-8.16,8.21
		c-5.25,4.94-10.52,4.88-15.81-0.15c-2.21-2.09-4.28-4.33-6.22-6.31c-6.38,6.35-12.48,12.42-19.05,18.96
		c4.64,4.57,9.44,9.28,14.23,14.01c2.08,2.06,4.2,4.08,6.17,6.24c3.82,4.18,3.92,9.94,0.06,14.02c-4.38,4.64-8.88,9.18-13.51,13.58
		c-4.9,4.65-10.29,4.58-15.23-0.06c-2.01-1.89-3.81-4.02-6.48-6.87c-1.27,1.77-2.05,3.22-3.17,4.34
		c-28.75,28.83-57.53,57.62-86.3,86.42C137.41,263.07,134.44,263.37,125.87,257.38z M161.62,221.53c-1.44-1.04-2.99-1.91-4.21-3.11
		c-4-3.9-4.55-7.59-1.7-10.3c2.86-2.73,6.15-2.22,10.01,1.74c1.26,1.29,2.19,2.91,2.88,3.85c3.11-2.91,5.3-4.96,7.59-7.1
		c-0.75-0.79-1.56-1.66-2.38-2.51c-0.83-0.86-1.74-1.65-2.52-2.55c-2.6-2.98-2.72-6.14-0.4-8.6c2.41-2.55,5.81-2.51,8.88,0.22
		c1.84,1.63,3.56,3.4,4.68,4.47c4.81-4.82,9.28-9.3,13.14-13.16c-11.1-11.06-22.54-22.47-33.51-33.41
		c-20.86,20.81-42.1,41.99-63.21,63.04c11.25,11.16,22.72,22.54,34,33.72c3.26-3.24,6.82-6.77,10.55-10.47
		c-0.58-0.63-1.36-1.5-2.17-2.35c-0.92-0.96-1.92-1.84-2.79-2.85c-2.42-2.82-2.46-6.34-0.17-8.62c2.28-2.27,5.92-2.31,8.57,0.28
		c1.78,1.74,3.11,3.93,4.57,5.83C156.47,226.63,158.53,224.59,161.62,221.53z M259.14,151.23c-20.66-20.61-41.32-41.22-61.31-61.16
		c-3.42,3.28-7.11,6.83-11.02,10.59c7.68,7.61,15.53,15.37,23.35,23.14c4.28,4.26,5.02,7.79,2.3,10.62
		c-2.83,2.94-6.41,2.2-10.88-2.3c-3.24-3.26-6.43-6.56-9.17-9.35c-6.59,6.57-12.76,12.72-18.6,18.54
		c11.13,11.16,22.54,22.6,33.58,33.66c5.95-5.95,12.12-12.12,18.35-18.35c-2.39-4.02-2.37-7.11,0.28-9.29
		c2.75-2.26,6.09-1.57,9.74,2.12c4.2,4.25,8.34,8.56,12.49,12.83C252.1,158.38,255.62,154.8,259.14,151.23z M247.28,65.44
		c12.11,12.05,24.02,23.91,35.55,35.39c1.68-1.4,3.8-3.15,5.22-4.33c-12.18-12.16-24.06-24.02-35.86-35.79
		C250.68,62.17,248.77,64.01,247.28,65.44z M239.74,113.87c6.47-6.45,12.6-12.57,18.48-18.43c-1.53-1.73-3.44-3.9-4.92-5.56
		c-6.39,6.36-12.55,12.5-18.76,18.69C236.28,110.35,238.3,112.41,239.74,113.87z M108.25,248.94c1.44,1.71,2.59,3.09,3.63,4.32
		c1.9-1.7,3.64-3.25,4.7-4.21c-1.2-1.81-2.23-3.35-3.06-4.61C111.44,246.21,109.76,247.66,108.25,248.94z M104.04,235.87
		c-1.22-1.43-2.4-2.8-3.28-3.83c-1.94,1.53-3.77,2.96-5.06,3.98c1.48,1.82,2.61,3.21,3.41,4.21
		C100.95,238.59,102.62,237.12,104.04,235.87z"/>
	<path d="M99.85,436.14c-8.9,0-17.81,0.22-26.71-0.06c-12.61-0.39-22.26-9.89-23.54-22.72c-1.14-11.41,6.87-22.67,18.41-25.61
		c2.55-0.65,5.25-0.92,7.89-0.94c16.21-0.08,32.43-0.16,48.64-0.01c18.75,0.18,30.63,16.35,24.65,33.29
		c-3.23,9.15-12.07,15.71-22.23,15.99C117.93,436.34,108.89,436.14,99.85,436.14z M106.31,424.17c7.03,0,13.67,0.14,20.3-0.04
		c6.64-0.18,11.8-5.4,12.16-11.93c0.35-6.35-3.97-12.37-10.47-12.95c-7.21-0.64-14.52-0.15-21.99-0.15
		C106.31,407.37,106.31,415.55,106.31,424.17z M93.93,399.19c-7.72,0-15.04-0.51-22.26,0.16c-6.12,0.56-10.29,6.35-10.22,12.37
		c0.07,5.95,4.62,11.82,10.5,12.23c7.23,0.5,14.52,0.12,21.98,0.12C93.93,415.63,93.93,407.45,93.93,399.19z"/>
	<path d="M346.02,192.69c-9.44,0-18.91,0.39-28.33-0.1c-12.87-0.66-22.57-11.53-22.53-24.43c0.05-12.91,9.82-23.92,22.7-24.24
		c18.61-0.46,37.26-0.45,55.87,0.02c12.73,0.32,22.67,11.63,22.59,24.39c-0.08,12.69-9.82,23.59-22.37,24.24
		c-9.29,0.48-18.62,0.09-27.93,0.09C346.02,192.68,346.02,192.68,346.02,192.69z M339.51,180.66c0-8.5,0-16.55,0-24.77
		c-7.65,0-15.09-0.44-22.45,0.14c-5.93,0.47-10.04,6.35-9.91,12.58c0.13,5.99,4.36,11.51,10.22,11.93
		C324.62,181.05,331.93,180.66,339.51,180.66z M351.98,155.9c0,8.46,0,16.52,0,24.71c7.63,0,15.06,0.44,22.41-0.14
		c5.73-0.45,9.96-6.31,9.96-12.21c0.01-5.9-4.22-11.78-9.94-12.22C367.07,155.47,359.64,155.9,351.98,155.9z"/>
	<path d="M396.47,274.82c17.23,0.01,31.49,14.35,31.39,31.56c-0.1,17.09-14.08,31.12-31.24,31.36
		c-16.97,0.23-31.49-14.19-31.62-31.4C364.86,289.21,379.25,274.81,396.47,274.82z M413.96,314.39c3.81-8.59,1.8-17.41-5.3-23.25
		c-6.1-5.01-14.75-5.82-20.1-2.09C396.93,297.41,405.35,305.81,413.96,314.39z M379.26,298.05c-4.91,7.86-1,18.52,4.61,23.01
		c6.46,5.18,15.5,6.21,20.57,2.14C396.11,314.89,387.78,306.57,379.26,298.05z"/>
	<path d="M147.41,374.55c-11.2,0.66-19.6-2.28-24.8-11.44c-8.06-14.21,0.91-31.6,17.16-33.32c6.75-0.71,13.58-1.11,20,1.72
		c9.38,4.15,14.76,14.22,13.11,24.06c-1.74,10.4-10.12,18.12-20.67,18.95C150.23,374.68,148.23,374.55,147.41,374.55z
		 M146.41,362.61c1.78,0,3.52,0.14,5.23-0.03c5.06-0.51,9.35-5.13,9.54-10.12c0.19-5.09-3.59-10.1-8.75-10.68
		c-4.04-0.46-8.26-0.57-12.27,0.04c-7.64,1.17-10.96,9.99-6.48,16.31C136.89,362.67,141.55,363,146.41,362.61z"/>
	<path d="M67.65,321.4c0-5.53,1.7-10.49,5.39-14.6c2.75-3.05,5.63-6.04,8.75-8.7c8.79-7.47,21.88-6.89,30.08,1.15
		c8.23,8.07,9.16,21.08,1.77,30.04c-4.63,5.61-9.39,11.25-16.81,13.52C82.22,347.29,67.66,336.63,67.65,321.4z M90.82,331.97
		c0.88-0.25,2.78-0.25,3.85-1.19c3.74-3.31,7.72-6.57,10.61-10.58c2.98-4.13,1.29-10.08-2.66-13.18c-3.87-3.03-9.41-3.05-13.23,0.26
		c-2.7,2.34-5.3,4.88-7.55,7.64c-2.76,3.39-2.9,7.42-1.04,11.27C82.62,329.98,85.93,331.79,90.82,331.97z"/>
	<path d="M268.57,347.06c6.24,0,12.49-0.07,18.73,0.02c4.91,0.08,7.35,2.15,7.37,5.94c0.02,3.82-2.42,5.95-7.31,5.98
		c-12.49,0.07-24.98,0.07-37.47,0c-4.9-0.03-7.36-2.13-7.38-5.91c-0.02-3.8,2.44-5.93,7.31-6.01
		C256.08,346.98,262.32,347.06,268.57,347.06z"/>
	<path d="M268.98,366.6c4.37,0,8.75-0.07,13.12,0.02c4.05,0.08,6.67,2.42,6.75,5.79c0.08,3.36-2.52,6.04-6.5,6.1
		c-9.14,0.14-18.29,0.14-27.44,0c-4.01-0.06-6.61-2.69-6.56-6.05c0.05-3.4,2.65-5.75,6.7-5.84
		C259.7,366.53,264.34,366.6,268.98,366.6z"/>
</g>
</svg>
