<?xml version="1.0" encoding="utf-8"?>
<!-- Generator: Adobe Illustrator 25.4.1, SVG Export Plug-In . SVG Version: 6.00 Build 0)  -->
<svg version="1.1" id="Capa_1" xmlns="http://www.w3.org/2000/svg" xmlns:xlink="http://www.w3.org/1999/xlink" x="0px" y="0px"
	 viewBox="0 0 487.58 490.68" style="enable-background:new 0 0 487.58 490.68;" xml:space="preserve">
<g>
	<path d="M39.32,242.13c1.79-4.51,4.04-8.6,8.64-10.96c10.76-5.51,23.03,2.06,23.26,14.64c0.3,16.58,2.42,32.86,7.21,48.75
		c10.71,35.48,30.87,64.46,60.05,87.23c25.49,19.89,54.4,31.61,86.46,34.91c43.36,4.47,83.23-5.53,118.77-31.05
		c34.1-24.5,57.09-57.05,67.05-97.92c12.79-52.47,3.62-101.19-28.59-144.81C354,104.76,315.99,82.17,269.12,74.78
		c-7.59-1.2-15.35-1.54-23.04-1.83c-11.22-0.43-18.39-6.58-18.29-16.22c0.09-9.65,7.5-15.93,18.6-15.78
		c95.09,1.35,176.13,67.28,196.93,160.22c24.59,109.86-44.91,218.96-155.37,243.63c-9.43,2.11-19.17,2.84-28.76,4.23
		c-1.17,0.17-2.32,0.46-3.48,0.69c-7.98,0-15.97,0-23.95,0c-1.03-0.22-2.05-0.58-3.08-0.65c-28.66-1.94-55.81-9.48-80.92-23.34
		C90.15,393.93,54.93,345.61,42.54,280.9c-1.49-7.79-2.17-15.73-3.22-23.6C39.32,252.24,39.32,247.19,39.32,242.13z"/>
	<path d="M227.75,261.29c-2.87,0-5.36,0-7.85,0c-13.03,0-26.07,0.06-39.1-0.02c-9.81-0.06-16.86-6.78-16.89-15.9
		c-0.03-9.12,7.02-15.93,16.79-15.99c14.1-0.09,28.2-0.02,42.29-0.02c1.43,0,2.87,0,4.76,0c0-1.73,0-3.15,0-4.56
		c0-13.97-0.03-27.93,0.01-41.9c0.03-10.18,6.56-17.3,15.81-17.39c9.4-0.09,16.08,7.11,16.11,17.49
		c0.04,15.28,0.01,30.55,0.01,46.36c1.65,0,3.06,0,4.46,0c14.36,0,28.73-0.05,43.09,0.03c6.35,0.03,11.3,2.79,14.35,8.45
		c2.88,5.36,2.66,10.79-0.54,15.93c-3.31,5.31-8.34,7.54-14.51,7.53c-13.96-0.02-27.93-0.01-41.9-0.01c-1.45,0-2.91,0-4.96,0
		c0,1.57,0,2.97,0,4.36c0,14.5,0.09,28.99-0.05,43.49c-0.08,8.1-5.47,14.31-13.19,15.77c-7,1.32-14.48-2.54-17.19-9.32
		c-1-2.51-1.41-5.41-1.44-8.14c-0.14-13.83-0.06-27.66-0.06-41.5C227.75,264.53,227.75,263.1,227.75,261.29z"/>
	<path d="M134.46,106.07c-0.86,1.82-1.78,5.66-4.08,8.28c-5.43,6.18-11.31,12.01-17.4,17.55c-6.41,5.83-15.65,5.31-21.63-0.65
		c-5.97-5.95-6.52-15.22-0.7-21.62c5.63-6.19,11.6-12.1,17.81-17.7c4.88-4.4,10.85-4.91,16.76-2.05
		C131.12,92.71,134.05,97.69,134.46,106.07z"/>
	<path d="M161.73,91.35c-7.73,0.05-13.88-4.64-15.85-11.87c-1.85-6.8,1.06-14.56,7.54-17.67c7.88-3.78,16-7.17,24.26-10.06
		c7.31-2.56,15.43,1.48,18.67,8.41c3.2,6.86,1.47,15.97-5.1,19.44c-8.64,4.55-17.97,7.79-27.04,11.53
		C163.39,91.47,162.37,91.3,161.73,91.35z"/>
	<path d="M74.05,147.02c10.42,0.06,18.34,10.1,15.08,20.02c-2.73,8.29-6.21,16.4-10.04,24.26c-3.58,7.33-12.42,10.03-19.88,6.91
		c-7.4-3.09-11.68-11.39-9.02-19.03c2.84-8.13,6.27-16.08,9.88-23.9C62.59,149.83,68.06,146.99,74.05,147.02z"/>
</g>
</svg>
