<?xml version="1.0" encoding="utf-8"?>
<!-- Generator: Adobe Illustrator 25.4.1, SVG Export Plug-In . SVG Version: 6.00 Build 0)  -->
<svg version="1.1" id="Capa_1" xmlns="http://www.w3.org/2000/svg" xmlns:xlink="http://www.w3.org/1999/xlink" x="0px" y="0px"
	 viewBox="0 0 487.58 490.68" style="enable-background:new 0 0 487.58 490.68;" xml:space="preserve">
<g>
	<path d="M202.37,351.15c0-22.7-0.8-45.43,0.31-68.07c0.62-12.58-3.93-15.53-15.35-14.64c-11.52,0.9-23.2-0.31-34.76,0.36
		c-8.89,0.52-11.18-3.02-10.88-11.33c0.55-15.62,0.52-31.28,0.01-46.9c-0.26-7.93,2.42-10.65,10.33-10.33
		c13.09,0.52,26.23-0.28,39.31,0.28c8.57,0.37,11.44-2.59,11.21-11.23c-0.47-17.13-0.48-34.31,0.34-51.43
		c2.31-48.56,32.66-79.25,80.98-82.54c5.02-0.34,10.09-0.82,15.09-0.46c60.55,4.35,44.23-6.26,46.7,54.23
		c0.27,6.67-2.83,8.61-9.05,8.68c-10.56,0.11-21.22,0.13-31.64,1.58c-15.71,2.19-24.85,12.24-27.22,27.96
		c-7.87,52.38-7.32,53.03,45.01,53.05c20.19,0.01,20.21,0.01,16.85,20.26c-2.55,15.37-0.36,34.95-9.1,44.9
		c-8.51,9.7-28.55,2.82-43.48,2.84c-10.9,0.02-10.64,6.1-10.62,13.66c0.11,45.9-0.37,91.8,0.33,137.69
		c0.19,12.37-2.92,17.02-15.82,16.13c-16.06-1.1-32.26-0.6-48.38-0.13c-7.93,0.23-10.44-2.59-10.32-10.42
		C202.62,400.58,202.37,375.86,202.37,351.15z"/>
</g>
</svg>
