<?xml version="1.0" encoding="utf-8"?>
<!-- Generator: Adobe Illustrator 25.4.1, SVG Export Plug-In . SVG Version: 6.00 Build 0)  -->
<svg version="1.1" id="Capa_1" xmlns="http://www.w3.org/2000/svg" xmlns:xlink="http://www.w3.org/1999/xlink" x="0px" y="0px"
	 viewBox="0 0 487.58 490.68" style="enable-background:new 0 0 487.58 490.68;" xml:space="preserve">
<g>
	<path d="M58.86,366.98c38.56,0.22,73.93-8.08,106.94-33.54c-33.76-5.13-57.49-20.73-69.97-52.58c9.06-2.64,18.58,1.11,27.57-4.64
		c-33.5-13.78-53.77-36.84-55.57-74.16c10.31-1.13,17.48,8.83,28.28,3.53C68.63,176.6,59.2,144.25,78.42,105.36
		c23.53,26.61,49.91,47.87,81.6,61.84c21.31,9.4,43.63,15.1,66.68,18.47c9.61,1.4,12.62-0.01,11.93-11.07
		c-2.13-33.93,12.26-60.1,42.82-75.23c29.69-14.69,58.66-11.1,84.6,9.84c5.46,4.41,9.86,5.07,16.37,3.57
		c12.7-2.93,24.23-8.78,38.1-15.02c-3.38,17.09-14.01,26.84-24.84,37.73c11.97,3.76,21.21-5.77,33.05-2.41
		c-5.59,6.62-9.36,14-15.39,17.66c-16.99,10.31-18.79,25.89-20.07,43.56c-8.53,117.67-102.84,206.11-220.05,205.9
		C132.46,400.15,93.52,390.8,58.86,366.98z"/>
</g>
</svg>
