<?xml version="1.0" encoding="utf-8"?>
<!-- Generator: Adobe Illustrator 25.4.1, SVG Export Plug-In . SVG Version: 6.00 Build 0)  -->
<svg version="1.1" id="Capa_1" xmlns="http://www.w3.org/2000/svg" xmlns:xlink="http://www.w3.org/1999/xlink" x="0px" y="0px"
	 viewBox="0 0 487.58 490.68" style="enable-background:new 0 0 487.58 490.68;" xml:space="preserve">
<g>
	<path d="M260.45,219.3c21.65-29.56,48.79-39.15,80.93-34.92c41.31,5.44,61.93,27.2,66.47,69.3c5.32,49.31,1.55,98.8,2.73,148.19
		c0.16,6.74-1.69,10.33-9.26,10.19c-17.15-0.32-34.32-0.48-51.46,0.06c-9.72,0.31-8.72-5.73-8.71-11.86
		c0.03-33.3,0.04-66.6-0.01-99.9c-0.01-8.56-0.17-17.07-2.1-25.56c-4.69-20.65-14.63-30.05-33.34-30.72
		c-19.77-0.71-35.18,10.84-39.55,30.33c-2.66,11.83-3.11,23.95-3.07,36.09c0.11,29.77-0.22,59.54,0.19,89.3
		c0.12,8.73-1.73,12.87-11.58,12.36c-15.1-0.77-30.28-0.55-45.4-0.07c-8.17,0.26-11.71-1.91-11.67-10.89
		c0.29-67.1,0.26-134.2,0.03-201.3c-0.03-8.26,2.14-11.88,11.06-11.43c13.09,0.65,26.32,1.09,39.33-0.1
		c12.91-1.17,17.46,3.41,15.51,15.87C259.95,208.02,260.45,211.95,260.45,219.3z"/>
	<path d="M81.45,300.48c0-33.28,0.27-66.56-0.18-99.84c-0.12-9,2.09-12.65,11.76-12.19c16.1,0.75,32.28,0.5,48.4,0.08
		c7.25-0.19,9.53,2.33,9.51,9.52c-0.21,68.07-0.25,136.15,0.04,204.22c0.04,8.52-3.5,10.03-10.84,9.84
		c-15.62-0.39-31.29-0.62-46.89,0.07c-9.25,0.41-12.17-2.43-12.02-11.86C81.78,367.04,81.45,333.76,81.45,300.48z"/>
	<path d="M156.46,117.81c0.05,22.23-17.87,40.41-39.89,40.47c-22.2,0.06-39.83-17.85-39.79-40.41c0.05-22.44,17.78-39.7,40.48-39.41
		C138.83,78.73,156.41,96.39,156.46,117.81z"/>
</g>
</svg>
