<?xml version="1.0" encoding="utf-8"?>
<!-- Generator: Adobe Illustrator 25.4.1, SVG Export Plug-In . SVG Version: 6.00 Build 0)  -->
<svg version="1.1" id="Capa_1" xmlns="http://www.w3.org/2000/svg" xmlns:xlink="http://www.w3.org/1999/xlink" x="0px" y="0px"
	 viewBox="0 0 487.58 490.68" style="enable-background:new 0 0 487.58 490.68;" xml:space="preserve">
<g>
	<path d="M333,137.03c-11.82,0.49-18.59,6.93-18.67,18.9c-0.09,11.85,6.71,18.73,18.15,19.87c10.69,1.07,20.75-8.93,20.7-19.3
		C353.11,145.11,344.55,136.56,333,137.03z"/>
	<path d="M245.42,159.61c-46.29-0.65-86.09,38.25-86.62,84.68c-0.53,46.41,38.67,86.61,84.56,86.73
		c47.49,0.12,86.68-38.89,86.63-86.25C329.96,199.07,291.41,160.26,245.42,159.61z M244.21,301.09
		c-29.66,0.16-56.05-26.62-55.54-56.38c0.51-29.87,25.51-54.8,55.27-55.1c30.42-0.31,56.07,25.1,56.07,55.52
		C299.99,275.48,274.63,300.92,244.21,301.09z"/>
	<path d="M409.55,175.48c-3.76-61.89-35.67-92.67-97.8-95.76c-47.33-2.35-94.67-2.27-141.99,0.52c-51.36,3.03-86.35,35.2-90.02,86
		c-3.81,52.8-3.75,105.83,0.04,158.63c3.54,49.3,38.28,82.25,87.48,85.35c51.84,3.26,103.72,3.19,155.56-0.05
		c47.74-2.98,82.29-37.44,86.26-85.17C411.3,298.35,410.95,198.56,409.55,175.48z M381.44,287.61c-0.38,6.98-0.85,13.96-1.41,20.93
		c-0.56,6.98-1.22,13.95-1.96,20.91c-3.02,28.17-23.84,47.34-52.6,50.13c-53.29,5.16-106.74,4.92-160.04,0.24
		c-8.44-0.74-16-2.68-22.63-5.72c-4.97-2.28-9.43-5.18-13.34-8.66c-9.13-8.12-15.34-19.38-18.37-33.3
		c-0.87-3.98-1.48-8.17-1.82-12.56c-0.18-2.26-0.37-4.52-0.57-6.78c-0.39-4.52-0.77-9.04-1.01-13.57c-0.12-2.26-0.21-4.52-0.24-6.79
		c-0.14-9.58-0.16-19.16-0.15-28.74c0.01-4.79,0.02-9.58,0.04-14.37c0.01-4.79,0.03-9.58,0.03-14.37
		c-0.28-12.61-0.48-25.24-0.03-37.82c0.45-12.58,1.54-25.12,3.84-37.55c1.95-10.54,5.78-19.62,11.31-26.99
		c9.22-12.28,23.16-19.83,40.96-21.48c54.3-5.05,108.76-5.28,163.05,0.15c12.55,1.25,23.4,5.6,31.9,12.5
		c7.28,5.92,12.84,13.71,16.25,23.05c1.71,4.67,2.88,9.72,3.46,15.12c3.02,27.87,4.5,55.81,4.49,83.75
		C382.58,259.68,382.19,273.65,381.44,287.61z"/>
</g>
</svg>
